<?xml version="1.0" encoding="utf-8"?>
<!-- Generator: Adobe Illustrator 20.1.0, SVG Export Plug-In . SVG Version: 6.00 Build 0)  -->
<svg version="1.1" id="Layer_1" xmlns="http://www.w3.org/2000/svg" xmlns:xlink="http://www.w3.org/1999/xlink" x="0px" y="0px"
	 viewBox="0 0 1600 900" style="enable-background:new 0 0 1600 900;" xml:space="preserve">
<style type="text/css">
	.st0{fill:url(#SVGID_1_);}
	.st1{fill:url(#SVGID_2_);}
	.st2{fill:url(#SVGID_3_);}
	.st3{fill:url(#SVGID_4_);}
	.st4{fill:url(#SVGID_5_);}
	.st5{fill:#8CCC25;}
	.st6{fill:#CCCCCC;}
	.st7{fill:none;}
	.st8{fill:url(#SVGID_6_);}
</style>
<g>
	<title>bg</title>
	<g id="Layer_2_1_">
		<g id="Layer_1-2_1_">
			<g id="Layer_2-2_1_">
				<g id="Layer_1-2-2_1_">
					
						<radialGradient id="SVGID_1_" cx="-223.1333" cy="-1968.9458" r="931.49" gradientTransform="matrix(1.6665 0 0 1.18 989.167 2252.53)" gradientUnits="userSpaceOnUse">
						<stop  offset="0" style="stop-color:#606657"/>
						<stop  offset="1" style="stop-color:#000000"/>
					</radialGradient>
					<rect x="325.7" class="st0" width="1272.5" height="897.2"/>
					
						<image style="overflow:visible;opacity:0.4;enable-background:new    ;" width="1244" height="567" xlink:href="333BEC4FF40D3EEF.png"  transform="matrix(1.2735 0 0 1.1429 172.9787 322.98)">
					</image>
					
						<linearGradient id="SVGID_2_" gradientUnits="userSpaceOnUse" x1="233.9092" y1="-1190.84" x2="233.9092" y2="-1620.84" gradientTransform="matrix(1 0 0 1 728 2088)">
						<stop  offset="0" style="stop-color:#000000"/>
						<stop  offset="1" style="stop-color:#262626"/>
					</linearGradient>
					<rect x="325.7" y="467.2" class="st1" width="1272.5" height="430"/>
					
						<linearGradient id="SVGID_3_" gradientUnits="userSpaceOnUse" x1="233.9148" y1="-1567.1799" x2="233.9148" y2="-1620.75" gradientTransform="matrix(1 0 0 1 728 2088)">
						<stop  offset="0" style="stop-color:#4D4D4D"/>
						<stop  offset="1" style="stop-color:#737373"/>
					</linearGradient>
					<rect x="325.7" y="467.2" class="st2" width="1272.5" height="53.6"/>
					
						<radialGradient id="SVGID_4_" cx="-16.6566" cy="2688.3259" r="438.973" gradientTransform="matrix(1.6665 0 0 0.68 989.6225 -1580.33)" gradientUnits="userSpaceOnUse">
						<stop  offset="0" style="stop-color:#DEE6CF"/>
						<stop  offset="0.27" style="stop-color:#DBE4CC"/>
						<stop  offset="0.5" style="stop-color:#D3DCC2"/>
						<stop  offset="0.71" style="stop-color:#C4CFB0"/>
						<stop  offset="0.91" style="stop-color:#B0BE98"/>
						<stop  offset="1" style="stop-color:#A4B38A"/>
					</radialGradient>
					<path class="st3" d="M458.8,43.3h1006.1c35.1,0,63.6,20.1,63.6,44.9v291.4c0,24.8-28.5,44.9-63.6,44.9H458.8
						c-35.1,0-63.6-20.1-63.6-44.9V88.2C395.3,63.4,423.7,43.3,458.8,43.3z"/>
					
						<linearGradient id="SVGID_5_" gradientUnits="userSpaceOnUse" x1="233.8926" y1="-1790.88" x2="233.8926" y2="-2040.1899" gradientTransform="matrix(1 0 0 1 728 2088)">
						<stop  offset="0" style="stop-color:#DCE6C8"/>
						<stop  offset="0.3" style="stop-color:#DEE7CB"/>
						<stop  offset="0.55" style="stop-color:#E5ECD5"/>
						<stop  offset="0.78" style="stop-color:#EFF4E7"/>
						<stop  offset="1" style="stop-color:#FFFFFF"/>
					</linearGradient>
					<path class="st4" d="M1040.6,205.6c173.1,0,332.6,5.8,481.6,19.2V88.2c0-22.3-25.7-40.3-57.3-40.4H458.8
						c-31.6,0-57.2,18.1-57.3,40.4v208.9C580.5,239.5,801.5,205.6,1040.6,205.6z"/>
					<path class="st5" d="M1542.2,790.4H381.7c-14.1,0-25.5,8-25.5,17.9V864c0,9.9,11.4,17.9,25.5,17.9h1160.5
						c14.1,0,25.5-8,25.5-17.9v-55.7C1567.6,798.4,1556.2,790.4,1542.2,790.4z M1565.1,864c0,8.9-10.3,16.2-22.9,16.2H381.7
						c-12.7,0-22.9-7.2-22.9-16.2l0,0v-55.7c0-8.9,10.3-16.2,22.9-16.2h1160.5c12.7,0,22.9,7.2,22.9,16.2V864z"/>
					<path d="M414.5,797.2v20.6h-3.8v-20.6H414.5z"/>
					<path d="M421.3,807c0-1.3,0-2.7-0.2-4h3.3l0.2,2.4h0.1c1.7-1.9,4.3-2.9,6.9-2.8c2.9,0,7.4,1.2,7.4,6.3v8.8h-3.8v-8.5
						c0-2.4-1.3-4.4-4.8-4.4c-3,0.1-5.4,1.9-5.4,4v8.9h-3.8L421.3,807z"/>
					<path d="M445.8,817.8V805h-2.9v-2h2.9v-0.7c-0.2-2,0.7-3.9,2.4-5.2c1.5-0.9,3.3-1.4,5.1-1.4c1.1,0,2.2,0.1,3.2,0.4l-0.5,2.1
						c-0.8-0.2-1.6-0.4-2.4-0.3c-3.2,0-4.1,2-4.1,4.3v0.8h5.1v2h-5.1v12.7L445.8,817.8z"/>
					<path d="M476.4,810.3c0,5.5-5.4,7.8-10.4,7.8c-5.6,0-10-2.9-10-7.6c0-4.9,4.6-7.8,10.4-7.8
						C472.3,802.7,476.4,805.8,476.4,810.3z M459.9,810.4c0.2,3.2,3.1,5.6,6.7,5.5c3.3-0.1,5.9-2.5,6.1-5.5c0.1-3-2.4-5.5-5.8-5.6
						c-0.2,0-0.3,0-0.5,0c-3.4-0.2-6.3,2.1-6.5,5.1C459.8,810,459.8,810.2,459.9,810.4L459.9,810.4z"/>
					<rect x="844.7" y="545.5" class="st6" width="3.8" height="216.7"/>
					<rect id="_Slice__1_" x="362.6" y="792.2" class="st7" width="1206.3" height="87"/>
					<rect id="_Slice_2_1_" x="402" y="47.5" class="st7" width="1123.6" height="375"/>
				</g>
			</g>
			
				<radialGradient id="SVGID_6_" cx="-257.425" cy="1440" r="307.278" gradientTransform="matrix(1.111 0 0 -1.1 448.8336 2034)" gradientUnits="userSpaceOnUse">
				<stop  offset="0" style="stop-color:#DEE6CF"/>
				<stop  offset="0.27" style="stop-color:#DBE4CC"/>
				<stop  offset="0.5" style="stop-color:#D3DCC2"/>
				<stop  offset="0.71" style="stop-color:#C4CFB0"/>
				<stop  offset="0.91" style="stop-color:#B0BE98"/>
				<stop  offset="1" style="stop-color:#A4B38A"/>
			</radialGradient>
			<rect class="st8" width="325.7" height="900"/>
		</g>
	</g>
</g>
</svg>
