<svg xmlns="http://www.w3.org/2000/svg" viewBox="0 0 737.09 660.98"><defs><style>.cls-1,.cls-11,.cls-12,.cls-4{fill:#729f98;}.cls-13,.cls-14,.cls-2,.cls-8{fill:#fff;stroke:#3c7079;}.cls-11,.cls-12,.cls-13,.cls-14,.cls-2,.cls-4,.cls-8{stroke-miterlimit:10;}.cls-2{stroke-width:4.52px;}.cls-11,.cls-12,.cls-13,.cls-14,.cls-3,.cls-4,.cls-8{isolation:isolate;}.cls-4,.cls-8{font-size:135.33px;letter-spacing:-0.02em;}.cls-11,.cls-12,.cls-4{stroke:#729f98;}.cls-4{stroke-width:1.54px;}.cls-11,.cls-12,.cls-13,.cls-14,.cls-4,.cls-8{font-family:Noteworthy-Bold, Noteworthy;font-weight:700;}.cls-5{letter-spacing:-0.06em;}.cls-6{letter-spacing:-0.07em;}.cls-7{letter-spacing:-0.02em;}.cls-8{stroke-width:2.89px;}.cls-9{letter-spacing:-0.07em;}.cls-10{letter-spacing:-0.02em;}.cls-11,.cls-12{font-size:136.81px;stroke-width:0.89px;}.cls-11{letter-spacing:-0.02em;}.cls-13,.cls-14{font-size:136.81px;stroke-width:2.89px;}.cls-13{letter-spacing:-0.02em;}</style></defs><title>header_3</title><g id="Layer_2" data-name="Layer 2"><g id="Layer_1-2" data-name="Layer 1"><g id="Layer_2-2" data-name="Layer 2"><g id="Icon"><path class="cls-1" d="M441.62,374.54a21.44,21.44,0,0,0-9.67,5.9,15.27,15.27,0,0,0-2.44,3.76c-2.28-5.53-7.9-9.59-14.37-11.56-8.76-2.66-21.27-2.87-30,1.9a21.44,21.44,0,0,0-9.67,5.9,15.28,15.28,0,0,0-2.44,3.76c-2.28-5.53-7.9-9.59-14.37-11.56-8.76-2.66-21.27-2.87-30,1.9a21.44,21.44,0,0,0-9.67,5.9,15.27,15.27,0,0,0-2.44,3.76c-2.28-5.53-7.9-9.59-14.37-11.56-8.76-2.66-21.27-2.87-30,1.9a21.44,21.44,0,0,0-9.67,5.9,15.27,15.27,0,0,0-2.44,3.76c-2.28-5.53-7.9-9.59-14.37-11.56-8.76-2.66-21.27-2.87-30,1.9a21.44,21.44,0,0,0-9.67,5.9c-10.2,11.65,3.24,26.39,15.3,28.31,7.59,1.22,15.86.19,23.38-1.22,6.77-1.27,12.62-5.09,15.21-11.64.09-.24.18-.48.27-.73,2.92,6.81,10.53,12.44,17.67,13.58,7.59,1.22,15.86.19,23.38-1.22,6.77-1.27,12.62-5.09,15.21-11.64.09-.24.18-.48.27-.73,2.92,6.81,10.53,12.44,17.67,13.58,7.59,1.22,15.86.19,23.38-1.22,6.77-1.27,12.62-5.09,15.21-11.64.09-.24.18-.48.27-.73,2.92,6.81,10.53,12.44,17.67,13.58,7.59,1.22,15.86.19,23.38-1.22,6.77-1.27,12.62-5.09,15.21-11.64.09-.24.18-.48.27-.73,2.92,6.81,10.53,12.44,17.67,13.58,7.59,1.22,15.86.19,23.38-1.22,6.77-1.27,12.62-5.09,15.21-11.64,4.52-11.35-3.7-20-14.17-23.18C462.9,370,450.39,369.79,441.62,374.54Zm-197.85,17.7c-4.52,2.06-11.23,1.88-16.09,2.15-4,.22-8.48.21-11.18-3.23-1.12-1.43-1.17-2.52-.6-3.45,4.73-1.05,9.1-2.72,14.14-2.49,1.17.05,2.45.19,3.51.33.86.1,4,.61,1.73.26,1.45.22,2.88.47,4.32.81.79.19,1.55.41,2.32.65,0,0,1.55.58,1.45.5a15.73,15.73,0,0,1,2.5,1.6c-.22.52-.07.4.09.06h0C245.54,391,245.42,391.46,243.77,392.24Zm56.53,0c-4.52,2.06-11.23,1.88-16.09,2.15-4,.22-8.48.21-11.18-3.23-1.12-1.43-1.17-2.52-.6-3.45,4.73-1.05,9.1-2.72,14.14-2.49,1.17.05,2.45.19,3.51.33.86.1,4,.61,1.73.26,1.45.22,2.88.47,4.32.81.79.19,1.55.41,2.32.65,0,0,1.55.58,1.45.5a15.73,15.73,0,0,1,2.5,1.6c-.22.52-.07.4.09.06h0c-.4,1.54-.54,2-2.19,2.81Zm56.53,0c-4.52,2.06-11.23,1.88-16.09,2.15-4,.22-8.48.21-11.18-3.23-1.12-1.43-1.17-2.52-.6-3.45,4.73-1.05,9.1-2.72,14.14-2.49,1.17.05,2.45.19,3.51.33.86.1,4,.61,1.73.26,1.45.22,2.88.47,4.32.81.79.19,1.55.41,2.32.65,0,0,1.55.58,1.45.5a15.73,15.73,0,0,1,2.5,1.6c-.22.52-.07.4.09.06h0c-.36,1.54-.54,2-2.19,2.81Zm56.53,0c-4.52,2.06-11.23,1.88-16.09,2.15-4,.22-8.48.21-11.18-3.23-1.12-1.43-1.17-2.52-.6-3.45,4.73-1.05,9.1-2.72,14.14-2.49,1.17.05,2.45.19,3.51.33.86.1,4,.61,1.73.26,1.45.22,2.88.47,4.32.81.79.19,1.55.41,2.32.65,0,0,1.55.58,1.45.5a15.73,15.73,0,0,1,2.5,1.6c-.22.52-.07.4.09.06h0c-.41,1.54-.55,2-2.2,2.81Zm58.72-2.78h0c-.46,1.51-.6,2-2.25,2.76-4.52,2.06-11.23,1.88-16.09,2.15-4,.22-8.48.21-11.18-3.23-1.12-1.43-1.17-2.52-.6-3.45,4.73-1.05,9.1-2.72,14.14-2.49,1.17.05,2.45.19,3.51.33.86.1,4,.61,1.73.26,1.45.22,2.88.47,4.32.81.79.19,1.55.41,2.32.65,0,0,1.55.58,1.45.5a15.74,15.74,0,0,1,2.5,1.6c-.16.54,0,.42.17.09Z"/><path class="cls-1" d="M249.4,371.1c7.59,1.22,15.86.19,23.38-1.22,6.77-1.27,12.62-5.09,15.21-11.64.09-.24.18-.48.27-.73,2.92,6.81,10.53,12.44,17.67,13.58,7.59,1.22,15.86.19,23.38-1.22,6.77-1.27,12.62-5.09,15.21-11.64.09-.24.18-.48.27-.73,2.92,6.81,10.53,12.44,17.67,13.58,7.59,1.22,15.86.19,23.38-1.22,6.77-1.27,12.62-5.09,15.21-11.64.09-.24.18-.48.27-.73,2.92,6.81,10.53,12.44,17.67,13.58,7.59,1.22,15.86.19,23.38-1.22,6.77-1.27,12.62-5.09,15.21-11.64,4.52-11.44-3.74-20.09-14.18-23.26-8.76-2.66-21.27-2.87-30,1.9a21.44,21.44,0,0,0-9.67,5.9,15.28,15.28,0,0,0-2.44,3.76c-2.28-5.53-7.9-9.59-14.37-11.56-8.76-2.66-21.27-2.87-30,1.9a21.44,21.44,0,0,0-9.67,5.9,15.28,15.28,0,0,0-2.44,3.76c-2.28-5.53-7.9-9.59-14.37-11.56-8.76-2.66-21.27-2.87-30,1.9a21.44,21.44,0,0,0-9.67,5.9,15.28,15.28,0,0,0-2.44,3.76c-2.28-5.53-7.9-9.59-14.37-11.56-8.76-2.66-21.27-2.87-30,1.9a21.44,21.44,0,0,0-9.67,5.9C223.9,354.44,237.34,369.18,249.4,371.1Zm164.35-21c4.73-1.05,9.1-2.72,14.14-2.49,1.17.05,2.45.19,3.51.33.86.1,4,.61,1.73.26,1.45.22,2.88.47,4.32.81.79.19,1.55.41,2.32.65,0,0,1.55.58,1.45.5a15.72,15.72,0,0,1,2.5,1.6c-.22.52-.07.4.09.06h0c-.46,1.51-.6,2-2.25,2.76-4.52,2.06-11.23,1.88-16.09,2.15-4,.22-8.48.22-11.18-3.23C413.22,352,413.17,350.95,413.74,350.07Zm-56.53,0c4.73-1.05,9.1-2.72,14.14-2.49,1.17.05,2.45.19,3.51.33.86.1,4,.61,1.73.26,1.45.22,2.88.47,4.32.81.79.19,1.55.41,2.32.65,0,0,1.55.58,1.45.5a15.72,15.72,0,0,1,2.5,1.6c-.22.52-.07.4.09.06h0c-.46,1.51-.6,2-2.25,2.76-4.52,2.06-11.23,1.88-16.09,2.15-4,.22-8.48.22-11.18-3.23C356.69,352,356.65,350.95,357.21,350.07Zm-56.52,0c4.73-1.05,9.1-2.72,14.14-2.49,1.17.05,2.45.19,3.51.33.86.1,4,.61,1.73.26,1.45.22,2.88.47,4.32.81.79.19,1.55.41,2.32.65,0,0,1.55.58,1.45.5a15.72,15.72,0,0,1,2.5,1.6c-.22.52-.07.4.09.06h0c-.46,1.51-.6,2-2.25,2.76-4.52,2.06-11.23,1.88-16.09,2.15-4,.22-8.48.22-11.18-3.23C300.16,352,300.12,350.95,300.69,350.07Zm-56.53,0c4.73-1.05,9.1-2.72,14.14-2.49,1.17.05,2.45.19,3.51.33.86.1,4,.61,1.73.26,1.45.22,2.88.47,4.32.81.79.19,1.55.41,2.32.65,0,0,1.55.58,1.45.5a15.72,15.72,0,0,1,2.5,1.6c-.22.52-.07.4.09.06h0c-.46,1.51-.6,2-2.25,2.76-4.52,2.06-11.23,1.88-16.09,2.15-4,.22-8.48.22-11.18-3.23C243.64,352,243.6,350.95,244.16,350.07Z"/><path class="cls-1" d="M575.68,270.91c-3.12-5.85-10.62-9.44-17.38-8.82a147.12,147.12,0,0,0-2.09-17.38v-2.19c0-12.8-2.81-30.63-16.41-35.95-13.31-5.18-22.86,6.51-27.33,17.77-10.14,0-20.27-.24-30.4-.36l-5-.06.05-.59a25.9,25.9,0,0,1-2.77.15,17.46,17.46,0,0,1-1.91-.07,25.85,25.85,0,0,1-3.7.28,28,28,0,0,1-4.5-.37,25.9,25.9,0,0,1-2.84.16h-.28v.25l-54.24-.66-93.26-1.13c-28.74-.35-57.47-.86-86.21-1l-13.12-.07.09-.39a26.12,26.12,0,0,1-4,.32,28.5,28.5,0,0,1-3.45-.21v.25H183.32c-1.63,0-3.3-.09-4.93,0l-.86.12c.63-.09.16,0-.1,0l-.48.06-.39.06.37-.05-.54.07-1.91.23-1.11.16c-3.15-7.28-8-13.5-15.93-15.61-18.5-5-25.73,17.94-26.65,31.76-.16,2.31-.22,4.65-.27,7-.5,2.63-.86,5.3-1.21,8a18,18,0,0,0-4.26-.5c-5.95.22-11.61,3.68-13.75,9.34-4.93,12.88,4.64,25.3,17.27,26.92.46,11.23,1.49,22.66,4.12,33.48,2.52,10.4,8.76,22.36,21.16,21.87,9.33-.36,15-7.45,18.22-15.4a23.16,23.16,0,0,0,4.32.92c2.47.28,5,.56,7.47.79-1.8,5.47-3.54,11-5.41,16.41-3.45,10-6.91,20.1-9.56,30.39-2.09,8.17-4.67,16.2-6.85,24.35a112.62,112.62,0,0,0-2.88,13c-.39,2.7-.32,5.44-.6,8.13l-4.11.61-.35.05.25-.05-.25.05c-.92.14-.51.1,0,0-.71.16-1.42.28-2.1.48.86-.29.36-1-1.19.34a6.09,6.09,0,0,1,.94-.27l.18,0a4.38,4.38,0,0,0-2,1.2h0a9.89,9.89,0,0,1,.86-.86l-.81.29-.72.23a5.18,5.18,0,0,0-3.54,6.1c-1.92,10.29-6.2,24.85,5.55,30.08,6,2.7,13.27,1.53,19.74,1.88,6.91.37,13.82.6,20.72.76,26.28.59,52.55,1.14,78.84,1.41q50.82.53,101.65,1l93.65.76,54.6.41h2.59c5.18,0,8.32-4.08,8.86-8.86a10.12,10.12,0,0,1,.12-1.12c.06-.6.54-3.32.13-1.45.31-1.4.63-2.8.93-4.2,4-6.57,1.51-15.73,1.37-22.86-.09-4.61-4-9-8.8-8.8q-3,.12-6,.21a30.73,30.73,0,0,0-.25-3.45c-.57-3.91-1.42-7.7-2.35-11.54-1.9-7.88-4.41-15.63-6.54-23.45-4.27-15.57-9.45-30.72-14.63-45.92a76.64,76.64,0,0,0,8.51,1.61c3.51.39,7,.47,10.51,1,2.2.34,4.36.86,6.57,1.15a19,19,0,0,0,3.4,2.5c11.41,6.48,22.45-1.57,26.77-12.21,4.32-10.48,5-22.45,5.94-33.68,0-.4.06-.79.09-1.19a8.15,8.15,0,0,0,.86-.13c5.89-1.23,10.69-3.09,14.43-8.1C576.39,281.84,578.45,276.1,575.68,270.91Zm-447.46,2.27a5.41,5.41,0,0,1-3.09-2c-1.15-1.49-2.47-4.9-1.32-6.62,1-1.5,2.76-1.73,4.66-1.73C128.3,266.29,128.22,269.75,128.22,273.18Zm36.27,5.93c-.66,7.14-1.52,14.26-2.28,21.4-.17,1.64-.42,3.29-.63,4.94s-.39,3.08-.49,3.79a78.58,78.58,0,0,1-2.42,11.46c-.86,2.88-2,5.84-3.82,7.29-.19.13-.47.33-.7.46a11.88,11.88,0,0,1-1.18.28c.44,0-.79-.31-1-.47a9.57,9.57,0,0,1-2.28-3.12,24.63,24.63,0,0,1-1.85-4.89c-2.63-9-3.26-18.54-4-27.86-.92-11.51-1.73-23.2-1.55-34.82.41-2.73.79-5.45,1.11-8.19,1-8.55.51-21,7.37-27.35s11.35,14.07,12.09,17.64c2.65,13.1,2.84,26.15,1.61,39.43Zm353,158c0,.29.05.59.07.86.11,1.73.31,3.45.47,5.18,0,.46.08.92.11,1.38a4.22,4.22,0,0,1-.27,1.28c-.23,1-.49,2-.75,3-13.29-.13-26.59-.21-39.88-.32l-87.5-.76q-50.35-.44-100.7-.79c-28-.18-55.89-.27-83.84-.09-8.9.06-17.8.08-26.71.32-2.66.07-5.31.14-8,.25-2.28.09-4.54.27-6.8.48a42.31,42.31,0,0,1-6.29.4,7,7,0,0,1-1.5-.12h0c-1.17-1.87-.29-5.88-.22-8,.05-1.49.05-3,0-4.42l2.64.39c9,1.32,18.27,1,27.34,1.14,28.3.48,56.58.61,84.89.59q52.3,0,104.6-.14,47.12-.09,94.24-.28C485.5,437.44,501.53,437.47,517.53,437.14Zm-19.75-53c2.59,7.65,5.18,15.39,8.33,22.85,1.56,3.74,3,7.49,4.93,11.09.3.57.63,1.12,1,1.66-11.06.16-22.14.08-33.19.15q-45.45.25-90.91.33-52.47.13-104.95.19c-29.64,0-59.28,0-88.94.58-9.65.17-19.32.26-29,.63.5-.73,1-1.48,1.47-2.26a82.19,82.19,0,0,0,4.5-9.72c2.86-6.83,5.33-13.82,7.77-20.78,6-17,11.53-34.17,17.66-51.13,5.48-15.21,10-31.64,24.18-41.25,7.52-5.1,15.85-6.7,24.62-8.53,10.13-2.12,20.81-4,31.17-2.49,7.08,1.06,12.15,5.18,15.54,11.38,4,7.31,3.63,14.92,5.36,22.8.79,3.6,4.07,5.47,7.37,5.55,4.48,1.8,9.73,1.73,14.46,1.73q9.33,0,18.66-.09c11.83-.18,23.64-.86,35.48-.8,6,0,8.74-5.18,8.12-9.84.86-5.75,1.05-11.43,3.51-17s6.29-10.36,11.94-12.59c8.44-3.32,19.37-1.73,28-.27,9,1.56,19.23,2.81,27.47,7,14.74,7.57,21.25,21.54,26.51,36.44,6.46,18.14,12.68,36.23,18.9,54.35Zm6.68-61.75c-4.4-.06-8.75-.86-13-.55l-.45-1.34c-5.66-17.2-16.13-33.42-33-41.39-9.92-4.7-21.33-6.65-32.11-8.31s-23.15-2.94-33.68.86a37.55,37.55,0,0,0-20.52,18.58,58.79,58.79,0,0,0-6,19c-9.26.2-18.52.6-27.73,1.26-5.95.43-11.9.92-17.85,1.3-2.31.15-4.75.22-7.16.46-.32-6.55-2.44-13.2-5-19-3.34-7.7-8.76-14.68-16.13-18.94-9.16-5.25-20.63-5.51-30.88-4.53-11.07,1.05-23.13,2.94-33.68,6.55-18,6.14-30.57,20.4-37.6,37.69-.24.6-.47,1.2-.7,1.8a94,94,0,0,0-13.53-.13c.42-2.52.76-5.06,1.1-7.59q.17-1.29.33-2.59l.05-.45,0-.33c.62-4.53,1-9.09,1.55-13.63,1-8.77,2-17.57,2.17-26.41.19-8.19-.95-16.55-2.29-24.62-.2-1.19-.41-2.44-.66-3.7.28,0,.56.07.86.09,3.45.24,6.91.17,10.36.27,9.86.25,19.72.42,29.58.61,27.69.53,55.38.79,83.07,1.11l93.75,1.1,79.26.92c11.16.13,22.45.66,33.6.54a143.24,143.24,0,0,0-1.33,36.38c.79,9,1.73,18.06,2.93,27,.05.39.08.55.09.6v.09q.18,1.46.37,2.92c.35,2.59.69,5.26,1.15,7.87.35,2,.78,4.17,1.32,6.31-2.76,0-5.51.25-8.29.21Zm39.33-40.58c-.76,10.74-1.28,21.59-3.33,32.22a42.93,42.93,0,0,1-3.11,10.69,9.24,9.24,0,0,1-2.59,3.65c.08-.06-.93.3-1.11.3A3,3,0,0,1,532,328a8.16,8.16,0,0,0-.86-1,20.11,20.11,0,0,1-1.28-2.12,40.31,40.31,0,0,1-3-9.56c-1.73-8.11-2.29-16.05-3.31-25.2-1.55-13.89-2.72-27.5-1-41.45a103.9,103.9,0,0,1,3.86-18.21c.86-2.86,3.26-9.5,6.91-9.91,3.32-.41,6,5.72,6.91,8.26,1.81,5.34,2.3,11,2.87,16.56.41,4,1,8,1.57,11.92.06,8.23-.32,16.48-.89,24.49Zm16.74-3.73a6.2,6.2,0,0,1-2,1c0-1.49.06-3,.06-4.49,1.06.68,2.28,1.46,3,1.93a5,5,0,0,1-1.15,1.63Z"/><path class="cls-1" d="M246,389.37h0a2.44,2.44,0,0,0,.09-.25Z"/><path class="cls-1" d="M302.53,389.37h0a2.45,2.45,0,0,0,.09-.25Z"/><path class="cls-1" d="M359.09,389.37h0a2.43,2.43,0,0,0,.09-.25Z"/><path class="cls-1" d="M415.64,389.37h0a2.43,2.43,0,0,0,.09-.25Z"/><path class="cls-1" d="M472.23,389.1l-.09.28h0A2.43,2.43,0,0,0,472.23,389.1Z"/><path class="cls-1" d="M444,351.45l-.09.28h0A2.43,2.43,0,0,0,444,351.45Z"/><path class="cls-1" d="M387.44,351.45l-.09.28h0A2.46,2.46,0,0,0,387.44,351.45Z"/><path class="cls-1" d="M330.92,351.45l-.09.28h0A2.48,2.48,0,0,0,330.92,351.45Z"/><path class="cls-1" d="M274.39,351.45l-.09.28h0A2.43,2.43,0,0,0,274.39,351.45Z"/><polygon class="cls-1" points="177.56 220.99 177.06 221.06 176.97 221.06 176.97 221.06 177.56 220.99"/><g id="Layer_2-2-2" data-name="Layer 2-2"><g id="Layer_1-2-2" data-name="Layer 1-2"><path class="cls-1" d="M455.65,131.31a46.24,46.24,0,1,0-46.24-46.24h0A46.24,46.24,0,0,0,455.65,131.31Zm0-76a29.73,29.73,0,1,1-29.73,29.75,29.73,29.73,0,0,1,29.73-29.75Z"/><path class="cls-1" d="M421.33,148a108.8,108.8,0,0,1,10.36,12.09,58.52,58.52,0,0,1,81.62,63.7h15.6a74,74,0,0,0-107.57-75.82Z"/><path class="cls-1" d="M421.74,223.79h15.41a92.49,92.49,0,0,0-185,0H267.6a77.07,77.07,0,0,1,154.14-1.63Q421.75,223,421.74,223.79Z"/><path class="cls-1" d="M344.67,115.93A53.95,53.95,0,1,0,290.72,62h0A54,54,0,0,0,344.67,115.93Zm0-93.45A39.5,39.5,0,1,1,305.17,62a39.5,39.5,0,0,1,39.5-39.5h0Z"/><path class="cls-1" d="M176,223.79a58.53,58.53,0,0,1,81.59-63.7A108.8,108.8,0,0,1,268,148a73.92,73.92,0,0,0-107.56,75.79Z"/><path class="cls-1" d="M233.68,131.31a46.24,46.24,0,1,0-46.24-46.24h0A46.24,46.24,0,0,0,233.68,131.31Zm0-76A29.73,29.73,0,1,1,204,85.11v-.06a29.77,29.77,0,0,1,29.67-29.71Z"/></g></g></g></g><g id="Layer_2-3" data-name="Layer 2"><g id="Icon-2" data-name="Icon"><path class="cls-2" d="M457.27,373.06a21.69,21.69,0,0,0-9.78,6,15.45,15.45,0,0,0-2.47,3.8c-2.31-5.59-8-9.71-14.54-11.7-8.86-2.69-21.52-2.9-30.39,1.92a21.69,21.69,0,0,0-9.78,6,15.45,15.45,0,0,0-2.47,3.8c-2.31-5.59-8-9.71-14.54-11.7-8.86-2.69-21.52-2.9-30.39,1.92a21.69,21.69,0,0,0-9.78,6,15.45,15.45,0,0,0-2.47,3.8c-2.31-5.59-8-9.71-14.54-11.7-8.86-2.69-21.52-2.9-30.39,1.92a21.69,21.69,0,0,0-9.78,6,15.45,15.45,0,0,0-2.47,3.8c-2.31-5.59-8-9.71-14.54-11.7-8.86-2.69-21.52-2.9-30.39,1.92a21.69,21.69,0,0,0-9.78,6c-10.32,11.78,3.28,26.7,15.48,28.65,7.68,1.23,16,.19,23.66-1.23,6.85-1.28,12.76-5.15,15.38-11.78.1-.24.18-.49.27-.74,3,6.89,10.66,12.59,17.87,13.74,7.68,1.23,16,.19,23.66-1.23,6.85-1.28,12.76-5.15,15.38-11.78.1-.24.18-.49.27-.74,3,6.89,10.66,12.59,17.87,13.74,7.68,1.23,16,.19,23.66-1.23,6.85-1.28,12.76-5.15,15.38-11.78.1-.24.18-.49.27-.74,3,6.89,10.66,12.59,17.87,13.74,7.68,1.23,16,.19,23.66-1.23,6.85-1.28,12.76-5.15,15.38-11.78.1-.24.18-.49.27-.74,3,6.89,10.66,12.59,17.87,13.74,7.68,1.23,16,.19,23.66-1.23,6.85-1.28,12.76-5.15,15.38-11.78,4.58-11.49-3.75-20.22-14.34-23.46C478.8,368.45,466.14,368.26,457.27,373.06ZM257.1,391c-4.58,2.08-11.36,1.9-16.28,2.18-4,.22-8.58.21-11.31-3.27-1.14-1.45-1.18-2.55-.61-3.49,4.79-1.07,9.21-2.75,14.3-2.52,1.19.05,2.48.19,3.55.33.87.1,4,.62,1.75.26,1.47.23,2.92.47,4.37.82.79.19,1.57.42,2.35.66,0,0,1.57.59,1.47.51a15.92,15.92,0,0,1,2.53,1.62c-.22.52-.07.4.1.06h0C258.89,389.68,258.77,390.19,257.1,391Zm57.19,0c-4.58,2.08-11.36,1.9-16.28,2.18-4,.22-8.58.21-11.31-3.27-1.14-1.45-1.18-2.55-.61-3.49,4.79-1.07,9.21-2.75,14.3-2.52,1.19.05,2.48.19,3.55.33.87.1,4,.62,1.75.26,1.47.23,2.92.47,4.37.82.79.19,1.57.42,2.35.66,0,0,1.57.59,1.47.51a15.92,15.92,0,0,1,2.53,1.62c-.22.52-.07.4.1.06h0c-.4,1.55-.55,2.06-2.22,2.85Zm57.19,0c-4.58,2.08-11.36,1.9-16.28,2.18-4,.22-8.58.21-11.31-3.27-1.14-1.45-1.18-2.55-.61-3.49,4.79-1.07,9.21-2.75,14.3-2.52,1.19.05,2.48.19,3.55.33.87.1,4,.62,1.75.26,1.47.23,2.92.47,4.37.82.79.19,1.57.42,2.35.66,0,0,1.57.59,1.47.51a15.92,15.92,0,0,1,2.53,1.62c-.22.52-.07.4.1.06h0c-.37,1.55-.55,2.06-2.22,2.85Zm57.19,0c-4.58,2.08-11.36,1.9-16.28,2.18-4,.22-8.58.21-11.31-3.27-1.14-1.45-1.18-2.55-.61-3.49,4.79-1.07,9.21-2.75,14.3-2.52,1.19.05,2.48.19,3.55.33.87.1,4,.62,1.75.26,1.47.23,2.92.47,4.37.82.79.19,1.57.42,2.35.66,0,0,1.57.59,1.47.51a15.92,15.92,0,0,1,2.53,1.62c-.22.52-.07.4.1.06h0c-.41,1.55-.56,2.06-2.23,2.85Zm59.4-2.81h0c-.46,1.53-.6,2-2.27,2.8-4.58,2.08-11.36,1.9-16.28,2.18-4,.22-8.58.21-11.31-3.27-1.14-1.45-1.18-2.55-.61-3.49,4.79-1.07,9.21-2.75,14.3-2.52,1.19.05,2.48.19,3.55.33.87.1,4,.62,1.75.26,1.47.23,2.92.47,4.37.82.79.19,1.57.42,2.35.66,0,0,1.57.59,1.47.51a15.93,15.93,0,0,1,2.53,1.62c-.16.55,0,.43.17.09Z"/><path class="cls-2" d="M262.8,369.59c7.68,1.23,16,.19,23.66-1.23,6.85-1.28,12.76-5.15,15.38-11.78.1-.24.18-.49.27-.74,3,6.89,10.66,12.59,17.87,13.74,7.68,1.23,16,.19,23.66-1.23,6.85-1.28,12.76-5.15,15.38-11.78.1-.24.18-.49.27-.74,3,6.89,10.66,12.59,17.87,13.74,7.68,1.23,16,.19,23.66-1.23,6.85-1.28,12.76-5.15,15.38-11.78.1-.24.18-.49.27-.74,3,6.89,10.66,12.59,17.87,13.74,7.68,1.23,16,.19,23.66-1.23,6.85-1.28,12.76-5.15,15.38-11.78C478,345,469.61,336.22,459,333c-8.86-2.69-21.52-2.9-30.39,1.92a21.69,21.69,0,0,0-9.78,6,15.45,15.45,0,0,0-2.47,3.8c-2.31-5.59-8-9.71-14.54-11.7-8.86-2.69-21.52-2.9-30.39,1.92a21.69,21.69,0,0,0-9.78,6,15.45,15.45,0,0,0-2.47,3.8c-2.31-5.59-8-9.71-14.54-11.7-8.86-2.69-21.52-2.9-30.39,1.92a21.69,21.69,0,0,0-9.78,6,15.45,15.45,0,0,0-2.47,3.8c-2.31-5.59-8-9.71-14.54-11.7-8.86-2.69-21.52-2.9-30.39,1.92a21.69,21.69,0,0,0-9.78,6C237,352.73,250.59,367.64,262.8,369.59Zm166.27-21.28c4.79-1.07,9.21-2.75,14.3-2.52,1.19.05,2.48.19,3.55.33.87.1,4,.62,1.75.26,1.47.23,2.92.47,4.37.82.79.19,1.57.42,2.35.66,0,0,1.57.59,1.47.51a15.91,15.91,0,0,1,2.53,1.62c-.22.52-.07.4.1.06h0c-.46,1.53-.6,2-2.27,2.8-4.58,2.08-11.36,1.9-16.28,2.18-4,.22-8.58.22-11.31-3.27C428.54,350.3,428.49,349.2,429.07,348.31Zm-57.19,0c4.79-1.07,9.21-2.75,14.3-2.52,1.19.05,2.48.19,3.55.33.87.1,4,.62,1.75.26,1.47.23,2.92.47,4.37.82.79.19,1.57.42,2.35.66,0,0,1.57.59,1.47.51a15.91,15.91,0,0,1,2.53,1.62c-.22.52-.07.4.1.06h0c-.46,1.53-.6,2-2.27,2.8-4.58,2.08-11.36,1.9-16.28,2.18-4,.22-8.58.22-11.31-3.27C371.35,350.3,371.31,349.2,371.87,348.31Zm-57.19,0c4.79-1.07,9.21-2.75,14.3-2.52,1.19.05,2.48.19,3.55.33.87.1,4,.62,1.75.26,1.47.23,2.92.47,4.37.82.79.19,1.57.42,2.35.66,0,0,1.57.59,1.47.51A15.91,15.91,0,0,1,345,350c-.22.52-.07.4.1.06h0c-.46,1.53-.6,2-2.27,2.8-4.58,2.08-11.36,1.9-16.28,2.18-4,.22-8.58.22-11.31-3.27C314.16,350.3,314.11,349.2,314.69,348.31Zm-57.19,0c4.79-1.07,9.21-2.75,14.3-2.52,1.19.05,2.48.19,3.55.33.87.1,4,.62,1.75.26,1.47.23,2.92.47,4.37.82.79.19,1.57.42,2.35.66,0,0,1.57.59,1.47.51a15.91,15.91,0,0,1,2.53,1.62c-.22.52-.07.4.1.06h0c-.46,1.53-.6,2-2.27,2.8-4.58,2.08-11.36,1.9-16.28,2.18-4,.22-8.58.22-11.31-3.27C257,350.3,256.93,349.2,257.49,348.31Z"/><path class="cls-2" d="M592.9,268.22c-3.15-5.91-10.75-9.55-17.59-8.92a148.84,148.84,0,0,0-2.11-17.59V239.5c0-12.95-2.84-31-16.6-36.37-13.47-5.24-23.13,6.59-27.65,18-10.26,0-20.51-.24-30.76-.37l-5.08-.06.05-.59a26.2,26.2,0,0,1-2.8.15,17.67,17.67,0,0,1-1.93-.07,26.16,26.16,0,0,1-3.75.29,28.37,28.37,0,0,1-4.55-.38,26.21,26.21,0,0,1-2.87.16H477v.25l-54.88-.66-94.35-1.14c-29.07-.35-58.15-.87-87.22-1l-13.27-.07.09-.39a26.43,26.43,0,0,1-4.06.32,28.83,28.83,0,0,1-3.49-.21v.25H195.94c-1.65,0-3.34-.1-5,0l-.87.12c.64-.09.16,0-.1,0l-.49.06-.39.06.38-.05-.55.07-1.93.24-1.13.16c-3.19-7.36-8.13-13.66-16.12-15.79-18.71-5-26,18.15-27,32.13-.16,2.34-.23,4.7-.27,7.06-.51,2.66-.87,5.36-1.22,8.07a18.25,18.25,0,0,0-4.31-.51c-6,.23-11.75,3.72-13.91,9.45-5,13,4.69,25.6,17.47,27.24.46,11.36,1.51,22.92,4.17,33.87,2.55,10.53,8.86,22.63,21.41,22.13,9.43-.37,15.17-7.54,18.43-15.58a23.43,23.43,0,0,0,4.37.93c2.5.29,5,.57,7.56.79-1.83,5.54-3.58,11.11-5.47,16.6-3.49,10.16-7,20.34-9.67,30.75-2.11,8.26-4.73,16.39-6.93,24.64a113.94,113.94,0,0,0-2.92,13.1c-.39,2.73-.32,5.5-.6,8.23l-4.16.62-.35.05.25-.05-.25.05c-.93.14-.52.1,0,0-.72.17-1.44.28-2.12.49.87-.3.37-1.06-1.21.34a6.16,6.16,0,0,1,1-.27l.18,0a4.43,4.43,0,0,0-2,1.21h0a10,10,0,0,1,.87-.87l-.82.3-.73.24a5.24,5.24,0,0,0-3.58,6.17C156,440,151.67,454.75,163.56,460c6.12,2.73,13.43,1.55,20,1.9,7,.38,14,.61,21,.77,26.59.59,53.17,1.15,79.76,1.42q51.42.53,102.84,1l94.75.77,55.24.42h2.62c5.24,0,8.41-4.13,9-9a10.24,10.24,0,0,1,.12-1.14c.06-.6.55-3.35.13-1.47.31-1.42.64-2.83.94-4.25,4-6.65,1.53-15.92,1.39-23.13-.09-4.66-4-9.1-8.9-8.9q-3,.12-6.07.21a31.09,31.09,0,0,0-.25-3.49c-.58-4-1.44-7.79-2.38-11.68-1.92-8-4.46-15.81-6.61-23.73-4.32-15.75-9.56-31.08-14.8-46.46a77.54,77.54,0,0,0,8.6,1.62c3.55.39,7.1.48,10.63,1,2.23.34,4.41.87,6.65,1.16a19.27,19.27,0,0,0,3.44,2.52c11.54,6.56,22.71-1.59,27.08-12.35,4.37-10.61,5.08-22.71,6-34.07,0-.4.06-.8.1-1.21a8.25,8.25,0,0,0,.87-.13c6-1.24,10.82-3.13,14.6-8.19C593.62,279.27,595.71,273.47,592.9,268.22Zm-452.7,2.3a5.47,5.47,0,0,1-3.13-2c-1.16-1.51-2.5-5-1.34-6.7,1-1.52,2.8-1.75,4.72-1.75C140.28,263.54,140.2,267,140.2,270.52Zm36.69,6c-.67,7.22-1.54,14.43-2.31,21.65-.17,1.66-.43,3.33-.64,5s-.39,3.12-.5,3.84A79.5,79.5,0,0,1,171,318.59c-.87,2.91-2,5.91-3.86,7.37-.19.13-.48.33-.71.46a12,12,0,0,1-1.2.29c.45,0-.79-.31-1-.47a9.68,9.68,0,0,1-2.31-3.15,24.92,24.92,0,0,1-1.87-4.94c-2.66-9.13-3.29-18.76-4-28.18-.93-11.64-1.75-23.47-1.57-35.22.41-2.76.8-5.51,1.12-8.28,1-8.65.52-21.22,7.46-27.68s11.48,14.24,12.23,17.85c2.68,13.25,2.87,26.46,1.62,39.9ZM534.07,436.4c0,.3.05.59.07.87.11,1.75.31,3.49.47,5.24,0,.46.08.93.11,1.4a4.26,4.26,0,0,1-.27,1.29c-.24,1-.5,2-.76,3.07-13.44-.13-26.9-.21-40.34-.32l-88.53-.77q-50.94-.45-101.88-.79c-28.28-.18-56.55-.27-84.83-.1-9,.06-18,.08-27,.32-2.69.07-5.37.14-8.06.25-2.31.1-4.6.27-6.88.49a42.81,42.81,0,0,1-6.37.4,7.13,7.13,0,0,1-1.52-.12h0c-1.18-1.89-.3-5.95-.22-8.1.05-1.5.05-3,0-4.47l2.67.39c9.09,1.34,18.49,1,27.66,1.15,28.64.49,57.25.62,85.88.59q52.91,0,105.83-.14,47.67-.09,95.34-.28C501.66,436.7,517.89,436.73,534.07,436.4Zm-20-53.64c2.62,7.74,5.24,15.57,8.43,23.12,1.58,3.78,3.08,7.58,5,11.22.31.58.64,1.14,1,1.68-11.19.17-22.4.08-33.58.15q-46,.25-92,.33-53.09.13-106.18.19c-30,0-60,0-90,.59-9.77.17-19.54.26-29.31.64.51-.74,1-1.49,1.49-2.29a83.15,83.15,0,0,0,4.55-9.84c2.89-6.91,5.39-14,7.86-21,6.12-17.21,11.66-34.57,17.86-51.73,5.55-15.38,10.15-32,24.46-41.73,7.61-5.16,16-6.78,24.91-8.63,10.25-2.15,21.05-4.09,31.54-2.52,7.16,1.07,12.29,5.24,15.72,11.51,4.09,7.4,3.67,15.1,5.43,23.06.8,3.64,4.11,5.54,7.46,5.62,4.53,1.82,9.85,1.75,14.63,1.75q9.43,0,18.88-.09c12-.18,23.92-.87,35.9-.81,6.12,0,8.84-5.24,8.21-10,.87-5.82,1.07-11.57,3.56-17.17s6.37-10.48,12.08-12.74c8.54-3.35,19.59-1.75,28.37-.27,9.13,1.58,19.45,2.85,27.79,7.13,14.91,7.66,21.5,21.79,26.82,36.87,6.53,18.35,12.82,36.66,19.12,55Zm6.76-62.47c-4.46-.06-8.85-.87-13.16-.56l-.45-1.35c-5.73-17.4-16.32-33.81-33.37-41.88-10-4.75-21.58-6.73-32.49-8.4s-23.42-3-34.07.87a38,38,0,0,0-20.77,18.8A59.47,59.47,0,0,0,380.44,307c-9.36.2-18.74.6-28.06,1.28-6,.44-12,.93-18.06,1.32-2.34.15-4.8.23-7.24.46-.32-6.62-2.46-13.36-5-19.22-3.38-7.79-8.86-14.85-16.32-19.16-9.27-5.31-20.87-5.57-31.24-4.59-11.2,1.07-23.4,3-34.07,6.62-18.19,6.21-30.93,20.64-38,38.13-.24.6-.47,1.21-.71,1.82a95.14,95.14,0,0,0-13.69-.13c.43-2.55.77-5.12,1.11-7.68q.17-1.3.33-2.62l.05-.45,0-.33c.63-4.59,1.06-9.2,1.57-13.79,1-8.88,2-17.78,2.19-26.71.19-8.28-1-16.75-2.32-24.91-.2-1.21-.42-2.46-.67-3.74.28,0,.57.07.87.09,3.49.24,7,.17,10.48.27,10,.25,20,.43,29.93.62,28,.53,56,.79,84,1.13l94.85,1.11,80.19.93c11.29.13,22.71.67,34,.55a144.92,144.92,0,0,0-1.35,36.8c.79,9.1,1.75,18.27,3,27.32.05.39.08.56.09.61v.09q.18,1.48.38,3c.35,2.62.7,5.32,1.16,8,.36,2.06.79,4.22,1.34,6.39-2.8,0-5.57.25-8.39.21Zm39.79-41.06c-.77,10.87-1.29,21.84-3.37,32.59a43.43,43.43,0,0,1-3.14,10.82,9.35,9.35,0,0,1-2.62,3.7c.08-.06-.94.31-1.12.31a3,3,0,0,1-1.64-.65,8.26,8.26,0,0,0-.87-1,20.35,20.35,0,0,1-1.29-2.14,40.78,40.78,0,0,1-3-9.67c-1.75-8.2-2.32-16.24-3.35-25.49-1.57-14.06-2.75-27.82-1-41.93a105.12,105.12,0,0,1,3.9-18.42c.87-2.89,3.29-9.61,7-10,3.36-.42,6.12,5.79,7,8.36,1.83,5.41,2.32,11.11,2.9,16.76.42,4,1,8,1.59,12.06.06,8.33-.32,16.67-.9,24.78Zm16.94-3.77a6.27,6.27,0,0,1-2,1c0-1.51.06-3,.06-4.54,1.07.69,2.31,1.48,3.08,1.95a5.08,5.08,0,0,1-1.16,1.65Z"/><path class="cls-2" d="M259.4,388.07h0a2.47,2.47,0,0,0,.1-.25Z"/><path class="cls-2" d="M316.55,388.07h0a2.48,2.48,0,0,0,.1-.25Z"/><path class="cls-2" d="M373.78,388.07h0a2.46,2.46,0,0,0,.1-.25Z"/><path class="cls-2" d="M431,388.07h0a2.46,2.46,0,0,0,.1-.25Z"/><path class="cls-2" d="M488.25,387.79l-.09.28h0A2.46,2.46,0,0,0,488.25,387.79Z"/><path class="cls-2" d="M459.65,349.7l-.09.28h0A2.46,2.46,0,0,0,459.65,349.7Z"/><path class="cls-2" d="M402.46,349.7l-.09.28h0A2.49,2.49,0,0,0,402.46,349.7Z"/><path class="cls-2" d="M345.27,349.7l-.09.28h0A2.51,2.51,0,0,0,345.27,349.7Z"/><path class="cls-2" d="M288.08,349.7,288,350h0A2.46,2.46,0,0,0,288.08,349.7Z"/><path class="cls-2" d="M190.12,217.71l-.52.08h-.09Z"/><g id="Layer_2-2-3" data-name="Layer 2-2"><g id="Layer_1-2-3" data-name="Layer 1-2"><path class="cls-2" d="M471.46,127A46.78,46.78,0,1,0,424.68,80.2h0A46.78,46.78,0,0,0,471.46,127Zm0-76.88a30.08,30.08,0,1,1-30.08,30.1,30.08,30.08,0,0,1,30.08-30.1Z"/><path class="cls-2" d="M436.75,143.84a110.07,110.07,0,0,1,10.48,12.23,59.2,59.2,0,0,1,82.57,64.44h15.79a74.84,74.84,0,0,0-108.83-76.71Z"/><path class="cls-2" d="M437.16,220.55h15.59a93.57,93.57,0,0,0-187.13,0h15.59a78,78,0,0,1,155.95-1.65Q437.17,219.73,437.16,220.55Z"/><path class="cls-2" d="M359.18,111.42A54.58,54.58,0,1,0,304.6,56.84h0A54.58,54.58,0,0,0,359.18,111.42Zm0-94.54a40,40,0,1,1-40,40,40,40,0,0,1,40-40h0Z"/><path class="cls-2" d="M188.58,220.55a59.22,59.22,0,0,1,82.55-64.44,110.07,110.07,0,0,1,10.48-12.23,74.79,74.79,0,0,0-108.82,76.68Z"/><path class="cls-2" d="M246.9,127A46.78,46.78,0,1,0,200.12,80.2h0A46.78,46.78,0,0,0,246.9,127Zm0-76.88a30.08,30.08,0,1,1-30,30.14v-.06a30.12,30.12,0,0,1,30-30.06Z"/></g></g></g></g><g id="Layer_2-4" data-name="Layer 2"><g id="Layer_1-2-4" data-name="Layer 1-2"><g class="cls-3"><text class="cls-4" transform="translate(352.65 600.5)">scri<tspan class="cls-5" x="205.36" y="0">p</tspan><tspan class="cls-6" x="266.1" y="0">t</tspan><tspan class="cls-7" x="306.87" y="0">s</tspan></text><text class="cls-3"></text><text class="cls-3"></text><text class="cls-3"></text></g></g></g><g id="Layer_2-5" data-name="Layer 2"><g id="Layer_1-2-5" data-name="Layer 1-2"><g class="cls-3"><text class="cls-8" transform="translate(364.83 600.5)">scri<tspan class="cls-5" x="205.36" y="0">p</tspan><tspan class="cls-9" x="266.1" y="0">t</tspan><tspan class="cls-10" x="306.87" y="0">s</tspan></text><text class="cls-3"></text><text class="cls-3"></text><text class="cls-3"></text></g></g></g><g id="Layer_2-6" data-name="Layer 2"><g id="Layer_1-2-6" data-name="Layer 1-2"><g class="cls-3"><text class="cls-11" transform="translate(0.47 599.93) rotate(0.02)">f</text><text class="cls-12" transform="translate(68.36 599.95) rotate(0.02)">r</text><text class="cls-11" transform="translate(114.88 599.97) rotate(0.02)">i</text><text class="cls-12" transform="translate(136.25 599.98) rotate(0.02)">end</text></g></g></g><g id="Layer_2-7" data-name="Layer 2"><g id="Layer_1-2-7" data-name="Layer 1-2"><g class="cls-3"><text class="cls-13" transform="translate(15.63 600.02)">f</text><text class="cls-14" transform="translate(83.53 600.02)">r</text><text class="cls-13" transform="translate(130.04 600.02)">i</text><text class="cls-14" transform="translate(151.42 600.02)">end</text></g></g></g></g></g></svg>