<svg xmlns="http://www.w3.org/2000/svg" viewBox="0 0 2384.51 513.25"><defs><style>.cls-1,.cls-11,.cls-12,.cls-4{fill:#729f98;}.cls-13,.cls-14,.cls-2,.cls-8{fill:#fff;}.cls-13,.cls-14,.cls-15,.cls-2,.cls-8{stroke:#3c7079;}.cls-11,.cls-12,.cls-13,.cls-14,.cls-15,.cls-2,.cls-4,.cls-8{stroke-miterlimit:10;}.cls-2{stroke-width:2.8px;}.cls-11,.cls-12,.cls-13,.cls-14,.cls-3,.cls-4,.cls-8{isolation:isolate;}.cls-4,.cls-8{font-size:135.33px;letter-spacing:-0.02em;}.cls-11,.cls-12,.cls-4{stroke:#729f98;}.cls-4{stroke-width:1.54px;}.cls-11,.cls-12,.cls-13,.cls-14,.cls-4,.cls-8{font-family:Noteworthy-Bold, Noteworthy;font-weight:700;}.cls-5{letter-spacing:-0.06em;}.cls-6{letter-spacing:-0.07em;}.cls-7{letter-spacing:-0.02em;}.cls-8{stroke-width:2.89px;}.cls-9{letter-spacing:-0.07em;}.cls-10{letter-spacing:-0.02em;}.cls-11,.cls-12{font-size:136.81px;stroke-width:0.89px;}.cls-11{letter-spacing:-0.02em;}.cls-13,.cls-14{font-size:136.81px;stroke-width:2.89px;}.cls-13{letter-spacing:-0.02em;}.cls-15{fill:none;stroke-width:1.1px;}</style></defs><title>header_9</title><g id="Layer_2" data-name="Layer 2"><g id="Layer_1-2" data-name="Layer 1"><g id="Layer_2-2" data-name="Layer 2"><g id="Icon"><path class="cls-1" d="M205.81,232.43a13.3,13.3,0,0,0-6,3.66,9.47,9.47,0,0,0-1.52,2.33c-1.41-3.43-4.9-6-8.92-7.17-5.43-1.65-13.2-1.78-18.64,1.18a13.3,13.3,0,0,0-6,3.66,9.48,9.48,0,0,0-1.52,2.33c-1.41-3.43-4.9-6-8.92-7.17-5.43-1.65-13.2-1.78-18.64,1.18a13.3,13.3,0,0,0-6,3.66,9.47,9.47,0,0,0-1.52,2.33c-1.41-3.43-4.9-6-8.92-7.17-5.43-1.65-13.2-1.78-18.64,1.18a13.3,13.3,0,0,0-6,3.66,9.47,9.47,0,0,0-1.52,2.33c-1.41-3.43-4.9-6-8.92-7.17-5.43-1.65-13.2-1.78-18.64,1.18a13.3,13.3,0,0,0-6,3.66c-6.33,7.23,2,16.38,9.5,17.57,4.71.76,9.84.12,14.51-.76,4.2-.79,7.83-3.16,9.44-7.22.06-.15.11-.3.17-.46a15.36,15.36,0,0,0,11,8.43c4.71.76,9.84.12,14.51-.76,4.2-.79,7.83-3.16,9.44-7.22.06-.15.11-.3.17-.46a15.36,15.36,0,0,0,11,8.43c4.71.76,9.84.12,14.51-.76,4.2-.79,7.83-3.16,9.44-7.22.06-.15.11-.3.17-.46a15.36,15.36,0,0,0,11,8.43c4.71.76,9.84.12,14.51-.76,4.2-.79,7.83-3.16,9.44-7.22.06-.15.11-.3.17-.46a15.36,15.36,0,0,0,11,8.43c4.71.76,9.84.12,14.51-.76,4.2-.79,7.83-3.16,9.44-7.22,2.81-7-2.3-12.4-8.79-14.39C219,229.6,211.25,229.48,205.81,232.43ZM83,243.41c-2.81,1.28-7,1.17-10,1.33-2.46.13-5.26.13-6.94-2-.7-.89-.72-1.56-.38-2.14,2.94-.65,5.65-1.69,8.77-1.54.73,0,1.52.12,2.18.2s2.48.38,1.07.16c.9.14,1.79.29,2.68.5.49.12,1,.26,1.44.4,0,0,1,.36.9.31a9.76,9.76,0,0,1,1.55,1c-.13.32,0,.25.06,0h0C84.13,242.62,84.05,242.93,83,243.41Zm35.08,0c-2.81,1.28-7,1.17-10,1.33-2.46.13-5.26.13-6.94-2-.7-.89-.72-1.56-.38-2.14,2.94-.65,5.65-1.69,8.77-1.54.73,0,1.52.12,2.18.2s2.48.38,1.07.16c.9.14,1.79.29,2.68.5.49.12,1,.26,1.44.4,0,0,1,.36.9.31a9.76,9.76,0,0,1,1.55,1c-.13.32,0,.25.06,0h0c-.25,1-.34,1.26-1.36,1.75Zm35.08,0c-2.81,1.28-7,1.17-10,1.33-2.46.13-5.26.13-6.94-2-.7-.89-.72-1.56-.38-2.14,2.94-.65,5.65-1.69,8.77-1.54.73,0,1.52.12,2.18.2s2.48.38,1.07.16c.9.14,1.79.29,2.68.5.49.12,1,.26,1.44.4,0,0,1,.36.9.31a9.76,9.76,0,0,1,1.55,1c-.13.32,0,.25.06,0h0a2,2,0,0,1-1.36,1.75Zm35.08,0c-2.81,1.28-7,1.17-10,1.33-2.46.13-5.26.13-6.94-2-.7-.89-.72-1.56-.38-2.14,2.94-.65,5.65-1.69,8.77-1.54.73,0,1.52.12,2.18.2s2.48.38,1.07.16c.9.14,1.79.29,2.68.5.49.12,1,.26,1.44.4,0,0,1,.36.9.31a9.76,9.76,0,0,1,1.55,1c-.13.32,0,.25.06,0h0c-.25,1-.34,1.26-1.37,1.75Zm36.44-1.73h0c-.28.94-.37,1.25-1.39,1.71-2.81,1.28-7,1.17-10,1.33-2.46.13-5.26.13-6.94-2-.7-.89-.72-1.56-.38-2.14,2.94-.65,5.65-1.69,8.77-1.54.73,0,1.52.12,2.18.2s2.48.38,1.07.16c.9.14,1.79.29,2.68.5.49.12,1,.26,1.44.4,0,0,1,.36.9.31a9.77,9.77,0,0,1,1.55,1c-.1.34,0,.26.11.05Z"/><path class="cls-1" d="M86.52,230.29c4.71.76,9.84.12,14.51-.76,4.2-.79,7.83-3.16,9.44-7.22.06-.15.11-.3.17-.46a15.36,15.36,0,0,0,11,8.43c4.71.76,9.84.12,14.51-.76,4.2-.79,7.83-3.16,9.44-7.22.06-.15.11-.3.17-.46a15.36,15.36,0,0,0,11,8.43c4.71.76,9.84.12,14.51-.76,4.2-.79,7.83-3.16,9.44-7.22.06-.15.11-.3.17-.46a15.36,15.36,0,0,0,11,8.43c4.71.76,9.84.12,14.51-.76,4.2-.79,7.83-3.16,9.44-7.22,2.81-7.1-2.32-12.47-8.8-14.44-5.43-1.65-13.2-1.78-18.64,1.18a13.3,13.3,0,0,0-6,3.66,9.48,9.48,0,0,0-1.52,2.33c-1.41-3.43-4.9-6-8.92-7.17-5.43-1.65-13.2-1.78-18.64,1.18a13.3,13.3,0,0,0-6,3.66,9.48,9.48,0,0,0-1.52,2.33c-1.41-3.43-4.9-6-8.92-7.17-5.43-1.65-13.2-1.78-18.64,1.18a13.3,13.3,0,0,0-6,3.66,9.48,9.48,0,0,0-1.52,2.33c-1.41-3.43-4.9-6-8.92-7.17C96.24,206.2,88.47,206.07,83,209a13.3,13.3,0,0,0-6,3.66C70.7,220,79,229.1,86.52,230.29Zm102-13.05c2.94-.65,5.65-1.69,8.77-1.54.73,0,1.52.12,2.18.2s2.48.38,1.07.16c.9.14,1.79.29,2.68.5.49.12,1,.26,1.44.4,0,0,1,.36.9.31a9.76,9.76,0,0,1,1.55,1c-.13.32,0,.25.06,0h0c-.28.94-.37,1.25-1.39,1.71-2.81,1.28-7,1.17-10,1.33-2.46.13-5.26.13-6.94-2C188.18,218.46,188.15,217.79,188.51,217.24Zm-35.08,0c2.94-.65,5.65-1.69,8.77-1.54.73,0,1.52.12,2.18.2s2.48.38,1.07.16c.9.14,1.79.29,2.68.5.49.12,1,.26,1.44.4,0,0,1,.36.9.31a9.76,9.76,0,0,1,1.55,1c-.13.32,0,.25.06,0h0c-.28.94-.37,1.25-1.39,1.71-2.81,1.28-7,1.17-10,1.33-2.46.13-5.26.13-6.94-2C153.11,218.46,153.08,217.79,153.43,217.24Zm-35.08,0c2.94-.65,5.65-1.69,8.77-1.54.73,0,1.52.12,2.18.2s2.48.38,1.07.16c.9.14,1.79.29,2.68.5.49.12,1,.26,1.44.4,0,0,1,.36.9.31a9.76,9.76,0,0,1,1.55,1c-.13.32,0,.25.06,0h0c-.28.94-.37,1.25-1.39,1.71-2.81,1.28-7,1.17-10,1.33-2.46.13-5.26.13-6.94-2C118,218.46,118,217.79,118.35,217.24Zm-35.08,0c2.94-.65,5.65-1.69,8.77-1.54.73,0,1.52.12,2.18.2s2.48.38,1.07.16c.9.14,1.79.29,2.68.5.49.12,1,.26,1.44.4,0,0,1,.36.9.31a9.76,9.76,0,0,1,1.55,1c-.13.32,0,.25.06,0h0c-.28.94-.37,1.25-1.39,1.71-2.81,1.28-7,1.17-10,1.33-2.46.13-5.26.13-6.94-2C82.95,218.46,82.92,217.79,83.27,217.24Z"/><path class="cls-1" d="M289,168.12c-1.93-3.63-6.59-5.86-10.79-5.47a91.3,91.3,0,0,0-1.3-10.79V150.5c0-7.94-1.74-19-10.18-22.31-8.26-3.22-14.19,4-17,11-6.29,0-12.58-.15-18.87-.23l-3.11,0,0-.36a16.07,16.07,0,0,1-1.72.09,10.84,10.84,0,0,1-1.18,0,16,16,0,0,1-2.3.18,17.4,17.4,0,0,1-2.79-.23,16.07,16.07,0,0,1-1.76.1h-.18v.16l-33.66-.41-57.87-.7c-17.83-.21-35.67-.54-53.5-.6l-8.14,0,.05-.24a16.21,16.21,0,0,1-2.49.2,17.68,17.68,0,0,1-2.14-.13v.16H45.51c-1,0-2-.06-3.06,0l-.54.08c.39-.05.1,0-.06,0l-.3,0-.24,0,.23,0-.34,0-1.18.14-.69.1c-2-4.52-5-8.38-9.89-9.69-11.48-3.08-16,11.13-16.54,19.71-.1,1.44-.14,2.88-.17,4.33-.31,1.63-.54,3.29-.75,5a11.19,11.19,0,0,0-2.64-.31,9.37,9.37,0,0,0-8.53,5.8c-3.06,8,2.88,15.7,10.72,16.71a107.19,107.19,0,0,0,2.56,20.77c1.56,6.46,5.43,13.88,13.13,13.57,5.79-.23,9.31-4.62,11.31-9.55a14.37,14.37,0,0,0,2.68.57c1.53.18,3.08.35,4.64.49-1.12,3.4-2.2,6.82-3.35,10.18-2.14,6.23-4.29,12.47-5.93,18.86-1.3,5.07-2.9,10.05-4.25,15.11a69.89,69.89,0,0,0-1.79,8c-.24,1.68-.2,3.38-.37,5l-2.55.38-.21,0,.16,0-.16,0c-.57.09-.32.06,0,0-.44.1-.88.17-1.3.3.54-.18.23-.65-.74.21a3.78,3.78,0,0,1,.58-.17l.11,0a2.72,2.72,0,0,0-1.23.74h0a6.14,6.14,0,0,1,.54-.54l-.5.18-.44.14a3.22,3.22,0,0,0-2.2,3.78c-1.19,6.39-3.85,15.42,3.45,18.67,3.75,1.68,8.24.95,12.25,1.17,4.29.23,8.57.38,12.86.47,16.31.36,32.61.71,48.92.87q31.54.33,63.08.6l58.12.47,33.88.26h1.61c3.22,0,5.16-2.53,5.5-5.5a6.28,6.28,0,0,1,.08-.7c0-.37.34-2.06.08-.9.19-.87.39-1.74.58-2.6,2.47-4.08.94-9.76.85-14.19a5.53,5.53,0,0,0-5.46-5.46l-3.72.13a19.07,19.07,0,0,0-.16-2.14c-.35-2.43-.88-4.78-1.46-7.16-1.18-4.89-2.74-9.7-4.06-14.55-2.65-9.66-5.86-19.07-9.08-28.5a47.56,47.56,0,0,0,5.28,1c2.18.24,4.36.29,6.52.63,1.37.21,2.71.54,4.08.71a11.82,11.82,0,0,0,2.11,1.55c7.08,4,13.93-1,16.61-7.58s3.12-13.93,3.69-20.9c0-.25,0-.49.06-.74l.54-.08c3.65-.76,6.63-1.92,9-5C289.44,174.9,290.72,171.34,289,168.12ZM11.32,169.53a3.35,3.35,0,0,1-1.92-1.24c-.71-.93-1.53-3-.82-4.11s1.71-1.07,2.89-1.07C11.37,165.25,11.32,167.4,11.32,169.53Zm22.51,3.68c-.41,4.43-.94,8.85-1.41,13.28-.11,1-.26,2-.39,3.07s-.24,1.91-.31,2.35a48.76,48.76,0,0,1-1.5,7.11c-.54,1.78-1.24,3.62-2.37,4.52-.12.08-.29.2-.43.28a7.37,7.37,0,0,1-.73.18c.27,0-.49-.19-.62-.29a5.94,5.94,0,0,1-1.41-1.93,15.28,15.28,0,0,1-1.15-3c-1.63-5.6-2-11.5-2.48-17.29-.57-7.14-1.07-14.4-1-21.61.25-1.69.49-3.38.69-5.08.59-5.3.32-13,4.58-17s7,8.73,7.5,10.95a83.29,83.29,0,0,1,1,24.47Zm219.09,98.06c0,.18,0,.36,0,.54.07,1.07.19,2.14.29,3.22,0,.28,0,.57.07.86a2.62,2.62,0,0,1-.17.79c-.14.63-.31,1.25-.47,1.88-8.25-.08-16.5-.13-24.75-.2l-54.3-.47q-31.24-.27-62.49-.49c-17.35-.11-34.68-.17-52-.06-5.52,0-11,0-16.57.2-1.65,0-3.3.09-4.95.16-1.41.06-2.82.17-4.22.3a26.26,26.26,0,0,1-3.91.25,4.37,4.37,0,0,1-.93-.08h0c-.72-1.16-.18-3.65-.13-5,0-.92,0-1.83,0-2.74l1.64.24c5.58.82,11.34.61,17,.71,17.56.3,35.11.38,52.68.36q32.46,0,64.91-.09,29.24-.05,58.48-.17C233,271.46,243,271.48,252.92,271.27Zm-12.25-32.9c1.61,4.75,3.22,9.55,5.17,14.18,1,2.32,1.89,4.65,3.06,6.88.19.35.39.7.61,1-6.86.1-13.74,0-20.6.09q-28.21.16-56.41.2-32.56.08-65.13.12c-18.4,0-36.79,0-55.19.36-6,.11-12,.16-18,.39.31-.46.63-.92.91-1.4a51,51,0,0,0,2.79-6c1.77-4.24,3.31-8.57,4.82-12.9,3.75-10.56,7.15-21.2,11-31.73,3.4-9.44,6.23-19.63,15-25.6,4.67-3.17,9.84-4.16,15.28-5.29,6.29-1.32,12.91-2.51,19.34-1.54a12.87,12.87,0,0,1,9.65,7.06c2.51,4.54,2.25,9.26,3.33,14.15a4.58,4.58,0,0,0,4.58,3.45c2.78,1.11,6,1.07,9,1.07q5.79,0,11.58-.05c7.34-.11,14.67-.54,22-.5,3.75,0,5.42-3.22,5-6.11.54-3.57.65-7.09,2.18-10.53s3.91-6.43,7.41-7.81c5.24-2.06,12-1.07,17.4-.17,5.6,1,11.93,1.75,17,4.37,9.15,4.7,13.19,13.36,16.45,22.61,4,11.26,7.87,22.48,11.73,33.73Zm4.15-38.32c-2.73,0-5.43-.54-8.07-.34l-.28-.83c-3.52-10.67-10-20.74-20.47-25.69-6.16-2.91-13.24-4.13-19.93-5.15s-14.37-1.83-20.9.54a23.3,23.3,0,0,0-12.74,11.53,36.48,36.48,0,0,0-3.75,11.79c-5.74.12-11.49.37-17.21.78-3.69.27-7.38.57-11.08.81-1.44.09-2.95.14-4.44.28A34.63,34.63,0,0,0,122.87,182a24.75,24.75,0,0,0-10-11.75c-5.69-3.26-12.8-3.42-19.16-2.81a93.6,93.6,0,0,0-20.9,4.06c-11.16,3.81-19,12.66-23.33,23.39-.15.37-.29.74-.43,1.11a58.36,58.36,0,0,0-8.4-.08c.26-1.56.47-3.14.68-4.71q.11-.8.2-1.61l0-.28,0-.2c.39-2.81.65-5.64,1-8.46.61-5.44,1.22-10.9,1.34-16.39A82.66,82.66,0,0,0,42.48,149c-.12-.74-.26-1.51-.41-2.29.17,0,.35,0,.54.05,2.14.15,4.29.11,6.43.17,6.12.16,12.24.26,18.36.38,17.18.33,34.37.49,51.55.69l58.18.68,49.18.57c6.92.08,13.93.41,20.85.34a88.89,88.89,0,0,0-.83,22.57c.49,5.58,1.07,11.2,1.82,16.76,0,.24,0,.34.05.38v.05q.11.91.23,1.81c.21,1.61.43,3.26.71,4.88.22,1.26.48,2.59.82,3.92-1.71,0-3.42.16-5.14.13Zm24.41-25.18c-.47,6.67-.79,13.4-2.07,20a26.64,26.64,0,0,1-1.93,6.63,5.73,5.73,0,0,1-1.61,2.27s-.58.19-.69.19a1.86,1.86,0,0,1-1-.4,5.06,5.06,0,0,0-.54-.61,12.48,12.48,0,0,1-.79-1.31,25,25,0,0,1-1.86-5.93c-1.07-5-1.42-10-2.05-15.64-1-8.62-1.69-17.07-.62-25.72a64.48,64.48,0,0,1,2.4-11.3c.54-1.77,2-5.89,4.29-6.15,2.06-.26,3.75,3.55,4.29,5.13a46.34,46.34,0,0,1,1.78,10.28c.26,2.48.62,4.94,1,7.39,0,5.11-.2,10.22-.55,15.2Zm10.39-2.31a3.85,3.85,0,0,1-1.21.6c0-.93,0-1.85,0-2.79.66.42,1.41.91,1.89,1.19a3.12,3.12,0,0,1-.71,1Z"/><path class="cls-1" d="M84.44,241.63h0l.06-.16Z"/><path class="cls-1" d="M119.49,241.63h0l.06-.16Z"/><path class="cls-1" d="M154.59,241.63h0l.06-.16Z"/><path class="cls-1" d="M189.69,241.63h0l.06-.16Z"/><path class="cls-1" d="M224.81,241.46l-.05.17h0A1.51,1.51,0,0,0,224.81,241.46Z"/><path class="cls-1" d="M207.27,218.1l-.05.17h0A1.51,1.51,0,0,0,207.27,218.1Z"/><path class="cls-1" d="M172.19,218.1l-.05.17h0A1.53,1.53,0,0,0,172.19,218.1Z"/><path class="cls-1" d="M137.11,218.1l-.05.17h0A1.54,1.54,0,0,0,137.11,218.1Z"/><path class="cls-1" d="M102,218.1l-.05.17h0A1.51,1.51,0,0,0,102,218.1Z"/><polygon class="cls-1" points="41.95 137.14 41.63 137.19 41.58 137.19 41.58 137.19 41.95 137.14"/><g id="Layer_2-2-2" data-name="Layer 2-2"><g id="Layer_1-2-2" data-name="Layer 1-2"><path class="cls-1" d="M214.51,81.48a28.69,28.69,0,1,0-28.69-28.69h0A28.69,28.69,0,0,0,214.51,81.48Zm0-47.15a18.45,18.45,0,1,1-18.45,18.46,18.45,18.45,0,0,1,18.45-18.46Z"/><path class="cls-1" d="M193.22,91.83a67.52,67.52,0,0,1,6.43,7.5,36.31,36.31,0,0,1,50.65,39.53H260A45.91,45.91,0,0,0,193.22,91.8Z"/><path class="cls-1" d="M193.47,138.88H203a57.39,57.39,0,0,0-114.78,0h9.56a47.83,47.83,0,0,1,95.65-1Q193.48,138.37,193.47,138.88Z"/><path class="cls-1" d="M145.64,71.94a33.48,33.48,0,1,0-33.48-33.48h0A33.48,33.48,0,0,0,145.64,71.94Zm0-58a24.51,24.51,0,1,1-24.51,24.51A24.51,24.51,0,0,1,145.64,14h0Z"/><path class="cls-1" d="M41,138.88A36.32,36.32,0,0,1,91.63,99.35a67.52,67.52,0,0,1,6.43-7.5,45.87,45.87,0,0,0-66.75,47Z"/><path class="cls-1" d="M76.77,81.48A28.69,28.69,0,1,0,48.08,52.79h0A28.69,28.69,0,0,0,76.77,81.48Zm0-47.15A18.45,18.45,0,1,1,58.36,52.82v0A18.48,18.48,0,0,1,76.77,34.34Z"/></g></g></g></g><g id="Layer_2-3" data-name="Layer 2"><g id="Icon-2" data-name="Icon"><path class="cls-2" d="M215.52,231.51a13.46,13.46,0,0,0-6.07,3.7,9.59,9.59,0,0,0-1.53,2.36c-1.43-3.47-5-6-9-7.26-5.5-1.67-13.35-1.8-18.86,1.19a13.46,13.46,0,0,0-6.07,3.7,9.59,9.59,0,0,0-1.53,2.36c-1.43-3.47-5-6-9-7.26-5.5-1.67-13.35-1.8-18.86,1.19a13.46,13.46,0,0,0-6.07,3.7,9.58,9.58,0,0,0-1.53,2.36c-1.43-3.47-5-6-9-7.26-5.5-1.67-13.35-1.8-18.86,1.19a13.46,13.46,0,0,0-6.07,3.7,9.58,9.58,0,0,0-1.53,2.36c-1.43-3.47-5-6-9-7.26-5.5-1.67-13.35-1.8-18.86,1.19a13.46,13.46,0,0,0-6.07,3.7c-6.4,7.31,2,16.57,9.61,17.78,4.77.76,10,.12,14.68-.76,4.25-.8,7.92-3.19,9.55-7.31.06-.15.11-.3.17-.46A15.54,15.54,0,0,0,112.59,253c4.77.76,10,.12,14.68-.76,4.25-.8,7.92-3.19,9.55-7.31.06-.15.11-.3.17-.46A15.54,15.54,0,0,0,148.08,253c4.77.76,10,.12,14.68-.76,4.25-.8,7.92-3.19,9.55-7.31.06-.15.11-.3.17-.46A15.54,15.54,0,0,0,183.57,253c4.77.76,10,.12,14.68-.76,4.25-.8,7.92-3.19,9.55-7.31.06-.15.11-.3.17-.46a15.54,15.54,0,0,0,11.09,8.53c4.77.76,10,.12,14.68-.76,4.25-.8,7.92-3.19,9.55-7.31,2.84-7.13-2.33-12.55-8.9-14.56C228.88,228.65,221,228.53,215.52,231.51ZM91.3,242.62c-2.84,1.29-7,1.18-10.1,1.35-2.49.14-5.32.13-7-2-.7-.9-.73-1.58-.38-2.17,3-.66,5.71-1.71,8.87-1.56.74,0,1.54.12,2.2.21s2.5.38,1.08.16c.91.14,1.81.29,2.71.51.49.12,1,.26,1.46.41,0,0,1,.36.91.31a9.88,9.88,0,0,1,1.57,1c-.14.33,0,.25.06,0h0C92.41,241.82,92.34,242.13,91.3,242.62Zm35.49,0c-2.84,1.29-7,1.18-10.1,1.35-2.49.14-5.32.13-7-2-.7-.9-.73-1.58-.38-2.17,3-.66,5.71-1.71,8.87-1.56.74,0,1.54.12,2.2.21s2.5.38,1.08.16c.91.14,1.81.29,2.71.51.49.12,1,.26,1.46.41,0,0,1,.36.91.31a9.88,9.88,0,0,1,1.57,1c-.14.33,0,.25.06,0h0c-.25,1-.34,1.28-1.38,1.77Zm35.49,0c-2.84,1.29-7,1.18-10.1,1.35-2.49.14-5.32.13-7-2-.7-.9-.73-1.58-.38-2.17,3-.66,5.71-1.71,8.87-1.56.74,0,1.54.12,2.2.21s2.5.38,1.08.16c.91.14,1.81.29,2.71.51.49.12,1,.26,1.46.41,0,0,1,.36.91.31a9.88,9.88,0,0,1,1.57,1c-.14.33,0,.25.06,0h0a2,2,0,0,1-1.38,1.77Zm35.49,0c-2.84,1.29-7,1.18-10.1,1.35-2.49.14-5.32.13-7-2-.7-.9-.73-1.58-.38-2.17,3-.66,5.71-1.71,8.87-1.56.74,0,1.54.12,2.2.21s2.5.38,1.08.16c.91.14,1.81.29,2.71.51.49.12,1,.26,1.46.41,0,0,1,.36.91.31a9.88,9.88,0,0,1,1.57,1c-.14.33,0,.25.06,0h0c-.25,1-.35,1.28-1.38,1.77Zm36.86-1.75h0c-.29.95-.37,1.26-1.41,1.73-2.84,1.29-7,1.18-10.1,1.35-2.49.14-5.32.13-7-2-.7-.9-.73-1.58-.38-2.17,3-.66,5.71-1.71,8.87-1.56.74,0,1.54.12,2.2.21s2.5.38,1.08.16c.91.14,1.81.29,2.71.51.49.12,1,.26,1.46.41,0,0,1,.36.91.31a9.88,9.88,0,0,1,1.57,1c-.1.34,0,.27.11.05Z"/><path class="cls-2" d="M94.84,229.35c4.77.76,10,.12,14.68-.76,4.25-.8,7.92-3.19,9.55-7.31.06-.15.11-.3.17-.46a15.54,15.54,0,0,0,11.09,8.53c4.77.76,10,.12,14.68-.76,4.25-.8,7.92-3.19,9.55-7.31.06-.15.11-.3.17-.46a15.54,15.54,0,0,0,11.09,8.53c4.77.76,10,.12,14.68-.76,4.25-.8,7.92-3.19,9.55-7.31.06-.15.11-.3.17-.46a15.54,15.54,0,0,0,11.09,8.53c4.77.76,10,.12,14.68-.76,4.25-.8,7.92-3.19,9.55-7.31,2.84-7.18-2.35-12.62-8.9-14.6-5.5-1.67-13.35-1.8-18.86,1.19a13.46,13.46,0,0,0-6.07,3.7,9.59,9.59,0,0,0-1.53,2.36c-1.43-3.47-5-6-9-7.26-5.5-1.67-13.35-1.8-18.86,1.19a13.46,13.46,0,0,0-6.07,3.7,9.59,9.59,0,0,0-1.53,2.36c-1.43-3.47-5-6-9-7.26-5.5-1.67-13.35-1.8-18.86,1.19a13.46,13.46,0,0,0-6.07,3.7,9.59,9.59,0,0,0-1.53,2.36c-1.43-3.47-5-6-9-7.26-5.5-1.67-13.35-1.8-18.86,1.19a13.46,13.46,0,0,0-6.07,3.7C78.83,218.89,87.26,228.14,94.84,229.35ZM198,216.15c3-.66,5.71-1.71,8.87-1.56.74,0,1.54.12,2.2.21s2.5.38,1.08.16c.91.14,1.81.29,2.71.51.49.12,1,.26,1.46.41,0,0,1,.36.91.31a9.87,9.87,0,0,1,1.57,1c-.14.33,0,.25.06,0h0c-.29.95-.37,1.26-1.41,1.73-2.84,1.29-7,1.18-10.1,1.35-2.49.14-5.32.14-7-2C197.69,217.38,197.66,216.7,198,216.15Zm-35.49,0c3-.66,5.71-1.71,8.87-1.56.74,0,1.54.12,2.2.21s2.5.38,1.08.16c.91.14,1.81.29,2.71.51.49.12,1,.26,1.46.41,0,0,1,.36.91.31a9.87,9.87,0,0,1,1.57,1c-.14.33,0,.25.06,0h0c-.29.95-.37,1.26-1.41,1.73-2.84,1.29-7,1.18-10.1,1.35-2.49.14-5.32.14-7-2C162.2,217.38,162.17,216.7,162.53,216.15Zm-35.49,0c3-.66,5.71-1.71,8.87-1.56.74,0,1.54.12,2.2.21s2.5.38,1.08.16c.91.14,1.81.29,2.71.51.49.12,1,.26,1.46.41,0,0,1,.36.91.31a9.87,9.87,0,0,1,1.57,1c-.14.33,0,.25.06,0h0c-.29.95-.37,1.26-1.41,1.73-2.84,1.29-7,1.18-10.1,1.35-2.49.14-5.32.14-7-2C126.71,217.38,126.68,216.7,127,216.15Zm-35.49,0c3-.66,5.71-1.71,8.87-1.56.74,0,1.54.12,2.2.21s2.5.38,1.08.16c.91.14,1.81.29,2.71.51.49.12,1,.26,1.46.41,0,0,1,.36.91.31a9.87,9.87,0,0,1,1.57,1c-.14.33,0,.25.06,0h0c-.29.95-.37,1.26-1.41,1.73-2.84,1.29-7,1.18-10.1,1.35-2.49.14-5.32.14-7-2C91.22,217.38,91.19,216.7,91.55,216.15Z"/><path class="cls-2" d="M299.69,166.45c-2-3.67-6.67-5.93-10.91-5.54A92.37,92.37,0,0,0,287.46,150v-1.38c0-8-1.76-19.23-10.3-22.57-8.36-3.25-14.36,4.09-17.16,11.16-6.36,0-12.73-.15-19.09-.23l-3.15,0,0-.37a16.26,16.26,0,0,1-1.74.09,11,11,0,0,1-1.2,0,16.23,16.23,0,0,1-2.33.18,17.61,17.61,0,0,1-2.82-.23,16.26,16.26,0,0,1-1.78.1h-.18v.16l-34.06-.41-58.55-.71c-18-.22-36.08-.54-54.13-.61l-8.23,0,.05-.24a16.4,16.4,0,0,1-2.52.2,17.89,17.89,0,0,1-2.17-.13V135H53.35c-1,0-2.07-.06-3.1,0l-.54.08c.4-.05.1,0-.07,0l-.3,0-.24,0,.23,0-.34,0-1.2.15-.7.1c-2-4.57-5-8.48-10-9.8-11.61-3.11-16.16,11.27-16.73,19.94-.1,1.45-.14,2.92-.17,4.38-.31,1.65-.54,3.33-.76,5a11.33,11.33,0,0,0-2.67-.31,9.48,9.48,0,0,0-8.63,5.87C5,168.61,11,176.41,19,177.43a108.45,108.45,0,0,0,2.59,21c1.58,6.53,5.5,14,13.29,13.73,5.85-.23,9.42-4.68,11.44-9.67a14.54,14.54,0,0,0,2.71.58c1.55.18,3.12.35,4.69.49-1.13,3.44-2.22,6.9-3.39,10.3-2.17,6.3-4.34,12.62-6,19.08C43,238.1,41.36,243.14,40,248.26a70.71,70.71,0,0,0-1.81,8.13c-.24,1.7-.2,3.42-.37,5.11l-2.58.38-.22,0,.16,0-.16,0c-.58.09-.32.07,0,0-.44.1-.89.17-1.32.3.54-.18.23-.66-.75.21a3.82,3.82,0,0,1,.59-.17l.11,0a2.75,2.75,0,0,0-1.24.75h0a6.21,6.21,0,0,1,.54-.54l-.51.18-.45.15a3.25,3.25,0,0,0-2.22,3.83c-1.2,6.46-3.89,15.6,3.49,18.89,3.79,1.7,8.33,1,12.39,1.18,4.34.23,8.67.38,13,.48,16.5.37,33,.72,49.5.88q31.91.33,63.82.61l58.8.48,34.28.26h1.63c3.25,0,5.22-2.56,5.56-5.56a6.35,6.35,0,0,1,.08-.7c0-.37.34-2.08.08-.91.2-.88.4-1.76.59-2.63,2.5-4.13.95-9.88.86-14.36a5.59,5.59,0,0,0-5.52-5.52l-3.77.13a19.29,19.29,0,0,0-.16-2.17c-.36-2.46-.89-4.84-1.47-7.25-1.19-4.95-2.77-9.81-4.1-14.72-2.68-9.77-5.93-19.29-9.18-28.83a48.12,48.12,0,0,0,5.34,1c2.2.24,4.41.3,6.6.63,1.38.21,2.74.54,4.13.72a12,12,0,0,0,2.14,1.57c7.16,4.07,14.1-1,16.81-7.67s3.16-14.1,3.73-21.14c0-.25,0-.5.06-.75l.54-.08c3.7-.77,6.71-1.94,9.06-5.09C300.13,173.31,301.43,169.71,299.69,166.45ZM18.76,167.88a3.39,3.39,0,0,1-1.94-1.26c-.72-.94-1.55-3.08-.83-4.16s1.73-1.08,2.93-1.08C18.8,163.54,18.76,165.72,18.76,167.88Zm22.77,3.72c-.42,4.48-1,9-1.43,13.43-.11,1-.27,2.07-.4,3.1s-.24,1.94-.31,2.38a49.33,49.33,0,0,1-1.52,7.19c-.54,1.81-1.26,3.66-2.4,4.58-.12.08-.3.21-.44.29a7.46,7.46,0,0,1-.74.18c.28,0-.49-.2-.62-.29a6,6,0,0,1-1.43-2,15.46,15.46,0,0,1-1.16-3.07c-1.65-5.67-2-11.64-2.51-17.49-.57-7.23-1.08-14.57-1-21.86.25-1.71.5-3.42.69-5.14.6-5.37.32-13.17,4.63-17.17s7.12,8.84,7.59,11.08a84.26,84.26,0,0,1,1,24.76Zm221.66,99.21c0,.18,0,.37,0,.54.07,1.08.2,2.17.29,3.25,0,.29,0,.58.07.87a2.65,2.65,0,0,1-.17.8c-.15.63-.31,1.27-.47,1.9-8.34-.08-16.69-.13-25-.2L183,277.5q-31.61-.28-63.22-.49c-17.55-.11-35.09-.17-52.64-.06-5.59,0-11.18,0-16.77.2-1.67,0-3.33.09-5,.16-1.43.06-2.85.17-4.27.3a26.57,26.57,0,0,1-4,.25,4.42,4.42,0,0,1-.94-.08h0c-.73-1.17-.18-3.69-.14-5,0-.93,0-1.85,0-2.78l1.66.24c5.64.83,11.47.62,17.16.72,17.77.3,35.53.38,53.3.37q32.84,0,65.67-.09,29.58-.05,59.17-.17C243.07,271,253.14,271,263.18,270.81Zm-12.4-33.29c1.63,4.8,3.25,9.66,5.23,14.34,1,2.35,1.91,4.71,3.1,7,.19.36.4.7.61,1-6.94.1-13.9,0-20.84.09q-28.54.16-57.07.21-32.94.08-65.89.12c-18.61,0-37.22,0-55.84.36-6.06.11-12.13.16-18.19.4.31-.46.63-.93.92-1.42a51.6,51.6,0,0,0,2.82-6.1c1.79-4.29,3.34-8.67,4.88-13,3.79-10.68,7.24-21.45,11.09-32.1,3.44-9.55,6.3-19.86,15.18-25.9,4.72-3.2,10-4.21,15.46-5.36,6.36-1.33,13.07-2.54,19.57-1.56a13,13,0,0,1,9.76,7.15c2.54,4.59,2.28,9.37,3.37,14.31a4.63,4.63,0,0,0,4.63,3.49c2.81,1.13,6.11,1.08,9.08,1.08q5.85,0,11.72-.05c7.43-.11,14.84-.54,22.28-.5,3.79,0,5.49-3.25,5.1-6.18.54-3.61.66-7.18,2.21-10.66s4-6.51,7.5-7.9c5.3-2.08,12.16-1.08,17.6-.17,5.67,1,12.07,1.77,17.24,4.42,9.25,4.75,13.34,13.52,16.64,22.88,4.06,11.39,8,22.75,11.87,34.12Zm4.2-38.77c-2.76,0-5.49-.54-8.16-.35l-.28-.84c-3.56-10.8-10.13-21-20.71-26-6.23-2.95-13.39-4.17-20.16-5.22s-14.53-1.85-21.14.54a23.58,23.58,0,0,0-12.89,11.67,36.91,36.91,0,0,0-3.79,11.93c-5.81.12-11.63.37-17.41.79-3.74.27-7.47.57-11.21.82-1.45.09-3,.14-4.49.29a35,35,0,0,0-3.11-11.93,25,25,0,0,0-10.13-11.89c-5.75-3.3-13-3.46-19.39-2.85A94.69,94.69,0,0,0,81,169.85c-11.29,3.85-19.19,12.81-23.6,23.66-.15.37-.29.75-.44,1.13a59,59,0,0,0-8.5-.08c.27-1.58.48-3.18.69-4.77q.11-.81.21-1.63l0-.28,0-.21c.39-2.85.66-5.71,1-8.56.62-5.51,1.23-11,1.36-16.58a83.63,83.63,0,0,0-1.44-15.46c-.12-.75-.26-1.53-.42-2.32.17,0,.35,0,.54.05,2.17.15,4.34.11,6.51.17,6.19.16,12.38.27,18.57.38,17.39.33,34.77.49,52.16.7l58.86.69,49.76.58c7,.08,14.1.42,21.09.34a89.93,89.93,0,0,0-.83,22.84c.49,5.65,1.08,11.34,1.84,17,0,.24,0,.35.05.38v.05q.11.92.23,1.83c.22,1.63.43,3.3.72,4.94.22,1.28.49,2.62.83,4-1.73,0-3.46.16-5.2.13Zm24.69-25.48c-.48,6.74-.8,13.55-2.09,20.23a27,27,0,0,1-2,6.71,5.8,5.8,0,0,1-1.63,2.29s-.59.19-.69.19a1.88,1.88,0,0,1-1-.4,5.12,5.12,0,0,0-.54-.61,12.63,12.63,0,0,1-.8-1.33,25.31,25.31,0,0,1-1.89-6c-1.08-5.09-1.44-10.08-2.08-15.82-1-8.72-1.71-17.27-.63-26a65.23,65.23,0,0,1,2.42-11.43c.54-1.79,2-6,4.34-6.22,2.09-.26,3.79,3.59,4.34,5.19a46.89,46.89,0,0,1,1.8,10.4c.26,2.5.62,5,1,7.48,0,5.17-.2,10.34-.56,15.37Zm10.51-2.34a3.89,3.89,0,0,1-1.23.61c0-.94,0-1.88,0-2.82.67.43,1.43.92,1.91,1.21a3.16,3.16,0,0,1-.72,1Z"/><path class="cls-2" d="M92.73,240.82h0l.06-.16Z"/><path class="cls-2" d="M128.19,240.82h0l.06-.16Z"/><path class="cls-2" d="M163.71,240.82h0l.06-.16Z"/><path class="cls-2" d="M199.21,240.82h0l.06-.16Z"/><path class="cls-2" d="M234.74,240.65l-.05.17h0A1.53,1.53,0,0,0,234.74,240.65Z"/><path class="cls-2" d="M217,217l-.05.17h0A1.53,1.53,0,0,0,217,217Z"/><path class="cls-2" d="M181.51,217l-.05.17h0A1.55,1.55,0,0,0,181.51,217Z"/><path class="cls-2" d="M146,217l-.05.17h0A1.56,1.56,0,0,0,146,217Z"/><path class="cls-2" d="M110.53,217l-.05.17h0A1.53,1.53,0,0,0,110.53,217Z"/><path class="cls-2" d="M49.74,135.1l-.32,0h-.05Z"/><g id="Layer_2-2-3" data-name="Layer 2-2"><g id="Layer_1-2-3" data-name="Layer 1-2"><path class="cls-2" d="M224.33,78.8a29,29,0,1,0-29-29h0A29,29,0,0,0,224.33,78.8Zm0-47.71a18.67,18.67,0,1,1-18.67,18.68,18.67,18.67,0,0,1,18.67-18.68Z"/><path class="cls-2" d="M202.78,89.26a68.31,68.31,0,0,1,6.51,7.59,36.74,36.74,0,0,1,51.24,40h9.8a46.44,46.44,0,0,0-67.54-47.6Z"/><path class="cls-2" d="M203,136.87h9.68a58.07,58.07,0,0,0-116.13,0h9.68a48.39,48.39,0,0,1,96.77-1Q203,136.35,203,136.87Z"/><path class="cls-2" d="M154.65,69.14a33.87,33.87,0,1,0-33.87-33.87h0A33.87,33.87,0,0,0,154.65,69.14Zm0-58.67a24.8,24.8,0,1,1-24.8,24.8,24.8,24.8,0,0,1,24.8-24.8h0Z"/><path class="cls-2" d="M48.78,136.87a36.75,36.75,0,0,1,51.22-40,68.31,68.31,0,0,1,6.51-7.59A46.41,46.41,0,0,0,39,136.87Z"/><path class="cls-2" d="M85,78.8a29,29,0,1,0-29-29h0A29,29,0,0,0,85,78.8Zm0-47.71A18.67,18.67,0,1,1,66.34,49.8v0A18.69,18.69,0,0,1,85,31.1Z"/></g></g></g></g><g id="Layer_2-4" data-name="Layer 2"><g id="Layer_1-2-4" data-name="Layer 1-2"><g class="cls-3"><text class="cls-4" transform="translate(2000.08 230.16)">scri<tspan class="cls-5" x="205.36" y="0">p</tspan><tspan class="cls-6" x="266.1" y="0">t</tspan><tspan class="cls-7" x="306.87" y="0">s</tspan></text><text class="cls-3"></text><text class="cls-3"></text><text class="cls-3"></text></g></g></g><g id="Layer_2-5" data-name="Layer 2"><g id="Layer_1-2-5" data-name="Layer 1-2"><g class="cls-3"><text class="cls-8" transform="translate(2012.26 230.16)">scri<tspan class="cls-5" x="205.36" y="0">p</tspan><tspan class="cls-9" x="266.1" y="0">t</tspan><tspan class="cls-10" x="306.87" y="0">s</tspan></text><text class="cls-3"></text><text class="cls-3"></text><text class="cls-3"></text></g></g></g><g id="Layer_2-6" data-name="Layer 2"><g id="Layer_1-2-6" data-name="Layer 1-2"><g class="cls-3"><text class="cls-11" transform="translate(1647.89 229.58) rotate(0.02)">f</text><text class="cls-12" transform="translate(1715.79 229.61) rotate(0.02)">r</text><text class="cls-11" transform="translate(1762.3 229.62) rotate(0.02)">i</text><text class="cls-12" transform="translate(1783.68 229.63) rotate(0.02)">end</text></g></g></g><g id="Layer_2-7" data-name="Layer 2"><g id="Layer_1-2-7" data-name="Layer 1-2"><g class="cls-3"><text class="cls-13" transform="translate(1663.06 229.67)">f</text><text class="cls-14" transform="translate(1730.96 229.67)">r</text><text class="cls-13" transform="translate(1777.47 229.67)">i</text><text class="cls-14" transform="translate(1798.85 229.67)">end</text></g></g></g><line class="cls-15" x1="595.42" y1="512.71" x2="595.42" y2="512.71"/></g></g></svg>