<svg xmlns="http://www.w3.org/2000/svg" viewBox="0 0 1190.67 829.32"><defs><style>.cls-1,.cls-10,.cls-11,.cls-12,.cls-4{fill:#729f98;}.cls-13,.cls-14,.cls-15,.cls-2,.cls-7{fill:#fff;stroke:#3c7079;}.cls-10,.cls-11,.cls-12,.cls-13,.cls-14,.cls-15,.cls-2,.cls-4,.cls-7{stroke-miterlimit:10;}.cls-2{stroke-width:5.08px;}.cls-10,.cls-11,.cls-12,.cls-13,.cls-14,.cls-15,.cls-3,.cls-4,.cls-7{isolation:isolate;}.cls-4,.cls-7{font-size:218.62px;letter-spacing:-0.02em;}.cls-10,.cls-11,.cls-12,.cls-4{stroke:#729f98;}.cls-4{stroke-width:2.48px;}.cls-10,.cls-11,.cls-12,.cls-13,.cls-14,.cls-15,.cls-4,.cls-7{font-family:Noteworthy-Bold, Noteworthy;font-weight:700;}.cls-5{letter-spacing:-0.06em;}.cls-6{letter-spacing:-0.07em;}.cls-7{stroke-width:4.67px;}.cls-8{letter-spacing:-0.06em;}.cls-9{letter-spacing:-0.07em;}.cls-10,.cls-11,.cls-12{font-size:221px;stroke-width:1.44px;}.cls-10{letter-spacing:-0.02em;}.cls-12{letter-spacing:-0.02em;}.cls-13,.cls-14,.cls-15{font-size:221px;stroke-width:4.67px;}.cls-13{letter-spacing:-0.02em;}.cls-15{letter-spacing:-0.02em;}</style></defs><title>header_4</title><g id="Layer_2" data-name="Layer 2"><g id="Layer_1-2" data-name="Layer 1"><g id="Layer_2-2" data-name="Layer 2"><g id="Icon"><path class="cls-1" d="M671.68,421.66a24.14,24.14,0,0,0-10.89,6.64,17.19,17.19,0,0,0-2.75,4.23c-2.57-6.22-8.89-10.8-16.18-13-9.86-3-23.94-3.23-33.82,2.14a24.14,24.14,0,0,0-10.89,6.64,17.2,17.2,0,0,0-2.75,4.23c-2.57-6.22-8.89-10.8-16.18-13-9.86-3-23.94-3.23-33.82,2.14a24.14,24.14,0,0,0-10.89,6.64,17.19,17.19,0,0,0-2.75,4.23c-2.57-6.22-8.89-10.8-16.18-13-9.86-3-23.94-3.23-33.82,2.14a24.14,24.14,0,0,0-10.89,6.64,17.19,17.19,0,0,0-2.75,4.23c-2.57-6.22-8.89-10.8-16.18-13-9.86-3-23.94-3.23-33.82,2.14a24.14,24.14,0,0,0-10.89,6.64c-11.48,13.11,3.65,29.71,17.23,31.88,8.54,1.37,17.86.21,26.32-1.37,7.62-1.43,14.2-5.73,17.12-13.1.11-.27.2-.54.3-.83,3.29,7.67,11.86,14,19.89,15.29,8.54,1.37,17.86.21,26.32-1.37,7.62-1.43,14.2-5.73,17.12-13.1.11-.27.2-.54.3-.83,3.29,7.67,11.86,14,19.89,15.29,8.54,1.37,17.86.21,26.32-1.37,7.62-1.43,14.2-5.73,17.12-13.1.11-.27.2-.54.3-.83,3.29,7.67,11.86,14,19.89,15.29,8.54,1.37,17.86.21,26.32-1.37,7.62-1.43,14.2-5.73,17.12-13.1.11-.27.2-.54.3-.83,3.29,7.67,11.86,14,19.89,15.29,8.54,1.37,17.86.21,26.32-1.37,7.62-1.43,14.2-5.73,17.12-13.1,5.09-12.78-4.17-22.5-16-26.1C695.64,416.53,681.56,416.31,671.68,421.66ZM448.94,441.59c-5.09,2.31-12.64,2.12-18.11,2.42-4.47.24-9.55.23-12.59-3.64-1.26-1.61-1.31-2.84-.68-3.89,5.33-1.19,10.25-3.06,15.91-2.8,1.32.06,2.76.21,3.95.37,1,.12,4.49.69,1.94.29,1.63.25,3.25.52,4.86.91.88.21,1.75.47,2.61.73,0,0,1.75.65,1.63.56a17.71,17.71,0,0,1,2.82,1.8c-.24.58-.08.45.11.07h0C450.94,440.15,450.8,440.71,448.94,441.59Zm63.64,0c-5.09,2.31-12.64,2.12-18.11,2.42-4.47.24-9.55.23-12.59-3.64-1.26-1.61-1.31-2.84-.68-3.89,5.33-1.19,10.25-3.06,15.91-2.8,1.32.06,2.76.21,3.95.37,1,.12,4.49.69,1.94.29,1.63.25,3.25.52,4.86.91.88.21,1.75.47,2.61.73,0,0,1.75.65,1.63.56a17.71,17.71,0,0,1,2.82,1.8c-.24.58-.08.45.11.07h0c-.45,1.73-.61,2.29-2.47,3.17Zm63.64,0c-5.09,2.31-12.64,2.12-18.11,2.42-4.47.24-9.55.23-12.59-3.64-1.26-1.61-1.31-2.84-.68-3.89,5.33-1.19,10.25-3.06,15.91-2.8,1.32.06,2.76.21,3.95.37,1,.12,4.49.69,1.94.29,1.63.25,3.25.52,4.86.91.88.21,1.75.47,2.61.73,0,0,1.75.65,1.63.56a17.71,17.71,0,0,1,2.82,1.8c-.24.58-.08.45.11.07h0c-.41,1.73-.61,2.29-2.47,3.17Zm63.64,0c-5.09,2.31-12.64,2.12-18.11,2.42-4.47.24-9.55.23-12.59-3.64-1.26-1.61-1.31-2.84-.68-3.89,5.33-1.19,10.25-3.06,15.91-2.8,1.32.06,2.76.21,3.95.37,1,.12,4.49.69,1.94.29,1.63.25,3.25.52,4.86.91.88.21,1.75.47,2.61.73,0,0,1.75.65,1.63.56a17.71,17.71,0,0,1,2.82,1.8c-.24.58-.08.45.11.07h0c-.46,1.73-.62,2.29-2.48,3.17Zm66.1-3.13h0c-.52,1.7-.67,2.26-2.53,3.11-5.09,2.31-12.64,2.12-18.11,2.42-4.47.24-9.55.23-12.59-3.64-1.26-1.61-1.31-2.84-.68-3.89,5.33-1.19,10.25-3.06,15.91-2.8,1.32.06,2.76.21,3.95.37,1,.12,4.49.69,1.94.29,1.63.25,3.25.52,4.86.91.88.21,1.75.47,2.61.73,0,0,1.75.65,1.63.56a17.72,17.72,0,0,1,2.82,1.8c-.17.61,0,.48.19.1Z"/><path class="cls-1" d="M455.28,417.79c8.54,1.37,17.86.21,26.32-1.37,7.62-1.43,14.2-5.73,17.12-13.1.11-.27.2-.54.3-.83,3.29,7.67,11.86,14,19.89,15.29,8.54,1.37,17.86.21,26.32-1.37,7.62-1.43,14.2-5.73,17.12-13.1.11-.27.2-.54.3-.83,3.29,7.67,11.86,14,19.89,15.29,8.54,1.37,17.86.21,26.32-1.37,7.62-1.43,14.2-5.73,17.12-13.1.11-.27.2-.54.3-.83,3.29,7.67,11.86,14,19.89,15.29,8.54,1.37,17.86.21,26.32-1.37,7.62-1.43,14.2-5.73,17.12-13.1,5.09-12.88-4.21-22.62-16-26.19-9.86-3-23.94-3.23-33.82,2.14A24.14,24.14,0,0,0,629,385.88a17.2,17.2,0,0,0-2.75,4.23c-2.57-6.22-8.89-10.8-16.18-13-9.86-3-23.94-3.23-33.82,2.14a24.14,24.14,0,0,0-10.89,6.64,17.2,17.2,0,0,0-2.75,4.23c-2.57-6.22-8.89-10.8-16.18-13-9.86-3-23.94-3.23-33.82,2.14a24.14,24.14,0,0,0-10.89,6.64,17.2,17.2,0,0,0-2.75,4.23c-2.57-6.22-8.89-10.8-16.18-13-9.86-3-23.94-3.23-33.82,2.14a24.14,24.14,0,0,0-10.89,6.64C426.57,399,441.7,415.62,455.28,417.79Zm185-23.68c5.33-1.19,10.25-3.06,15.91-2.8,1.32.06,2.76.21,3.95.37,1,.12,4.49.69,1.94.29,1.63.25,3.25.52,4.86.91.88.21,1.75.47,2.61.73,0,0,1.75.65,1.63.56A17.7,17.7,0,0,1,674,396c-.24.58-.08.45.11.07h0c-.52,1.7-.67,2.26-2.53,3.11-5.09,2.31-12.64,2.12-18.11,2.42-4.47.24-9.55.24-12.59-3.64C639.71,396.33,639.66,395.1,640.3,394.11Zm-63.64,0c5.33-1.19,10.25-3.06,15.91-2.8,1.32.06,2.76.21,3.95.37,1,.12,4.49.69,1.94.29,1.63.25,3.25.52,4.86.91.88.21,1.75.47,2.61.73,0,0,1.75.65,1.63.56a17.7,17.7,0,0,1,2.82,1.8c-.24.58-.08.45.11.07h0c-.52,1.7-.67,2.26-2.53,3.11-5.09,2.31-12.64,2.12-18.11,2.42-4.47.24-9.55.24-12.59-3.64C576.07,396.33,576,395.1,576.66,394.11Zm-63.63,0c5.33-1.19,10.25-3.06,15.91-2.8,1.32.06,2.76.21,3.95.37,1,.12,4.49.69,1.94.29,1.63.25,3.25.52,4.86.91.88.21,1.75.47,2.61.73,0,0,1.75.65,1.63.56a17.7,17.7,0,0,1,2.82,1.8c-.24.58-.08.45.11.07h0c-.52,1.7-.67,2.26-2.53,3.11-5.09,2.31-12.64,2.12-18.11,2.42-4.47.24-9.55.24-12.59-3.64C512.43,396.33,512.38,395.1,513,394.11Zm-63.64,0c5.33-1.19,10.25-3.06,15.91-2.8,1.32.06,2.76.21,3.95.37,1,.12,4.49.69,1.94.29,1.63.25,3.25.52,4.86.91.88.21,1.75.47,2.61.73,0,0,1.75.65,1.63.56a17.7,17.7,0,0,1,2.82,1.8c-.24.58-.08.45.11.07h0c-.52,1.7-.67,2.26-2.53,3.11-5.09,2.31-12.64,2.12-18.11,2.42-4.47.24-9.55.24-12.59-3.64C448.8,396.33,448.75,395.1,449.38,394.11Z"/><path class="cls-1" d="M822.61,305c-3.51-6.58-12-10.63-19.57-9.93a165.63,165.63,0,0,0-2.35-19.57V273c0-14.41-3.16-34.48-18.47-40.47-15-5.83-25.74,7.33-30.77,20-11.41,0-22.83-.27-34.23-.41l-5.65-.07.06-.66a29.16,29.16,0,0,1-3.12.17,19.66,19.66,0,0,1-2.15-.08,29.11,29.11,0,0,1-4.17.32,31.57,31.57,0,0,1-5.06-.42,29.16,29.16,0,0,1-3.2.17h-.32v.28l-61.07-.74-105-1.27c-32.35-.39-64.7-1-97.05-1.09l-14.77-.08.1-.44a29.41,29.41,0,0,1-4.52.36,32.08,32.08,0,0,1-3.89-.23v.28H380.89c-1.84,0-3.71-.11-5.55,0l-1,.14c.71-.1.17,0-.12,0l-.54.07-.44.07.42-.06-.61.08-2.15.26-1.25.17c-3.55-8.19-9.05-15.2-17.94-17.58-20.82-5.58-29,20.2-30,35.75-.17,2.61-.25,5.23-.3,7.85-.56,3-1,6-1.36,9a20.31,20.31,0,0,0-4.79-.56c-6.7.25-13.07,4.14-15.48,10.52-5.55,14.5,5.22,28.48,19.44,30.31.52,12.64,1.68,25.51,4.64,37.69,2.84,11.71,9.86,25.18,23.83,24.62,10.5-.41,16.89-8.39,20.51-17.33a26.07,26.07,0,0,0,4.86,1c2.78.32,5.59.63,8.41.88-2,6.16-4,12.37-6.09,18.47-3.89,11.31-7.78,22.63-10.76,34.22-2.35,9.2-5.26,18.24-7.71,27.41a126.79,126.79,0,0,0-3.25,14.58c-.44,3-.36,6.12-.67,9.16l-4.63.69-.39.06.28-.06-.28.06c-1,.16-.57.12,0,0-.8.18-1.6.31-2.36.54,1-.33.41-1.18-1.34.38a6.85,6.85,0,0,1,1.06-.3l.2,0a4.93,4.93,0,0,0-2.23,1.35h0a11.13,11.13,0,0,1,1-1l-.91.33-.81.26a5.83,5.83,0,0,0-4,6.86c-2.16,11.59-7,28,6.25,33.87,6.8,3,14.94,1.72,22.22,2.12,7.78.42,15.55.68,23.33.86,29.59.66,59.16,1.28,88.75,1.58q57.22.59,114.44,1.09L699,525l61.47.47h2.92c5.83,0,9.36-4.6,10-10a11.39,11.39,0,0,1,.14-1.26c.07-.67.61-3.73.15-1.63.35-1.57.71-3.15,1-4.72,4.48-7.4,1.7-17.71,1.55-25.74-.1-5.19-4.46-10.13-9.91-9.91q-3.37.14-6.76.23a34.59,34.59,0,0,0-.28-3.89c-.64-4.4-1.6-8.67-2.64-13-2.14-8.88-5-17.6-7.36-26.4-4.8-17.53-10.63-34.59-16.47-51.7a86.28,86.28,0,0,0,9.58,1.81c3.95.44,7.9.53,11.83,1.14,2.48.38,4.91,1,7.4,1.29a21.44,21.44,0,0,0,3.83,2.81c12.84,7.3,25.27-1.77,30.14-13.75,4.86-11.8,5.66-25.27,6.69-37.91,0-.45.07-.89.11-1.34a9.18,9.18,0,0,0,1-.15c6.63-1.38,12-3.48,16.24-9.12C823.41,317.29,825.73,310.84,822.61,305Zm-503.75,2.56a6.09,6.09,0,0,1-3.48-2.26c-1.29-1.68-2.78-5.52-1.49-7.46,1.13-1.69,3.11-1.94,5.25-1.94C318.94,299.79,318.86,303.68,318.86,307.55Zm40.83,6.68c-.75,8-1.71,16.06-2.57,24.09-.19,1.85-.48,3.7-.71,5.56s-.44,3.47-.55,4.27a88.46,88.46,0,0,1-2.72,12.9c-1,3.24-2.26,6.57-4.3,8.2-.21.15-.53.37-.79.52a13.37,13.37,0,0,1-1.33.32c.5,0-.88-.35-1.12-.52a10.77,10.77,0,0,1-2.57-3.51,27.72,27.72,0,0,1-2.08-5.5c-3-10.16-3.66-20.87-4.5-31.36-1-13-1.94-26.12-1.75-39.2.46-3.07.89-6.13,1.24-9.22,1.08-9.62.57-23.61,8.3-30.8s12.77,15.85,13.61,19.86c3,14.75,3.2,29.45,1.81,44.4Zm397.46,177.9c0,.33.06.66.08,1,.13,1.94.35,3.89.52,5.83,0,.52.09,1,.13,1.56a4.75,4.75,0,0,1-.3,1.44c-.26,1.14-.55,2.27-.85,3.41-15-.15-29.93-.23-44.89-.36l-98.51-.86q-56.68-.5-113.37-.88c-31.47-.2-62.92-.3-94.39-.11-10,.07-20,.09-30.07.36-3,.08-6,.16-9,.28-2.57.11-5.11.3-7.66.54a47.64,47.64,0,0,1-7.09.45,7.93,7.93,0,0,1-1.69-.14h0c-1.31-2.1-.33-6.62-.24-9,.06-1.67.06-3.32,0-5l3,.44c10.12,1.49,20.57,1.11,30.78,1.28,31.87.54,63.7.69,95.57.66q58.88,0,117.76-.16,53-.1,106.1-.31C721.08,492.48,739.13,492.51,757.15,492.14Zm-22.23-59.69c2.92,8.61,5.83,17.32,9.38,25.72,1.76,4.21,3.43,8.44,5.55,12.48.34.64.71,1.26,1.1,1.87-12.45.18-24.92.09-37.37.17q-51.17.28-102.34.37-59.07.15-118.15.21c-33.37,0-66.73,0-100.13.65-10.87.19-21.75.29-32.61.71.56-.83,1.14-1.66,1.65-2.55a92.53,92.53,0,0,0,5.06-10.95c3.22-7.69,6-15.55,8.75-23.4,6.8-19.15,13-38.47,19.88-57.57,6.17-17.12,11.3-35.62,27.22-46.44,8.47-5.75,17.85-7.54,27.71-9.6,11.4-2.39,23.43-4.55,35.09-2.8,8,1.2,13.68,5.83,17.5,12.81,4.55,8.23,4.08,16.8,6,25.66.89,4.05,4.58,6.16,8.3,6.25,5,2,11,1.94,16.28,1.94q10.5,0,21-.1c13.32-.2,26.62-1,39.94-.9,6.8,0,9.84-5.83,9.14-11.08,1-6.47,1.19-12.87,4-19.11s7.09-11.67,13.44-14.17c9.51-3.73,21.8-1.94,31.56-.3,10.16,1.76,21.65,3.17,30.92,7.93,16.59,8.53,23.92,24.24,29.84,41,7.27,20.42,14.27,40.79,21.28,61.18Zm7.52-69.52c-5-.07-9.85-1-14.64-.62l-.51-1.51c-6.38-19.36-18.16-37.62-37.13-46.6-11.17-5.29-24-7.49-36.15-9.35s-26.06-3.31-37.91,1A42.28,42.28,0,0,0,593,326.74a66.18,66.18,0,0,0-6.8,21.39c-10.42.22-20.85.67-31.22,1.42-6.7.49-13.4,1-20.09,1.47-2.61.17-5.35.25-8.06.52-.36-7.37-2.74-14.86-5.58-21.39-3.76-8.67-9.86-16.53-18.16-21.32-10.31-5.91-23.22-6.2-34.76-5.1-12.46,1.19-26,3.31-37.91,7.37-20.24,6.91-34.41,23-42.33,42.43-.27.67-.52,1.35-.79,2-4.77-.22-10.21-.65-15.23-.15.48-2.84.86-5.7,1.23-8.54q.19-1.45.37-2.92l.06-.51,0-.37c.7-5.1,1.18-10.24,1.75-15.35,1.11-9.88,2.21-19.78,2.44-29.73.21-9.22-1.07-18.64-2.58-27.71-.22-1.34-.47-2.74-.75-4.16.31,0,.63.08,1,.1,3.89.27,7.78.19,11.67.3,11.1.28,22.2.48,33.3.69,31.18.59,62.35.88,93.53,1.25l105.54,1.23,89.23,1c12.56.15,25.27.75,37.82.61a161.26,161.26,0,0,0-1.5,41c.88,10.13,1.94,20.33,3.3,30.4.06.44.09.62.1.68v.1q.2,1.64.42,3.29c.39,2.92.78,5.92,1.29,8.86.4,2.29.87,4.7,1.49,7.11-3.11,0-6.2.28-9.33.23Zm44.28-45.69c-.86,12.09-1.44,24.3-3.75,36.27-.79,4.06-1.72,8.46-3.5,12a10.4,10.4,0,0,1-2.92,4.11c.09-.07-1,.34-1.24.34a3.37,3.37,0,0,1-1.83-.72,9.19,9.19,0,0,0-1-1.1,22.64,22.64,0,0,1-1.44-2.38c-1.42-2.61-2.6-7-3.38-10.76-1.94-9.13-2.58-18.07-3.72-28.37-1.75-15.64-3.06-31-1.13-46.66a117,117,0,0,1,4.35-20.5c1-3.22,3.66-10.69,7.78-11.16,3.74-.47,6.8,6.45,7.78,9.3,2,6,2.59,12.37,3.23,18.64.47,4.49,1.12,9,1.77,13.42.07,9.26-.36,18.55-1,27.57Zm18.85-4.2a7,7,0,0,1-2.2,1.09c0-1.68.07-3.36.07-5.05,1.2.77,2.57,1.64,3.43,2.17a5.66,5.66,0,0,1-1.29,1.84Z"/><path class="cls-1" d="M451.5,438.36h0a2.74,2.74,0,0,0,.11-.28Z"/><path class="cls-1" d="M515.09,438.36h0a2.76,2.76,0,0,0,.11-.28Z"/><path class="cls-1" d="M578.78,438.36h0a2.74,2.74,0,0,0,.11-.28Z"/><path class="cls-1" d="M642.44,438.36h0a2.74,2.74,0,0,0,.11-.28Z"/><path class="cls-1" d="M706.15,438l-.1.31h0A2.74,2.74,0,0,0,706.15,438Z"/><path class="cls-1" d="M674.33,395.66l-.1.31h0A2.74,2.74,0,0,0,674.33,395.66Z"/><path class="cls-1" d="M610.69,395.66l-.1.31h0A2.77,2.77,0,0,0,610.69,395.66Z"/><path class="cls-1" d="M547.06,395.66l-.1.31h0A2.79,2.79,0,0,0,547.06,395.66Z"/><path class="cls-1" d="M483.41,395.66l-.1.31h0A2.74,2.74,0,0,0,483.41,395.66Z"/><polygon class="cls-1" points="374.41 248.79 373.84 248.88 373.74 248.88 373.74 248.88 374.41 248.79"/><g id="Layer_2-2-2" data-name="Layer 2-2"><g id="Layer_1-2-2" data-name="Layer 1-2"><path class="cls-1" d="M687.48,147.83a52.06,52.06,0,1,0-52.06-52.06h0A52.06,52.06,0,0,0,687.48,147.83Zm0-85.55A33.47,33.47,0,1,1,654,95.77a33.47,33.47,0,0,1,33.47-33.49Z"/><path class="cls-1" d="M648.85,166.59a122.49,122.49,0,0,1,11.67,13.61,65.88,65.88,0,0,1,91.88,71.71H770a83.28,83.28,0,0,0-121.1-85.36Z"/><path class="cls-1" d="M649.3,251.95h17.35a104.12,104.12,0,0,0-208.23,0h17.35a86.77,86.77,0,0,1,173.53-1.84Q649.31,251,649.3,251.95Z"/><path class="cls-1" d="M562.53,130.51A60.74,60.74,0,1,0,501.8,69.78h0A60.74,60.74,0,0,0,562.53,130.51Zm0-105.2a44.46,44.46,0,1,1-44.46,44.46,44.46,44.46,0,0,1,44.46-44.46h0Z"/><path class="cls-1" d="M372.69,251.95a65.9,65.9,0,0,1,91.85-71.71,122.49,122.49,0,0,1,11.67-13.61,83.22,83.22,0,0,0-121.1,85.32Z"/><path class="cls-1" d="M437.59,147.83a52.06,52.06,0,1,0-52.06-52.06h0A52.06,52.06,0,0,0,437.59,147.83Zm0-85.55a33.47,33.47,0,1,1-33.4,33.54v-.07a33.52,33.52,0,0,1,33.4-33.45Z"/></g></g></g></g><g id="Layer_2-3" data-name="Layer 2"><g id="Icon-2" data-name="Icon"><path class="cls-2" d="M689.3,420a24.42,24.42,0,0,0-11,6.72A17.39,17.39,0,0,0,675.5,431c-2.6-6.29-9-10.93-16.37-13.17-10-3-24.22-3.27-34.22,2.16a24.42,24.42,0,0,0-11,6.72,17.4,17.4,0,0,0-2.78,4.28c-2.6-6.29-9-10.93-16.37-13.17-10-3-24.22-3.27-34.22,2.16a24.42,24.42,0,0,0-11,6.72,17.39,17.39,0,0,0-2.78,4.28c-2.6-6.29-9-10.93-16.37-13.17-10-3-24.22-3.27-34.22,2.16a24.42,24.42,0,0,0-11,6.72,17.39,17.39,0,0,0-2.78,4.28c-2.6-6.29-9-10.93-16.37-13.17-10-3-24.22-3.27-34.22,2.16a24.42,24.42,0,0,0-11,6.72c-11.62,13.27,3.69,30.06,17.43,32.25,8.64,1.39,18.07.22,26.63-1.39,7.71-1.45,14.37-5.79,17.32-13.26.11-.28.21-.55.3-.84,3.32,7.76,12,14.17,20.12,15.47,8.64,1.39,18.07.22,26.63-1.39,7.71-1.45,14.37-5.79,17.32-13.26.11-.28.21-.55.3-.84,3.32,7.76,12,14.17,20.12,15.47,8.64,1.39,18.07.22,26.63-1.39,7.71-1.45,14.37-5.79,17.32-13.26.11-.28.21-.55.3-.84,3.32,7.76,12,14.17,20.12,15.47,8.64,1.39,18.07.22,26.63-1.39,7.71-1.45,14.37-5.79,17.32-13.26.11-.28.21-.55.3-.84,3.32,7.76,12,14.17,20.12,15.47,8.64,1.39,18.07.22,26.63-1.39,7.71-1.45,14.37-5.79,17.32-13.26,5.15-12.93-4.22-22.77-16.14-26.41C713.54,414.8,699.29,414.59,689.3,420ZM464,440.16c-5.15,2.34-12.79,2.14-18.32,2.45-4.52.25-9.66.24-12.74-3.68-1.28-1.63-1.33-2.87-.69-3.93,5.39-1.2,10.37-3.1,16.1-2.83,1.34.06,2.79.22,4,.37,1,.12,4.54.7,2,.3,1.65.26,3.28.53,4.92.92.89.22,1.77.47,2.65.74,0,0,1.77.66,1.65.57a17.92,17.92,0,0,1,2.85,1.82c-.25.59-.08.45.11.07h0C466,438.7,465.83,439.27,464,440.16Zm64.39,0c-5.15,2.34-12.79,2.14-18.32,2.45-4.52.25-9.66.24-12.74-3.68-1.28-1.63-1.33-2.87-.69-3.93,5.39-1.2,10.37-3.1,16.1-2.83,1.34.06,2.79.22,4,.37,1,.12,4.54.7,2,.3,1.65.26,3.28.53,4.92.92.89.22,1.77.47,2.65.74,0,0,1.77.66,1.65.57a17.92,17.92,0,0,1,2.85,1.82c-.25.59-.08.45.11.07h0c-.45,1.75-.62,2.32-2.5,3.21Zm64.39,0c-5.15,2.34-12.79,2.14-18.32,2.45-4.52.25-9.66.24-12.74-3.68-1.28-1.63-1.33-2.87-.69-3.93,5.39-1.2,10.37-3.1,16.1-2.83,1.34.06,2.79.22,4,.37,1,.12,4.54.7,2,.3,1.65.26,3.28.53,4.92.92.89.22,1.77.47,2.65.74,0,0,1.77.66,1.65.57a17.92,17.92,0,0,1,2.85,1.82c-.25.59-.08.45.11.07h0c-.41,1.75-.62,2.32-2.5,3.21Zm64.39,0c-5.15,2.34-12.79,2.14-18.32,2.45-4.52.25-9.66.24-12.74-3.68-1.28-1.63-1.33-2.87-.69-3.93,5.39-1.2,10.37-3.1,16.1-2.83,1.34.06,2.79.22,4,.37,1,.12,4.54.7,2,.3,1.65.26,3.28.53,4.92.92.89.22,1.77.47,2.65.74,0,0,1.77.66,1.65.57a17.92,17.92,0,0,1,2.85,1.82c-.25.59-.08.45.11.07h0c-.46,1.75-.63,2.32-2.51,3.21ZM724,437h0c-.52,1.72-.68,2.29-2.56,3.15-5.15,2.34-12.79,2.14-18.32,2.45-4.52.25-9.66.24-12.74-3.68-1.28-1.63-1.33-2.87-.69-3.93,5.39-1.2,10.37-3.1,16.1-2.83,1.34.06,2.79.22,4,.37,1,.12,4.54.7,2,.3,1.65.26,3.28.53,4.92.92.89.22,1.77.47,2.65.74,0,0,1.77.66,1.65.57a17.93,17.93,0,0,1,2.85,1.82c-.18.62,0,.48.2.1Z"/><path class="cls-2" d="M470.37,416.08c8.64,1.39,18.07.22,26.63-1.39,7.71-1.45,14.37-5.79,17.32-13.26.11-.28.21-.55.3-.84,3.32,7.76,12,14.17,20.12,15.47,8.64,1.39,18.07.22,26.63-1.39,7.71-1.45,14.37-5.79,17.32-13.26.11-.28.21-.55.3-.84,3.32,7.76,12,14.17,20.12,15.47,8.64,1.39,18.07.22,26.63-1.39,7.71-1.45,14.37-5.79,17.32-13.26.11-.28.21-.55.3-.84,3.32,7.76,12,14.17,20.12,15.47,8.64,1.39,18.07.22,26.63-1.39,7.71-1.45,14.37-5.79,17.32-13.26,5.15-13-4.26-22.89-16.15-26.5-10-3-24.22-3.27-34.22,2.16a24.42,24.42,0,0,0-11,6.72,17.4,17.4,0,0,0-2.78,4.28c-2.6-6.29-9-10.93-16.37-13.17-10-3-24.22-3.27-34.22,2.16a24.42,24.42,0,0,0-11,6.72,17.4,17.4,0,0,0-2.78,4.28c-2.6-6.29-9-10.93-16.37-13.17-10-3-24.22-3.27-34.22,2.16a24.42,24.42,0,0,0-11,6.72,17.4,17.4,0,0,0-2.78,4.28c-2.6-6.29-9-10.93-16.37-13.17-10-3-24.22-3.27-34.22,2.16a24.42,24.42,0,0,0-11,6.72C441.32,397.1,456.63,413.89,470.37,416.08Zm187.19-24c5.39-1.2,10.37-3.1,16.1-2.83,1.34.06,2.79.22,4,.37,1,.12,4.54.7,2,.3,1.65.26,3.28.53,4.92.92.89.22,1.77.47,2.65.74,0,0,1.77.66,1.65.57a17.91,17.91,0,0,1,2.85,1.82c-.25.59-.08.45.11.07h0c-.52,1.72-.68,2.29-2.56,3.15-5.15,2.34-12.79,2.14-18.32,2.45-4.52.25-9.66.25-12.74-3.68C657,394.37,656.91,393.13,657.55,392.12Zm-64.39,0c5.39-1.2,10.37-3.1,16.1-2.83,1.34.06,2.79.22,4,.37,1,.12,4.54.7,2,.3,1.65.26,3.28.53,4.92.92.89.22,1.77.47,2.65.74,0,0,1.77.66,1.65.57a17.91,17.91,0,0,1,2.85,1.82c-.25.59-.08.45.11.07h0c-.52,1.72-.68,2.29-2.56,3.15-5.15,2.34-12.79,2.14-18.32,2.45-4.52.25-9.66.25-12.74-3.68C592.57,394.37,592.53,393.13,593.16,392.12Zm-64.38,0c5.39-1.2,10.37-3.1,16.1-2.83,1.34.06,2.79.22,4,.37,1,.12,4.54.7,2,.3,1.65.26,3.28.53,4.92.92.89.22,1.77.47,2.65.74,0,0,1.77.66,1.65.57a17.91,17.91,0,0,1,2.85,1.82c-.25.59-.08.45.11.07h0c-.52,1.72-.68,2.29-2.56,3.15-5.15,2.34-12.79,2.14-18.32,2.45-4.52.25-9.66.25-12.74-3.68C528.19,394.37,528.14,393.13,528.79,392.12Zm-64.39,0c5.39-1.2,10.37-3.1,16.1-2.83,1.34.06,2.79.22,4,.37,1,.12,4.54.7,2,.3,1.65.26,3.28.53,4.92.92.89.22,1.77.47,2.65.74,0,0,1.77.66,1.65.57a17.91,17.91,0,0,1,2.85,1.82c-.25.59-.08.45.11.07h0c-.52,1.72-.68,2.29-2.56,3.15-5.15,2.34-12.79,2.14-18.32,2.45-4.52.25-9.66.25-12.74-3.68C463.81,394.37,463.76,393.13,464.4,392.12Z"/><path class="cls-2" d="M842,302c-3.55-6.66-12.1-10.75-19.8-10a167.57,167.57,0,0,0-2.38-19.8v-2.5c0-14.58-3.2-34.88-18.69-40.94-15.17-5.9-26,7.42-31.13,20.24-11.55,0-23.09-.28-34.63-.41l-5.71-.07.06-.67a29.5,29.5,0,0,1-3.16.17,19.89,19.89,0,0,1-2.17-.08,29.45,29.45,0,0,1-4.22.32,31.94,31.94,0,0,1-5.12-.42,29.5,29.5,0,0,1-3.24.18h-.32v.29l-61.78-.75-106.22-1.29c-32.73-.39-65.46-1-98.19-1.1L430.36,245l.1-.44a29.75,29.75,0,0,1-4.57.36,32.46,32.46,0,0,1-3.93-.24V245H395.1c-1.86,0-3.76-.11-5.62,0l-1,.14c.72-.1.18,0-.12,0l-.55.07-.44.07.42-.06-.62.08-2.17.27-1.27.18c-3.59-8.29-9.16-15.38-18.15-17.78-21.07-5.65-29.31,20.44-30.35,36.17-.18,2.64-.26,5.29-.3,7.95-.57,3-1,6-1.38,9.09a20.55,20.55,0,0,0-4.85-.57c-6.78.26-13.23,4.19-15.66,10.64-5.62,14.67,5.28,28.82,19.67,30.67.52,12.79,1.7,25.81,4.69,38.13,2.87,11.85,10,25.47,24.11,24.91,10.62-.41,17.08-8.49,20.75-17.54a26.38,26.38,0,0,0,4.92,1.05c2.81.32,5.66.64,8.51.89-2.06,6.24-4,12.51-6.16,18.69-3.93,11.44-7.87,22.9-10.89,34.62-2.38,9.3-5.32,18.45-7.8,27.73a128.28,128.28,0,0,0-3.28,14.75c-.44,3.08-.36,6.2-.68,9.26l-4.68.7-.39.06.29-.06-.29.06c-1.05.16-.58.12,0,0-.81.19-1.62.31-2.39.55,1-.33.41-1.19-1.36.38a6.93,6.93,0,0,1,1.07-.3l.21,0a5,5,0,0,0-2.25,1.37h0a11.26,11.26,0,0,1,1-1l-.92.33-.82.27a5.9,5.9,0,0,0-4,6.94c-2.18,11.72-7.06,28.31,6.32,34.27,6.88,3.08,15.12,1.74,22.48,2.14,7.87.42,15.74.69,23.6.87,29.94.67,59.86,1.3,89.79,1.6q57.89.6,115.78,1.1L717,524.5l62.19.47h3c5.9,0,9.47-4.65,10.09-10.09a11.53,11.53,0,0,1,.14-1.28c.07-.68.62-3.78.15-1.65.35-1.59.72-3.19,1.06-4.78,4.53-7.48,1.72-17.92,1.56-26-.1-5.25-4.51-10.25-10-10q-3.41.14-6.84.24a35,35,0,0,0-.29-3.93c-.65-4.46-1.62-8.77-2.68-13.15-2.16-9-5-17.8-7.45-26.71-4.86-17.73-10.76-35-16.66-52.3a87.3,87.3,0,0,0,9.69,1.83c4,.44,8,.54,12,1.15,2.51.38,5,1,7.48,1.31a21.7,21.7,0,0,0,3.87,2.84c13,7.39,25.57-1.79,30.49-13.91,4.92-11.94,5.72-25.57,6.77-38.36,0-.45.07-.9.11-1.36a9.28,9.28,0,0,0,1-.15c6.71-1.4,12.18-3.52,16.43-9.23C842.81,314.41,845.16,307.88,842,302Zm-509.66,2.59a6.16,6.16,0,0,1-3.52-2.28c-1.31-1.7-2.81-5.59-1.5-7.54,1.14-1.71,3.15-2,5.31-2C332.43,296.7,332.34,300.64,332.34,304.55Zm41.31,6.76c-.76,8.13-1.73,16.25-2.6,24.37-.2,1.87-.48,3.75-.72,5.63s-.44,3.51-.56,4.32A89.5,89.5,0,0,1,367,358.68c-1,3.28-2.28,6.65-4.35,8.3-.22.15-.54.37-.8.52a13.53,13.53,0,0,1-1.35.32c.5,0-.89-.35-1.13-.53a10.9,10.9,0,0,1-2.6-3.55,28,28,0,0,1-2.1-5.57c-3-10.28-3.71-21.12-4.55-31.73-1-13.11-2-26.43-1.77-39.65.46-3.11.9-6.21,1.26-9.32,1.09-9.74.58-23.89,8.4-31.16s12.92,16,13.77,20.09c3,14.92,3.24,29.79,1.83,44.92Zm402.12,180c0,.33.06.67.08,1,.13,2,.35,3.93.53,5.9,0,.52.09,1.05.13,1.57a4.8,4.8,0,0,1-.3,1.46c-.27,1.15-.56,2.3-.86,3.45-15.14-.15-30.28-.24-45.42-.36l-99.67-.87q-57.35-.5-114.7-.89c-31.84-.21-63.66-.3-95.5-.11-10.14.07-20.28.09-30.42.36-3,.08-6,.16-9.08.29-2.6.11-5.17.3-7.75.55a48.19,48.19,0,0,1-7.17.45,8,8,0,0,1-1.71-.14h0c-1.33-2.12-.33-6.7-.25-9.12.06-1.69.06-3.36,0-5l3,.44c10.24,1.5,20.81,1.12,31.14,1.3,32.24.55,64.45.7,96.69.67q59.57,0,119.14-.16,53.67-.1,107.34-.31C739.28,491.64,757.55,491.67,775.77,491.3Zm-22.49-60.39c3,8.71,5.9,17.53,9.49,26,1.78,4.26,3.47,8.54,5.62,12.63.34.65.72,1.28,1.11,1.89-12.6.19-25.22.09-37.81.17q-51.77.29-103.54.37-59.77.15-119.53.22c-33.76,0-67.52,0-101.3.66-11,.2-22,.3-33,.72.57-.84,1.15-1.68,1.67-2.58a93.61,93.61,0,0,0,5.12-11.07c3.26-7.78,6.07-15.74,8.85-23.67,6.88-19.37,13.13-38.92,20.11-58.24,6.25-17.32,11.43-36,27.54-47,8.57-5.81,18.06-7.63,28-9.72,11.54-2.42,23.7-4.6,35.5-2.83,8.06,1.21,13.84,5.9,17.7,13,4.6,8.33,4.13,17,6.11,26,.9,4.1,4.63,6.24,8.4,6.32,5.1,2,11.08,2,16.47,2q10.62,0,21.25-.1c13.47-.21,26.93-1,40.41-.91,6.88,0,10-5.9,9.24-11.21,1-6.55,1.2-13,4-19.34s7.17-11.8,13.6-14.34c9.62-3.78,22.06-2,31.93-.3,10.28,1.78,21.9,3.21,31.29,8,16.79,8.63,24.2,24.53,30.19,41.5,7.36,20.66,14.44,41.27,21.53,61.9Zm7.61-70.33c-5-.07-10-1-14.81-.63l-.51-1.52c-6.45-19.59-18.37-38.06-37.57-47.15-11.3-5.35-24.29-7.57-36.58-9.46s-26.37-3.35-38.36,1A42.77,42.77,0,0,0,609.69,324a67,67,0,0,0-6.88,21.64c-10.54.23-21.1.68-31.59,1.44-6.78.49-13.55,1-20.33,1.49-2.64.17-5.41.26-8.15.52-.36-7.45-2.77-15-5.65-21.64-3.81-8.77-10-16.72-18.37-21.57-10.43-6-23.5-6.27-35.17-5.16-12.61,1.2-26.35,3.34-38.36,7.45-20.48,7-34.82,23.24-42.82,42.93-.28.68-.53,1.37-.8,2-4.83-.23-10.33-.66-15.41-.15.48-2.87.87-5.76,1.25-8.64q.2-1.47.37-3l.06-.51,0-.37c.71-5.16,1.19-10.36,1.77-15.53,1.12-10,2.23-20,2.47-30.08.22-9.32-1.08-18.85-2.61-28-.23-1.36-.47-2.77-.76-4.21.31,0,.64.08,1,.1,3.93.28,7.87.2,11.8.3,11.23.29,22.46.48,33.69.7,31.54.6,63.08.89,94.62,1.27l106.78,1.25,90.28,1.05c12.71.15,25.57.76,38.27.62a163.15,163.15,0,0,0-1.51,41.43c.89,10.25,2,20.56,3.33,30.75.06.44.09.63.1.69v.1q.21,1.66.42,3.32c.39,3,.79,6,1.31,9,.4,2.32.89,4.75,1.5,7.19-3.15,0-6.27.29-9.44.24Zm44.8-46.22c-.87,12.23-1.46,24.59-3.8,36.69-.8,4.11-1.74,8.56-3.54,12.18a10.53,10.53,0,0,1-3,4.16c.09-.07-1.06.34-1.26.34a3.41,3.41,0,0,1-1.85-.73,9.29,9.29,0,0,0-1-1.11,22.9,22.9,0,0,1-1.46-2.41c-1.44-2.64-2.63-7.13-3.42-10.89-2-9.24-2.61-18.28-3.77-28.7-1.77-15.82-3.1-31.32-1.14-47.21a118.35,118.35,0,0,1,4.4-20.74c1-3.26,3.71-10.82,7.87-11.29,3.79-.47,6.88,6.52,7.87,9.41,2.07,6.09,2.62,12.51,3.27,18.86.47,4.54,1.13,9.06,1.79,13.57.07,9.37-.36,18.77-1,27.89Zm19.07-4.25a7.06,7.06,0,0,1-2.22,1.1c0-1.7.07-3.4.07-5.11,1.21.78,2.6,1.66,3.47,2.19a5.72,5.72,0,0,1-1.31,1.86Z"/><path class="cls-2" d="M466.54,436.89h0a2.78,2.78,0,0,0,.11-.29Z"/><path class="cls-2" d="M530.88,436.89h0a2.8,2.8,0,0,0,.11-.29Z"/><path class="cls-2" d="M595.31,436.89h0a2.77,2.77,0,0,0,.11-.29Z"/><path class="cls-2" d="M659.72,436.89h0a2.77,2.77,0,0,0,.11-.29Z"/><path class="cls-2" d="M724.18,436.58l-.1.31h0A2.77,2.77,0,0,0,724.18,436.58Z"/><path class="cls-2" d="M692,393.7l-.1.31h0A2.77,2.77,0,0,0,692,393.7Z"/><path class="cls-2" d="M627.6,393.7l-.1.31h0A2.81,2.81,0,0,0,627.6,393.7Z"/><path class="cls-2" d="M563.22,393.7l-.1.31h0A2.82,2.82,0,0,0,563.22,393.7Z"/><path class="cls-2" d="M498.83,393.7l-.1.31h0A2.77,2.77,0,0,0,498.83,393.7Z"/><path class="cls-2" d="M388.55,245.1l-.58.09h-.1Z"/><g id="Layer_2-2-3" data-name="Layer 2-2"><g id="Layer_1-2-3" data-name="Layer 1-2"><path class="cls-2" d="M705.28,143a52.67,52.67,0,1,0-52.67-52.67h0A52.67,52.67,0,0,0,705.28,143Zm0-86.55a33.86,33.86,0,1,1-33.86,33.88,33.86,33.86,0,0,1,33.86-33.88Z"/><path class="cls-2" d="M666.2,161.94A123.92,123.92,0,0,1,678,175.71a66.65,66.65,0,0,1,93,72.55h17.77A84.26,84.26,0,0,0,666.21,161.9Z"/><path class="cls-2" d="M666.66,248.3h17.56a105.34,105.34,0,0,0-210.67,0H491.1a87.79,87.79,0,0,1,175.56-1.86Q666.67,247.37,666.66,248.3Z"/><path class="cls-2" d="M578.87,125.44A61.45,61.45,0,1,0,517.43,64h0A61.45,61.45,0,0,0,578.87,125.44Zm0-106.43a45,45,0,1,1-45,45,45,45,0,0,1,45-45h0Z"/><path class="cls-2" d="M386.81,248.3a66.67,66.67,0,0,1,92.93-72.55A123.92,123.92,0,0,1,491.54,162,84.2,84.2,0,0,0,369,248.3Z"/><path class="cls-2" d="M452.47,143A52.67,52.67,0,1,0,399.8,90.29h0A52.67,52.67,0,0,0,452.47,143Zm0-86.55a33.86,33.86,0,1,1-33.79,33.93v-.07a33.91,33.91,0,0,1,33.79-33.84Z"/></g></g></g></g><g id="Layer_2-4" data-name="Layer 2"><g id="Layer_1-2-4" data-name="Layer 1-2"><g class="cls-3"><text class="cls-4" transform="translate(569.67 731.64)">scri<tspan class="cls-5" x="331.74" y="0">p</tspan><tspan class="cls-6" x="429.85" y="0">t</tspan><tspan x="495.7" y="0">s</tspan></text><text class="cls-3"></text><text class="cls-3"></text><text class="cls-3"></text></g></g></g><g id="Layer_2-5" data-name="Layer 2"><g id="Layer_1-2-5" data-name="Layer 1-2"><g class="cls-3"><text class="cls-7" transform="translate(589.33 731.64)">scri<tspan class="cls-8" x="331.74" y="0">p</tspan><tspan class="cls-9" x="429.84" y="0">t</tspan><tspan x="495.71" y="0">s</tspan></text><text class="cls-3"></text><text class="cls-3"></text><text class="cls-3"></text></g></g></g><g id="Layer_2-6" data-name="Layer 2"><g id="Layer_1-2-6" data-name="Layer 1-2"><g class="cls-3"><text class="cls-10" transform="translate(0.75 730.71) rotate(0.02)">f</text><text class="cls-11" transform="translate(110.43 730.75) rotate(0.02)">r</text><text class="cls-12" transform="translate(185.57 730.77) rotate(0.02)">i</text><text class="cls-11" transform="translate(220.1 730.78) rotate(0.02)">end</text></g></g></g><g id="Layer_2-7" data-name="Layer 2"><g id="Layer_1-2-7" data-name="Layer 1-2"><g class="cls-3"><text class="cls-13" transform="translate(25.25 730.85)">f</text><text class="cls-14" transform="translate(134.93 730.85)">r</text><text class="cls-15" transform="translate(210.06 730.85)">i</text><text class="cls-14" transform="translate(244.59 730.85)">end</text></g></g></g></g></g></svg>