<svg xmlns="http://www.w3.org/2000/svg" viewBox="0 0 1786.84 548.37"><defs><style>.cls-1,.cls-11,.cls-12,.cls-4{fill:#729f98;}.cls-13,.cls-14,.cls-2,.cls-8{fill:#fff;stroke:#3c7079;}.cls-11,.cls-12,.cls-13,.cls-14,.cls-2,.cls-4,.cls-8{stroke-miterlimit:10;}.cls-2{stroke-width:5.28px;}.cls-11,.cls-12,.cls-13,.cls-14,.cls-3,.cls-4,.cls-8{isolation:isolate;}.cls-4,.cls-8{font-size:135.33px;letter-spacing:-0.02em;}.cls-11,.cls-12,.cls-4{stroke:#729f98;}.cls-4{stroke-width:1.54px;}.cls-11,.cls-12,.cls-13,.cls-14,.cls-4,.cls-8{font-family:Noteworthy-Bold, Noteworthy;font-weight:700;}.cls-5{letter-spacing:-0.06em;}.cls-6{letter-spacing:-0.07em;}.cls-7{letter-spacing:-0.02em;}.cls-8{stroke-width:2.89px;}.cls-9{letter-spacing:-0.07em;}.cls-10{letter-spacing:-0.02em;}.cls-11,.cls-12{font-size:136.81px;stroke-width:0.89px;}.cls-11{letter-spacing:-0.02em;}.cls-13,.cls-14{font-size:136.81px;stroke-width:2.89px;}.cls-13{letter-spacing:-0.02em;}</style></defs><title>header_2</title><g id="Layer_2" data-name="Layer 2"><g id="Layer_1-2" data-name="Layer 1"><g id="Layer_2-2" data-name="Layer 2"><g id="Icon"><path class="cls-1" d="M388.13,438.33a25.09,25.09,0,0,0-11.32,6.9,17.87,17.87,0,0,0-2.86,4.4c-2.67-6.47-9.25-11.23-16.82-13.53-10.25-3.11-24.89-3.35-35.16,2.22a25.09,25.09,0,0,0-11.32,6.9,17.88,17.88,0,0,0-2.86,4.4c-2.67-6.47-9.25-11.23-16.82-13.53-10.25-3.11-24.89-3.35-35.16,2.22a25.09,25.09,0,0,0-11.32,6.9,17.87,17.87,0,0,0-2.86,4.4c-2.67-6.47-9.25-11.23-16.82-13.53-10.25-3.11-24.89-3.35-35.16,2.22a25.09,25.09,0,0,0-11.32,6.9,17.87,17.87,0,0,0-2.86,4.4c-2.67-6.47-9.25-11.23-16.82-13.53-10.25-3.11-24.89-3.35-35.16,2.22a25.09,25.09,0,0,0-11.32,6.9c-11.93,13.63,3.79,30.88,17.91,33.14,8.88,1.42,18.56.22,27.37-1.42,7.92-1.49,14.76-6,17.8-13.62.11-.28.21-.57.31-.86,3.42,8,12.33,14.56,20.68,15.9,8.88,1.42,18.56.22,27.37-1.42,7.92-1.49,14.76-6,17.8-13.62.11-.28.21-.57.31-.86,3.42,8,12.33,14.56,20.68,15.9,8.88,1.42,18.56.22,27.37-1.42,7.92-1.49,14.76-6,17.8-13.62.11-.28.21-.57.31-.86,3.42,8,12.33,14.56,20.68,15.9,8.88,1.42,18.56.22,27.37-1.42,7.92-1.49,14.76-6,17.8-13.62.11-.28.21-.57.31-.86,3.42,8,12.33,14.56,20.68,15.9,8.88,1.42,18.56.22,27.37-1.42,7.92-1.49,14.76-6,17.8-13.62,5.3-13.29-4.34-23.39-16.58-27.13C413,433,398.39,432.77,388.13,438.33ZM156.58,459c-5.3,2.41-13.14,2.2-18.83,2.52-4.65.25-9.92.24-13.09-3.78-1.31-1.68-1.36-3-.71-4,5.54-1.23,10.65-3.18,16.54-2.91,1.37.06,2.87.22,4.1.38,1,.12,4.67.72,2,.3,1.7.26,3.38.55,5.05.95.92.22,1.82.49,2.72.76,0,0,1.82.68,1.7.59a18.41,18.41,0,0,1,2.93,1.87c-.25.61-.08.46.11.07h0C158.65,457.55,158.51,458.14,156.58,459Zm66.16,0c-5.3,2.41-13.14,2.2-18.83,2.52-4.65.25-9.92.24-13.09-3.78-1.31-1.68-1.36-3-.71-4,5.54-1.23,10.65-3.18,16.54-2.91,1.37.06,2.87.22,4.1.38,1,.12,4.67.72,2,.3,1.7.26,3.38.55,5.05.95.92.22,1.82.49,2.72.76,0,0,1.82.68,1.7.59a18.41,18.41,0,0,1,2.93,1.87c-.25.61-.08.46.11.07h0c-.46,1.8-.64,2.38-2.57,3.29Zm66.16,0c-5.3,2.41-13.14,2.2-18.83,2.52-4.65.25-9.92.24-13.09-3.78-1.31-1.68-1.36-3-.71-4,5.54-1.23,10.65-3.18,16.54-2.91,1.37.06,2.87.22,4.1.38,1,.12,4.67.72,2,.3,1.7.26,3.38.55,5.05.95.92.22,1.82.49,2.72.76,0,0,1.82.68,1.7.59a18.41,18.41,0,0,1,2.93,1.87c-.25.61-.08.46.11.07h0c-.42,1.8-.64,2.38-2.57,3.29Zm66.16,0c-5.3,2.41-13.14,2.2-18.83,2.52-4.65.25-9.92.24-13.09-3.78-1.31-1.68-1.36-3-.71-4,5.54-1.23,10.65-3.18,16.54-2.91,1.37.06,2.87.22,4.1.38,1,.12,4.67.72,2,.3,1.7.26,3.38.55,5.05.95.92.22,1.82.49,2.72.76,0,0,1.82.68,1.7.59a18.41,18.41,0,0,1,2.93,1.87c-.25.61-.08.46.11.07h0c-.47,1.8-.65,2.38-2.58,3.29Zm68.72-3.25h0c-.54,1.77-.7,2.35-2.63,3.23-5.3,2.41-13.14,2.2-18.83,2.52-4.65.25-9.92.24-13.09-3.78-1.31-1.68-1.36-3-.71-4,5.54-1.23,10.65-3.18,16.54-2.91,1.37.06,2.87.22,4.1.38,1,.12,4.67.72,2,.3,1.7.26,3.38.55,5.05.95.92.22,1.82.49,2.72.76,0,0,1.82.68,1.7.59a18.42,18.42,0,0,1,2.93,1.87c-.18.64,0,.5.2.1Z"/><path class="cls-1" d="M163.17,434.31c8.88,1.42,18.56.22,27.37-1.42,7.92-1.49,14.76-6,17.8-13.62.11-.28.21-.57.31-.86,3.42,8,12.33,14.56,20.68,15.9,8.88,1.42,18.56.22,27.37-1.42,7.92-1.49,14.76-6,17.8-13.62.11-.28.21-.57.31-.86,3.42,8,12.33,14.56,20.68,15.9,8.88,1.42,18.56.22,27.37-1.42,7.92-1.49,14.76-6,17.8-13.62.11-.28.21-.57.31-.86,3.42,8,12.33,14.56,20.68,15.9,8.88,1.42,18.56.22,27.37-1.42,7.92-1.49,14.76-6,17.8-13.62,5.3-13.39-4.38-23.52-16.59-27.22-10.25-3.11-24.89-3.35-35.16,2.22a25.09,25.09,0,0,0-11.32,6.9,17.88,17.88,0,0,0-2.86,4.4c-2.67-6.47-9.25-11.23-16.82-13.53-10.25-3.11-24.89-3.35-35.16,2.22a25.09,25.09,0,0,0-11.32,6.9,17.88,17.88,0,0,0-2.86,4.4C272,399,265.46,394.29,257.89,392c-10.25-3.11-24.89-3.35-35.16,2.22a25.09,25.09,0,0,0-11.32,6.9,17.88,17.88,0,0,0-2.86,4.4c-2.67-6.47-9.25-11.23-16.82-13.53-10.25-3.11-24.89-3.35-35.16,2.22a25.09,25.09,0,0,0-11.32,6.9C133.33,414.8,149.05,432.05,163.17,434.31Zm192.34-24.62c5.54-1.23,10.65-3.18,16.54-2.91,1.37.06,2.87.22,4.1.38,1,.12,4.67.72,2,.3,1.7.26,3.38.55,5.05.95.92.22,1.82.49,2.72.76,0,0,1.82.68,1.7.59a18.4,18.4,0,0,1,2.93,1.87c-.25.61-.08.46.11.07h0c-.54,1.77-.7,2.35-2.63,3.23-5.3,2.41-13.14,2.2-18.83,2.52-4.65.25-9.92.25-13.09-3.78C354.89,412,354.84,410.72,355.51,409.69Zm-66.16,0c5.54-1.23,10.65-3.18,16.54-2.91,1.37.06,2.87.22,4.1.38,1,.12,4.67.72,2,.3,1.7.26,3.38.55,5.05.95.92.22,1.82.49,2.72.76,0,0,1.82.68,1.7.59a18.4,18.4,0,0,1,2.93,1.87c-.25.61-.08.46.11.07h0c-.54,1.77-.7,2.35-2.63,3.23-5.3,2.41-13.14,2.2-18.83,2.52-4.65.25-9.92.25-13.09-3.78C288.74,412,288.69,410.72,289.35,409.69Zm-66.15,0c5.54-1.23,10.65-3.18,16.54-2.91,1.37.06,2.87.22,4.1.38,1,.12,4.67.72,2,.3,1.7.26,3.38.55,5.05.95.92.22,1.82.49,2.72.76,0,0,1.82.68,1.7.59a18.4,18.4,0,0,1,2.93,1.87c-.25.61-.08.46.11.07h0c-.54,1.77-.7,2.35-2.63,3.23-5.3,2.41-13.14,2.2-18.83,2.52-4.65.25-9.92.25-13.09-3.78C222.58,412,222.53,410.72,223.2,409.69Zm-66.16,0c5.54-1.23,10.65-3.18,16.54-2.91,1.37.06,2.87.22,4.1.38,1,.12,4.67.72,2,.3,1.7.26,3.38.55,5.05.95.92.22,1.82.49,2.72.76,0,0,1.82.68,1.7.59a18.4,18.4,0,0,1,2.93,1.87c-.25.61-.08.46.11.07h0c-.54,1.77-.7,2.35-2.63,3.23-5.3,2.41-13.14,2.2-18.83,2.52-4.65.25-9.92.25-13.09-3.78C156.43,412,156.38,410.72,157,409.69Z"/><path class="cls-1" d="M545,317.05c-3.65-6.84-12.43-11-20.34-10.32a172.17,172.17,0,0,0-2.45-20.34v-2.57c.05-15-3.28-35.84-19.2-42.07-15.58-6.06-26.76,7.62-32,20.8-11.86,0-23.73-.28-35.58-.42l-5.87-.07.06-.69a30.31,30.31,0,0,1-3.24.17,20.43,20.43,0,0,1-2.23-.08,30.26,30.26,0,0,1-4.34.33,32.82,32.82,0,0,1-5.26-.43,30.31,30.31,0,0,1-3.32.18h-.33v.29l-63.48-.77L238.3,259.75c-33.63-.4-67.26-1-100.89-1.13l-15.35-.08.1-.45a30.57,30.57,0,0,1-4.7.37,33.35,33.35,0,0,1-4-.24v.29H85.83c-1.91,0-3.86-.11-5.77,0l-1,.14c.74-.1.18,0-.12,0l-.57.07-.45.07.43-.06-.64.08-2.23.27-1.3.18c-3.69-8.52-9.41-15.8-18.64-18.27-21.65-5.8-30.11,21-31.19,37.17-.18,2.71-.26,5.44-.31,8.17-.59,3.08-1,6.2-1.41,9.34a21.11,21.11,0,0,0-5-.59c-7,.26-13.59,4.3-16.09,10.93C-4.22,321.09,7,335.62,21.76,337.52c.54,13.14,1.75,26.52,4.82,39.18,3,12.18,10.25,26.17,24.77,25.6,10.91-.42,17.55-8.72,21.32-18a27.1,27.1,0,0,0,5.05,1.08c2.89.33,5.81.66,8.74.92-2.11,6.41-4.14,12.85-6.33,19.2-4,11.75-8.08,23.53-11.19,35.57-2.45,9.56-5.47,19-8,28.5a131.8,131.8,0,0,0-3.38,15.16c-.45,3.16-.37,6.37-.7,9.52l-4.81.72-.4.06.29-.06-.29.06c-1.08.16-.6.12,0,0-.83.19-1.67.32-2.46.57,1-.34.42-1.22-1.39.39a7.12,7.12,0,0,1,1.1-.31l.21-.05A5.12,5.12,0,0,0,46.8,497h0a11.57,11.57,0,0,1,1-1l-.95.34-.84.27a6.06,6.06,0,0,0-4.14,7.13c-2.24,12-7.26,29.08,6.5,35.21,7.07,3.16,15.53,1.79,23.1,2.2,8.08.43,16.17.71,24.25.89,30.76.69,61.5,1.33,92.26,1.65q59.48.62,119,1.13l109.6.89,63.9.49h3c6.06,0,9.73-4.78,10.37-10.37a11.84,11.84,0,0,1,.14-1.31c.07-.7.64-3.88.15-1.7.36-1.64.74-3.27,1.09-4.91,4.66-7.69,1.77-18.41,1.61-26.76-.1-5.4-4.64-10.53-10.3-10.3q-3.51.14-7,.24a36,36,0,0,0-.29-4c-.67-4.58-1.67-9-2.75-13.51-2.22-9.23-5.16-18.29-7.65-27.45-5-18.22-11.06-36-17.12-53.74a89.7,89.7,0,0,0,10,1.88c4.1.45,8.22.56,12.3,1.18,2.58.39,5.1,1,7.69,1.34a22.29,22.29,0,0,0,4,2.92c13.35,7.59,26.27-1.84,31.33-14.29,5.05-12.27,5.88-26.27,7-39.41,0-.46.07-.93.11-1.39a9.54,9.54,0,0,0,1-.15c6.89-1.43,12.51-3.62,16.89-9.48C545.85,329.84,548.27,323.13,545,317.05ZM21.35,319.71a6.33,6.33,0,0,1-3.62-2.34c-1.34-1.75-2.89-5.74-1.55-7.75,1.17-1.76,3.23-2,5.46-2C21.44,311.64,21.35,315.69,21.35,319.71Zm42.44,6.94C63,335,62,343.35,61.13,351.7c-.2,1.92-.5,3.85-.74,5.78s-.45,3.61-.58,4.44A92,92,0,0,1,57,375.32c-1,3.37-2.34,6.83-4.47,8.53-.22.15-.56.38-.82.54a13.9,13.9,0,0,1-1.38.33c.52,0-.92-.36-1.16-.55a11.2,11.2,0,0,1-2.67-3.65,28.82,28.82,0,0,1-2.16-5.72c-3.08-10.56-3.81-21.7-4.68-32.6-1.07-13.47-2-27.15-1.82-40.74.47-3.19.93-6.38,1.29-9.58,1.12-10,.6-24.55,8.63-32S61,276.34,61.89,280.51c3.1,15.33,3.32,30.61,1.88,46.15ZM477,511.59c0,.34.06.69.08,1,.13,2,.36,4,.55,6.06.05.54.09,1.08.13,1.62a4.93,4.93,0,0,1-.31,1.5c-.27,1.18-.58,2.36-.88,3.55-15.55-.15-31.11-.24-46.67-.37l-102.41-.89q-58.92-.52-117.85-.92c-32.71-.21-65.41-.31-98.12-.11-10.42.07-20.84.09-31.26.37-3.11.08-6.21.16-9.33.29-2.67.11-5.32.31-8,.57a49.52,49.52,0,0,1-7.37.46,8.24,8.24,0,0,1-1.76-.14h0c-1.36-2.18-.34-6.88-.25-9.37.06-1.74.06-3.46,0-5.17l3.09.45c10.52,1.55,21.38,1.15,32,1.33,33.13.57,66.22.72,99.35.69q61.21-.05,122.42-.16,55.14-.1,110.29-.32C439.48,511.95,458.25,512,477,511.59Zm-23.11-62c3,9,6.06,18,9.75,26.74,1.83,4.38,3.57,8.77,5.77,13,.35.67.74,1.31,1.14,1.94-12.94.19-25.91.09-38.85.17q-53.19.29-106.39.38-61.41.15-122.82.22c-34.69,0-69.37.05-104.09.68-11.3.2-22.61.3-33.9.74.59-.86,1.18-1.73,1.72-2.65a96.18,96.18,0,0,0,5.26-11.38c3.34-8,6.24-16.17,9.09-24.32,7.07-19.91,13.49-40,20.67-59.84,6.42-17.8,11.74-37,28.3-48.27,8.8-6,18.55-7.84,28.81-10,11.85-2.49,24.35-4.73,36.48-2.91,8.29,1.24,14.22,6.06,18.19,13.32,4.73,8.56,4.24,17.46,6.28,26.68.93,4.21,4.76,6.41,8.63,6.5,5.24,2.1,11.39,2,16.93,2q10.91.05,21.84-.1c13.84-.21,27.67-1,41.52-.94,7.07,0,10.23-6.06,9.5-11.52,1-6.73,1.23-13.38,4.11-19.87,2.82-6.34,7.37-12.13,14-14.73,9.88-3.88,22.67-2,32.81-.31,10.56,1.83,22.5,3.29,32.15,8.25,17.25,8.86,24.87,25.2,31,42.64,7.56,21.23,14.83,42.4,22.12,63.6Zm7.82-72.26c-5.15-.07-10.24-1-15.22-.65l-.53-1.57c-6.63-20.13-18.88-39.11-38.6-48.45-11.61-5.5-25-7.78-37.58-9.72s-27.09-3.45-39.41,1a44,44,0,0,0-24,21.75,68.8,68.8,0,0,0-7.07,22.23c-10.83.23-21.68.7-32.46,1.48-7,.51-13.93,1.07-20.89,1.53-2.71.17-5.56.26-8.38.54-.37-7.66-2.85-15.45-5.8-22.23-3.91-9-10.25-17.18-18.88-22.16-10.72-6.14-24.14-6.45-36.14-5.31-13,1.23-27.07,3.44-39.41,7.66-21,7.18-35.77,23.88-44,44.11-.28.7-.55,1.4-.82,2.1-5-.23-10.61-.68-15.84-.15.5-3,.89-5.92,1.28-8.88q.2-1.51.38-3l.06-.53.05-.38c.73-5.31,1.22-10.64,1.82-16,1.15-10.27,2.29-20.56,2.54-30.9C83,300.19,81.67,290.4,80.1,281c-.23-1.39-.49-2.85-.78-4.33.32,0,.66.08,1,.1,4,.28,8.08.2,12.13.31,11.54.29,23.08.5,34.62.72,32.41.62,64.82.92,97.22,1.3L334,280.35l92.76,1.08c13.06.15,26.27.78,39.32.64a167.64,167.64,0,0,0-1.56,42.57c.92,10.53,2,21.13,3.43,31.6.06.45.09.65.1.71v.1q.21,1.71.43,3.42c.4,3,.81,6.15,1.34,9.21.41,2.38.91,4.88,1.55,7.39-3.23,0-6.45.29-9.7.24Zm46-47.5c-.89,12.57-1.5,25.26-3.9,37.7-.82,4.22-1.79,8.79-3.64,12.51a10.82,10.82,0,0,1-3,4.27c.09-.07-1.09.35-1.29.35a3.51,3.51,0,0,1-1.9-.75,9.55,9.55,0,0,0-1-1.14,23.53,23.53,0,0,1-1.5-2.48c-1.48-2.71-2.7-7.33-3.52-11.19-2-9.49-2.68-18.79-3.87-29.49-1.82-16.26-3.18-32.19-1.17-48.51a121.6,121.6,0,0,1,4.52-21.31c1-3.34,3.81-11.12,8.08-11.6,3.89-.49,7.07,6.7,8.08,9.67,2.12,6.26,2.69,12.85,3.35,19.38.49,4.67,1.16,9.31,1.84,13.95.07,9.63-.37,19.28-1,28.66Zm19.59-4.37a7.26,7.26,0,0,1-2.28,1.13c0-1.75.07-3.5.07-5.25,1.24.8,2.67,1.71,3.57,2.25a5.88,5.88,0,0,1-1.34,1.91Z"/><path class="cls-1" d="M159.24,455.69h0a2.85,2.85,0,0,0,.11-.29Z"/><path class="cls-1" d="M225.35,455.69h0a2.87,2.87,0,0,0,.11-.29Z"/><path class="cls-1" d="M291.55,455.69h0a2.85,2.85,0,0,0,.11-.29Z"/><path class="cls-1" d="M357.73,455.69h0a2.85,2.85,0,0,0,.11-.29Z"/><path class="cls-1" d="M424,455.37l-.1.32h0A2.85,2.85,0,0,0,424,455.37Z"/><path class="cls-1" d="M390.88,411.31l-.1.32h0A2.85,2.85,0,0,0,390.88,411.31Z"/><path class="cls-1" d="M324.72,411.31l-.1.32h0A2.88,2.88,0,0,0,324.72,411.31Z"/><path class="cls-1" d="M258.58,411.31l-.1.32h0A2.9,2.9,0,0,0,258.58,411.31Z"/><path class="cls-1" d="M192.42,411.31l-.1.32h0A2.85,2.85,0,0,0,192.42,411.31Z"/><polygon class="cls-1" points="79.1 258.63 78.51 258.72 78.41 258.72 78.41 258.72 79.1 258.63"/><g id="Layer_2-2-2" data-name="Layer 2-2"><g id="Layer_1-2-2" data-name="Layer 1-2"><path class="cls-1" d="M404.55,153.67a54.11,54.11,0,1,0-54.11-54.11h0A54.11,54.11,0,0,0,404.55,153.67Zm0-88.93a34.79,34.79,0,1,1-34.79,34.81,34.79,34.79,0,0,1,34.79-34.81Z"/><path class="cls-1" d="M364.39,173.17a127.33,127.33,0,0,1,12.13,14.15A68.48,68.48,0,0,1,472,261.87h18.26A86.57,86.57,0,0,0,364.4,173.13Z"/><path class="cls-1" d="M364.86,261.91h18a108.24,108.24,0,0,0-216.47,0h18A90.2,90.2,0,0,1,364.86,260Q364.87,261,364.86,261.91Z"/><path class="cls-1" d="M274.66,135.67a63.14,63.14,0,1,0-63.14-63.14h0A63.14,63.14,0,0,0,274.66,135.67Zm0-109.36a46.22,46.22,0,1,1-46.22,46.22,46.22,46.22,0,0,1,46.22-46.22h0Z"/><path class="cls-1" d="M77.32,261.91a68.5,68.5,0,0,1,95.49-74.55,127.33,127.33,0,0,1,12.13-14.15A86.51,86.51,0,0,0,59,261.91Z"/><path class="cls-1" d="M144.78,153.67A54.11,54.11,0,1,0,90.66,99.56h0A54.11,54.11,0,0,0,144.78,153.67Zm0-88.93a34.79,34.79,0,1,1-34.72,34.86v-.07a34.84,34.84,0,0,1,34.72-34.77Z"/></g></g></g></g><g id="Layer_2-3" data-name="Layer 2"><g id="Icon-2" data-name="Icon"><path class="cls-2" d="M406.44,436.6a25.39,25.39,0,0,0-11.45,7A18.08,18.08,0,0,0,392.1,448c-2.7-6.54-9.35-11.36-17-13.69-10.37-3.15-25.18-3.39-35.57,2.25a25.39,25.39,0,0,0-11.45,7,18.09,18.09,0,0,0-2.89,4.45c-2.7-6.54-9.35-11.36-17-13.69-10.37-3.15-25.18-3.39-35.57,2.25a25.39,25.39,0,0,0-11.45,7,18.08,18.08,0,0,0-2.89,4.45c-2.7-6.54-9.35-11.36-17-13.69-10.37-3.15-25.18-3.39-35.57,2.25a25.39,25.39,0,0,0-11.45,7,18.08,18.08,0,0,0-2.89,4.45c-2.7-6.54-9.35-11.36-17-13.69-10.37-3.15-25.18-3.39-35.57,2.25a25.39,25.39,0,0,0-11.45,7c-12.07,13.79,3.83,31.24,18.12,33.52,9,1.44,18.78.22,27.69-1.44,8-1.5,14.94-6,18-13.78.11-.29.21-.57.32-.87,3.46,8.07,12.47,14.73,20.92,16.08,9,1.44,18.78.22,27.69-1.44,8-1.5,14.94-6,18-13.78.11-.29.21-.57.32-.87C261.8,469,270.81,475.7,279.26,477c9,1.44,18.78.22,27.69-1.44,8-1.5,14.94-6,18-13.78.11-.29.21-.57.32-.87,3.46,8.07,12.47,14.73,20.92,16.08,9,1.44,18.78.22,27.69-1.44,8-1.5,14.94-6,18-13.78.11-.29.21-.57.32-.87,3.46,8.07,12.47,14.73,20.92,16.08,9,1.44,18.78.22,27.69-1.44,8-1.5,14.94-6,18-13.78,5.36-13.44-4.39-23.67-16.78-27.45C431.65,431.2,416.83,431,406.44,436.6Zm-234.26,21c-5.36,2.43-13.29,2.23-19,2.55-4.7.26-10,.25-13.24-3.82-1.33-1.7-1.38-3-.72-4.09,5.6-1.25,10.78-3.22,16.74-2.94,1.39.06,2.9.22,4.15.39,1,.12,4.72.73,2,.31,1.72.27,3.41.55,5.11,1,.93.22,1.84.49,2.75.77,0,0,1.84.69,1.72.59a18.63,18.63,0,0,1,3,1.89c-.26.61-.08.47.11.07h0C174.28,456,174.14,456.64,172.19,457.56Zm66.94,0c-5.36,2.43-13.29,2.23-19,2.55-4.7.26-10,.25-13.24-3.82-1.33-1.7-1.38-3-.72-4.09,5.6-1.25,10.78-3.22,16.74-2.94,1.39.06,2.9.22,4.15.39,1,.12,4.72.73,2,.31,1.72.27,3.41.55,5.11,1,.93.22,1.84.49,2.75.77,0,0,1.84.69,1.72.59a18.63,18.63,0,0,1,3,1.89c-.26.61-.08.47.11.07h0c-.47,1.82-.64,2.41-2.6,3.33Zm66.94,0c-5.36,2.43-13.29,2.23-19,2.55-4.7.26-10,.25-13.24-3.82-1.33-1.7-1.38-3-.72-4.09,5.6-1.25,10.78-3.22,16.74-2.94,1.39.06,2.9.22,4.15.39,1,.12,4.72.73,2,.31,1.72.27,3.41.55,5.11,1,.93.22,1.84.49,2.75.77,0,0,1.84.69,1.72.59a18.63,18.63,0,0,1,3,1.89c-.26.61-.08.47.11.07h0c-.43,1.82-.64,2.41-2.6,3.33Zm66.94,0c-5.36,2.43-13.29,2.23-19,2.55-4.7.26-10,.25-13.24-3.82-1.33-1.7-1.38-3-.72-4.09,5.6-1.25,10.78-3.22,16.74-2.94,1.39.06,2.9.22,4.15.39,1,.12,4.72.73,2,.31,1.72.27,3.41.55,5.11,1,.93.22,1.84.49,2.75.77,0,0,1.84.69,1.72.59a18.63,18.63,0,0,1,3,1.89c-.26.61-.08.47.11.07h0c-.48,1.82-.65,2.41-2.61,3.33Zm69.52-3.29h0c-.54,1.79-.71,2.38-2.66,3.27-5.36,2.43-13.29,2.23-19,2.55-4.7.26-10,.25-13.24-3.82-1.33-1.7-1.38-3-.72-4.09,5.6-1.25,10.78-3.22,16.74-2.94,1.39.06,2.9.22,4.15.39,1,.12,4.72.73,2,.31,1.72.27,3.41.55,5.11,1,.93.22,1.84.49,2.75.77,0,0,1.84.69,1.72.59a18.64,18.64,0,0,1,3,1.89c-.18.64,0,.5.2.1Z"/><path class="cls-2" d="M178.85,432.53c9,1.44,18.78.22,27.69-1.44,8-1.5,14.94-6,18-13.78.11-.29.21-.57.32-.87,3.46,8.07,12.47,14.73,20.92,16.08,9,1.44,18.78.22,27.69-1.44,8-1.5,14.94-6,18-13.78.11-.29.21-.57.32-.87,3.46,8.07,12.47,14.73,20.92,16.08,9,1.44,18.78.22,27.69-1.44,8-1.5,14.94-6,18-13.78.11-.29.21-.57.32-.87,3.46,8.07,12.47,14.73,20.92,16.08,9,1.44,18.78.22,27.69-1.44,8-1.5,14.94-6,18-13.78,5.36-13.55-4.43-23.79-16.79-27.54-10.37-3.15-25.18-3.39-35.57,2.25a25.39,25.39,0,0,0-11.45,7,18.09,18.09,0,0,0-2.89,4.45c-2.7-6.54-9.35-11.36-17-13.69-10.37-3.15-25.18-3.39-35.57,2.25a25.39,25.39,0,0,0-11.45,7,18.09,18.09,0,0,0-2.89,4.45c-2.7-6.54-9.35-11.36-17-13.69-10.37-3.15-25.18-3.39-35.57,2.25a25.39,25.39,0,0,0-11.45,7,18.09,18.09,0,0,0-2.89,4.45c-2.7-6.54-9.35-11.36-17-13.69-10.37-3.15-25.18-3.39-35.57,2.25a25.39,25.39,0,0,0-11.45,7C148.66,412.8,164.57,430.25,178.85,432.53Zm194.59-24.91c5.6-1.25,10.78-3.22,16.74-2.94,1.39.06,2.9.22,4.15.39,1,.12,4.72.73,2,.31,1.72.27,3.41.55,5.11,1,.93.22,1.84.49,2.75.77,0,0,1.84.69,1.72.59a18.62,18.62,0,0,1,3,1.89c-.26.61-.08.47.11.07h0c-.54,1.79-.71,2.38-2.66,3.27-5.36,2.43-13.29,2.23-19,2.55-4.7.26-10,.26-13.24-3.82C372.82,410,372.77,408.67,373.44,407.63Zm-66.94,0c5.6-1.25,10.78-3.22,16.74-2.94,1.39.06,2.9.22,4.15.39,1,.12,4.72.73,2,.31,1.72.27,3.41.55,5.11,1,.93.22,1.84.49,2.75.77,0,0,1.84.69,1.72.59a18.62,18.62,0,0,1,3,1.89c-.26.61-.08.47.11.07h0c-.54,1.79-.71,2.38-2.66,3.27-5.36,2.43-13.29,2.23-19,2.55-4.7.26-10,.26-13.24-3.82C305.89,410,305.84,408.67,306.51,407.63Zm-66.92,0c5.6-1.25,10.78-3.22,16.74-2.94,1.39.06,2.9.22,4.15.39,1,.12,4.72.73,2,.31,1.72.27,3.41.55,5.11,1,.93.22,1.84.49,2.75.77,0,0,1.84.69,1.72.59a18.62,18.62,0,0,1,3,1.89c-.26.61-.08.47.11.07h0c-.54,1.79-.71,2.38-2.66,3.27-5.36,2.43-13.29,2.23-19,2.55-4.7.26-10,.26-13.24-3.82C239,410,238.91,408.67,239.58,407.63Zm-66.94,0c5.6-1.25,10.78-3.22,16.74-2.94,1.39.06,2.9.22,4.15.39,1,.12,4.72.73,2,.31,1.72.27,3.41.55,5.11,1,.93.22,1.84.49,2.75.77,0,0,1.84.69,1.72.59a18.62,18.62,0,0,1,3,1.89c-.26.61-.08.47.11.07h0c-.54,1.79-.71,2.38-2.66,3.27-5.36,2.43-13.29,2.23-19,2.55-4.7.26-10,.26-13.24-3.82C172,410,172,408.67,172.65,407.63Z"/><path class="cls-2" d="M565.18,313.91c-3.69-6.92-12.58-11.17-20.58-10.44a174.19,174.19,0,0,0-2.47-20.58v-2.6c.05-15.15-3.32-36.26-19.43-42.56-15.77-6.13-27.07,7.71-32.36,21-12,0-24-.29-36-.43l-5.94-.07.06-.7a30.67,30.67,0,0,1-3.28.17,20.67,20.67,0,0,1-2.26-.08,30.61,30.61,0,0,1-4.39.34,33.21,33.21,0,0,1-5.33-.44,30.67,30.67,0,0,1-3.36.18h-.34v.3l-64.23-.78-110.42-1.34c-34-.41-68-1-102.07-1.15l-15.53-.08.1-.46a30.93,30.93,0,0,1-4.75.38,33.74,33.74,0,0,1-4.09-.25v.3H100.61c-1.93,0-3.91-.11-5.84,0l-1,.14c.75-.1.18,0-.12,0l-.57.07-.46.07.44-.06-.64.08-2.26.28-1.32.18c-3.73-8.62-9.52-16-18.86-18.48C48,231.08,39.48,258.2,38.4,274.55c-.18,2.74-.27,5.5-.32,8.26-.59,3.12-1,6.28-1.43,9.45a21.36,21.36,0,0,0-5-.59c-7,.27-13.75,4.36-16.28,11.06-5.84,15.25,5.49,30,20.45,31.88.54,13.29,1.77,26.83,4.88,39.64,3,12.32,10.37,26.48,25.06,25.9,11-.43,17.76-8.82,21.57-18.23A27.42,27.42,0,0,0,92.4,383c2.92.34,5.88.66,8.84.93-2.14,6.48-4.19,13-6.4,19.43-4.09,11.89-8.18,23.8-11.32,36C81.05,449,78,458.53,75.42,468.18A133.35,133.35,0,0,0,72,483.52c-.46,3.2-.38,6.44-.71,9.63l-4.87.73-.41.06.3-.06-.3.06c-1.09.16-.6.12,0,0-.84.19-1.69.33-2.48.57,1-.35.43-1.24-1.41.4a7.21,7.21,0,0,1,1.11-.32l.21-.05A5.18,5.18,0,0,0,61.11,496h0a11.71,11.71,0,0,1,1-1l-1,.35-.85.28a6.13,6.13,0,0,0-4.19,7.22C53.87,515,48.8,532.2,62.71,538.4c7.16,3.2,15.71,1.81,23.37,2.23,8.18.44,16.36.72,24.54.9,31.12.7,62.22,1.35,93.34,1.67q60.18.62,120.35,1.15l110.89.9,64.64.49h3.07c6.13,0,9.85-4.84,10.49-10.49a12,12,0,0,1,.14-1.33c.07-.71.64-3.93.15-1.72.37-1.66.75-3.31,1.1-5,4.71-7.78,1.79-18.63,1.63-27.07-.1-5.46-4.69-10.65-10.42-10.42q-3.55.14-7.11.25a36.38,36.38,0,0,0-.3-4.09c-.67-4.63-1.69-9.12-2.78-13.67-2.25-9.33-5.22-18.51-7.74-27.77C483,426,476.91,408.08,470.77,390.08a90.75,90.75,0,0,0,10.07,1.9c4.15.46,8.31.56,12.44,1.2,2.61.4,5.16,1,7.78,1.36a22.55,22.55,0,0,0,4,3c13.51,7.68,26.58-1.86,31.69-14.46,5.11-12.41,6-26.58,7-39.87,0-.47.07-.94.11-1.41a9.65,9.65,0,0,0,1-.15c7-1.45,12.66-3.66,17.08-9.59C566,326.84,568.46,320,565.18,313.91ZM35.37,316.59a6.4,6.4,0,0,1-3.66-2.37c-1.36-1.77-2.92-5.81-1.56-7.84,1.19-1.78,3.27-2,5.52-2C35.46,308.43,35.37,312.53,35.37,316.59Zm42.94,7c-.79,8.46-1.8,16.89-2.7,25.33-.2,1.94-.5,3.9-.75,5.85s-.46,3.65-.58,4.49a93,93,0,0,1-2.86,13.57c-1,3.4-2.37,6.91-4.52,8.63-.22.15-.56.39-.83.54a14.06,14.06,0,0,1-1.4.34c.52,0-.93-.37-1.18-.55a11.33,11.33,0,0,1-2.7-3.69,29.16,29.16,0,0,1-2.19-5.79c-3.12-10.68-3.85-22-4.73-33-1.08-13.63-2-27.47-1.84-41.22.48-3.23.94-6.45,1.31-9.69,1.13-10.12.6-24.83,8.73-32.39s13.43,16.66,14.31,20.89c3.14,15.51,3.36,31,1.9,46.69Zm418,187.11c0,.35.06.7.08,1,.13,2,.37,4.09.55,6.13.05.54.09,1.09.13,1.64a5,5,0,0,1-.32,1.51c-.28,1.2-.58,2.39-.89,3.59-15.73-.15-31.48-.25-47.21-.38l-103.61-.9q-59.61-.52-119.23-.93c-33.09-.21-66.18-.32-99.27-.11-10.54.07-21.08.09-31.62.38-3.15.08-6.29.16-9.44.3-2.7.11-5.38.32-8.06.57A50.1,50.1,0,0,1,70,524a8.34,8.34,0,0,1-1.78-.14h0c-1.38-2.21-.35-7-.26-9.48.06-1.76.06-3.5,0-5.23l3.13.46c10.64,1.56,21.63,1.17,32.37,1.35,33.51.57,67,.73,100.51.7q61.93-.05,123.85-.16,55.79-.1,111.58-.33C458.4,511.08,477.39,511.11,496.33,510.72Zm-23.38-62.77c3.07,9.06,6.13,18.22,9.87,27.05,1.85,4.43,3.61,8.87,5.84,13.13.36.67.75,1.33,1.16,2-13.1.19-26.21.09-39.3.17q-53.82.3-107.64.39-62.13.15-124.26.22c-35.1,0-70.19.05-105.3.69-11.43.2-22.87.31-34.3.75.59-.87,1.2-1.75,1.74-2.68a97.31,97.31,0,0,0,5.33-11.51c3.38-8.09,6.31-16.36,9.2-24.61,7.16-20.14,13.65-40.46,20.91-60.55,6.49-18,11.88-37.46,28.63-48.84,8.9-6,18.77-7.93,29.15-10.1,12-2.52,24.64-4.78,36.91-2.94,8.38,1.26,14.38,6.13,18.4,13.47,4.78,8.66,4.29,17.67,6.35,27,.94,4.26,4.82,6.48,8.73,6.57,5.31,2.13,11.52,2,17.12,2q11,.05,22.09-.1c14-.21,28-1,42-1,7.16,0,10.35-6.13,9.61-11.66,1-6.81,1.25-13.54,4.16-20.1,2.85-6.41,7.45-12.27,14.14-14.91,10-3.93,22.93-2,33.2-.32,10.68,1.85,22.77,3.33,32.52,8.34,17.45,9,25.16,25.5,31.39,43.14,7.65,21.48,15,42.9,22.38,64.35Zm7.91-73.11c-5.21-.07-10.36-1-15.4-.65l-.53-1.58c-6.71-20.37-19.1-39.57-39.05-49-11.75-5.56-25.25-7.87-38-9.84s-27.41-3.49-39.87,1a44.46,44.46,0,0,0-24.3,22,69.6,69.6,0,0,0-7.16,22.49c-11,.24-21.93.71-32.84,1.49-7,.51-14.09,1.08-21.13,1.54-2.74.17-5.62.27-8.48.54-.38-7.75-2.88-15.63-5.87-22.49-4-9.12-10.37-17.38-19.1-22.42-10.85-6.22-24.42-6.52-36.56-5.37-13.11,1.25-27.39,3.48-39.87,7.75-21.29,7.27-36.19,24.16-44.51,44.63-.29.71-.55,1.42-.83,2.13-5-.24-10.73-.69-16-.15.5-3,.9-6,1.3-9q.2-1.52.39-3.07l.06-.53.05-.39c.74-5.37,1.24-10.77,1.84-16.14,1.17-10.39,2.32-20.81,2.57-31.26.22-9.69-1.12-19.6-2.71-29.15-.24-1.41-.49-2.88-.79-4.38.33,0,.66.08,1,.1,4.09.29,8.18.2,12.27.32,11.68.3,23.35.5,35,.73,32.79.62,65.58.93,98.36,1.32l111,1.3,93.84,1.09c13.21.15,26.58.79,39.78.64a169.6,169.6,0,0,0-1.57,43.07c.93,10.65,2,21.38,3.47,32,.06.46.09.65.1.72v.1q.21,1.73.44,3.46c.41,3.07.82,6.23,1.36,9.31.42,2.41.92,4.94,1.56,7.47-3.27,0-6.52.3-9.81.25Zm46.57-48.05c-.9,12.72-1.51,25.56-3.95,38.14-.83,4.27-1.81,8.89-3.68,12.66a10.94,10.94,0,0,1-3.07,4.32c.09-.07-1.1.36-1.31.36a3.55,3.55,0,0,1-1.92-.76,9.66,9.66,0,0,0-1-1.16,23.81,23.81,0,0,1-1.51-2.5c-1.49-2.74-2.73-7.41-3.56-11.32-2-9.6-2.71-19-3.92-29.83-1.84-16.45-3.22-32.56-1.19-49.07a123,123,0,0,1,4.57-21.56c1-3.38,3.85-11.25,8.18-11.74,3.94-.49,7.16,6.78,8.18,9.78,2.15,6.33,2.72,13,3.39,19.61.49,4.72,1.18,9.42,1.86,14.11.07,9.74-.38,19.51-1.05,29Zm19.82-4.42a7.34,7.34,0,0,1-2.31,1.15c0-1.77.07-3.54.07-5.32,1.26.81,2.7,1.73,3.61,2.28a6,6,0,0,1-1.36,1.93Z"/><path class="cls-2" d="M174.87,454.17h0a2.89,2.89,0,0,0,.11-.3Z"/><path class="cls-2" d="M241.76,454.17h0a2.91,2.91,0,0,0,.11-.3Z"/><path class="cls-2" d="M308.73,454.17h0a2.88,2.88,0,0,0,.11-.3Z"/><path class="cls-2" d="M375.69,454.17h0a2.88,2.88,0,0,0,.11-.3Z"/><path class="cls-2" d="M442.7,453.84l-.1.33h0A2.88,2.88,0,0,0,442.7,453.84Z"/><path class="cls-2" d="M409.23,409.26l-.1.33h0A2.88,2.88,0,0,0,409.23,409.26Z"/><path class="cls-2" d="M342.3,409.26l-.1.33h0A2.92,2.92,0,0,0,342.3,409.26Z"/><path class="cls-2" d="M275.37,409.26l-.1.33h0A2.93,2.93,0,0,0,275.37,409.26Z"/><path class="cls-2" d="M208.44,409.26l-.1.33h0A2.88,2.88,0,0,0,208.44,409.26Z"/><path class="cls-2" d="M93.8,254.79l-.6.09h-.1Z"/><g id="Layer_2-2-3" data-name="Layer 2-2"><g id="Layer_1-2-3" data-name="Layer 1-2"><path class="cls-2" d="M423.06,148.61a54.75,54.75,0,1,0-54.75-54.75h0A54.75,54.75,0,0,0,423.06,148.61Zm0-90a35.2,35.2,0,1,1-35.2,35.22,35.2,35.2,0,0,1,35.2-35.22Z"/><path class="cls-2" d="M382.43,168.34a128.82,128.82,0,0,1,12.27,14.31,69.29,69.29,0,0,1,96.64,75.42h18.47A87.59,87.59,0,0,0,382.44,168.3Z"/><path class="cls-2" d="M382.91,258.11h18.25a109.51,109.51,0,0,0-219,0H200.4a91.26,91.26,0,0,1,182.5-1.93Q382.92,257.15,382.91,258.11Z"/><path class="cls-2" d="M291.65,130.4a63.88,63.88,0,1,0-63.88-63.88h0A63.88,63.88,0,0,0,291.65,130.4Zm0-110.64a46.76,46.76,0,1,1-46.76,46.76,46.76,46.76,0,0,1,46.76-46.76h0Z"/><path class="cls-2" d="M92,258.11a69.31,69.31,0,0,1,96.6-75.42,128.82,128.82,0,0,1,12.27-14.31A87.53,87.53,0,0,0,73.51,258.11Z"/><path class="cls-2" d="M160.24,148.61A54.75,54.75,0,1,0,105.5,93.86h0A54.75,54.75,0,0,0,160.24,148.61Zm0-90a35.2,35.2,0,1,1-35.13,35.27v-.07a35.25,35.25,0,0,1,35.13-35.18Z"/></g></g></g></g><g id="Layer_2-4" data-name="Layer 2"><g id="Layer_1-2-4" data-name="Layer 1-2"><g class="cls-3"><text class="cls-4" transform="translate(1402.4 359.07)">scri<tspan class="cls-5" x="205.36" y="0">p</tspan><tspan class="cls-6" x="266.1" y="0">t</tspan><tspan class="cls-7" x="306.87" y="0">s</tspan></text><text class="cls-3"></text><text class="cls-3"></text><text class="cls-3"></text></g></g></g><g id="Layer_2-5" data-name="Layer 2"><g id="Layer_1-2-5" data-name="Layer 1-2"><g class="cls-3"><text class="cls-8" transform="translate(1414.58 359.07)">scri<tspan class="cls-5" x="205.36" y="0">p</tspan><tspan class="cls-9" x="266.1" y="0">t</tspan><tspan class="cls-10" x="306.87" y="0">s</tspan></text><text class="cls-3"></text><text class="cls-3"></text><text class="cls-3"></text></g></g></g><g id="Layer_2-6" data-name="Layer 2"><g id="Layer_1-2-6" data-name="Layer 1-2"><g class="cls-3"><text class="cls-11" transform="translate(1050.22 358.49) rotate(0.02)">f</text><text class="cls-12" transform="translate(1118.11 358.51) rotate(0.02)">r</text><text class="cls-11" transform="translate(1164.63 358.53) rotate(0.02)">i</text><text class="cls-12" transform="translate(1186 358.54) rotate(0.02)">end</text></g></g></g><g id="Layer_2-7" data-name="Layer 2"><g id="Layer_1-2-7" data-name="Layer 1-2"><g class="cls-3"><text class="cls-13" transform="translate(1065.38 358.58)">f</text><text class="cls-14" transform="translate(1133.28 358.58)">r</text><text class="cls-13" transform="translate(1179.79 358.58)">i</text><text class="cls-14" transform="translate(1201.17 358.58)">end</text></g></g></g></g></g></svg>