<?xml version="1.0" encoding="utf-8"?>
<!-- Generator: Adobe Illustrator 20.1.0, SVG Export Plug-In . SVG Version: 6.00 Build 0)  -->
<svg version="1.1" xmlns="http://www.w3.org/2000/svg" xmlns:xlink="http://www.w3.org/1999/xlink" x="0px" y="0px"
	 viewBox="0 0 1190.7 976.3" style="enable-background:new 0 0 1190.7 976.3;" xml:space="preserve">
<style type="text/css">
	.st0{fill:#005077;}
	.st1{fill:#3C7079;}
	.st2{fill:none;}
	.st3{fill:#F0ECEB;stroke:#3C7079;stroke-width:2.9107;stroke-miterlimit:10;}
	.st4{font-family:'Noteworthy-Bold';}
	.st5{font-size:212.1145px;}
	.st6{letter-spacing:-4;}
	.st7{letter-spacing:-12;}
	.st8{letter-spacing:-14;}
	.st9{fill:#729F98;}
	.st10{fill:#F0ECEB;}
	.st11{fill:none;stroke:#3C7079;stroke-width:4.531;stroke-miterlimit:10;}
	.st12{font-size:214.4237px;}
	.st13{fill:none;stroke:#729F98;stroke-width:1.3971;stroke-miterlimit:10;}
	.st14{fill:none;stroke:#3C7079;stroke-width:3.881;stroke-miterlimit:10;}
</style>
<g id="Layer_2_1_">
	<path class="st0" d="M329.8,596.2l492.6,4.1c0,0-59.4-211.4-91.5-192.5c-32.1,19-79.9-13.9-79.9-13.9l-33.7,63.3h-94.8l-16.7-52.9
		l-26.1-7.9l-54.8,7.9l-35.4,19.8L329.8,596.2"/>
	<path class="st0" d="M329.8,577.9l492.6,4.1c0,0-59.4-211.4-91.5-192.5c-32.1,19-79.9-13.9-79.9-13.9l-33.7,63.3h-94.8l-16.7-52.9
		l-26.1-7.9l-54.8,7.9l-35.4,19.8L329.8,577.9"/>
	<path class="st0" d="M305.7,663.7l-0.5,1.6h545.9v-32l-30.4,13.2l-480.2-7.7C324.7,638.6,310.6,648.7,305.7,663.7z"/>
	<path class="st0" d="M698.5,290.9c0,13.9-4.1,27-11.5,38.7H477.6c-7.4-11.7-11.5-24.8-11.5-38.7c0-49.2,52.1-89.1,116.3-89.1
		S698.5,241.7,698.5,290.9z"/>
	<circle class="st0" cx="580.2" cy="91.3" r="64.6"/>
	<polygon class="st0" points="349.2,335.5 335.2,457.7 377.6,457.7 452,394.1 527.5,443 624.3,454.8 659.9,392.5 758.7,417.6 
		782.8,457.7 829.7,466.4 862,454.8 869.8,349.6 851.3,301.1 824.7,328.3 335.2,321.2 298.1,312.9 282.4,401.9 319.4,473.6 	"/>
	<path class="st0" d="M343.6,324.2c0,0,1.8-165.9,155-84"/>
	<path class="st0" d="M329.9,318.7c0,0,1.8-165.9,155-84"/>
	<polyline class="st0" points="481.8,236.2 451.8,318 329.9,318.7 	"/>
	<path class="st0" d="M659.7,224.5c0,0,165.4-66.1,162.8,93.6L711,328"/>
	<ellipse class="st0" cx="425.9" cy="123.1" rx="45.7" ry="56.7"/>
	<circle class="st0" cx="730" cy="122.2" r="51"/>
</g>
<g id="Layer_1">
	<title>header_7</title>
	<g id="Layer_2">
		<g id="Layer_1-2">
			<g id="Layer_2-2">
				<g id="Icon">
					<path class="st1" d="M694.8,525.1c-5.1,1.5-9.7,4.3-13.4,8.2c-1.4,1.6-2.5,3.3-3.4,5.2c-3.2-7.7-10.9-13.3-19.9-16
						c-12.1-3.7-29.4-4-41.6,2.6c-5.1,1.5-9.7,4.3-13.4,8.2c-1.4,1.6-2.5,3.3-3.4,5.2c-3.2-7.7-10.9-13.3-19.9-16
						c-12.1-3.7-29.4-4-41.6,2.6c-5.1,1.5-9.7,4.3-13.4,8.2c-1.4,1.6-2.5,3.3-3.4,5.2c-3.2-7.7-10.9-13.3-19.9-16
						c-12.1-3.7-29.4-4-41.6,2.6c-5.1,1.5-9.7,4.3-13.4,8.2c-1.4,1.6-2.5,3.3-3.4,5.2c-3.2-7.7-10.9-13.3-19.9-16
						c-12.1-3.7-29.4-4-41.6,2.6c-5.1,1.5-9.7,4.3-13.4,8.2c-14.1,16.1,4.5,36.5,21.2,39.2c10.5,1.7,22,0.3,32.4-1.7
						c9.4-1.8,17.5-7,21.1-16.1c0.1-0.3,0.3-0.7,0.4-1c4,9.4,14.6,17.2,24.5,18.8c10.5,1.7,22,0.3,32.4-1.7
						c9.4-1.8,17.5-7,21.1-16.1c0.1-0.3,0.3-0.7,0.4-1c4,9.4,14.6,17.2,24.5,18.8c10.5,1.7,22,0.3,32.4-1.7
						c9.4-1.8,17.5-7,21.1-16.1c0.1-0.3,0.3-0.7,0.4-1c4,9.4,14.6,17.2,24.5,18.8c10.5,1.7,22,0.3,32.4-1.7
						c9.4-1.8,17.5-7,21.1-16.1c0.1-0.3,0.3-0.7,0.4-1c4,9.4,14.6,17.2,24.5,18.8c10.5,1.7,22,0.3,32.4-1.7
						c9.4-1.8,17.5-7,21.1-16.1c6.3-15.7-5.1-27.7-19.6-32.1C724.2,518.8,707,518.5,694.8,525.1z M420.9,549.6
						c-6.3,2.8-15.5,2.6-22.3,3c-5.5,0.3-11.7,0.3-15.5-4.5c-1.6-1.9-1.6-3.5-0.8-4.8c6.5-1.5,12.6-3.8,19.6-3.4
						c1.6,0.1,3.4,0.3,4.9,0.5c1.2,0.1,5.5,0.8,2.4,0.4c2,0.3,4,0.7,6,1.1c1.1,0.3,2.2,0.6,3.2,0.9c0,0,2.2,0.8,2,0.7
						c1.2,0.6,2.4,1.4,3.5,2.2c-0.3,0.7-0.1,0.6,0.1,0.1l0,0C423.3,547.8,423.1,548.6,420.9,549.6z M499.1,549.6
						c-6.3,2.8-15.5,2.6-22.3,3c-5.5,0.3-11.7,0.3-15.5-4.5c-1.6-1.9-1.6-3.5-0.8-4.8c6.5-1.5,12.6-3.8,19.6-3.4
						c1.6,0.1,3.4,0.3,4.9,0.5c1.2,0.1,5.5,0.8,2.4,0.4c2,0.3,4,0.7,6,1.1c1.1,0.3,2.2,0.6,3.2,0.9c0,0,2.2,0.8,2,0.7
						c1.3,0.6,2.5,1.4,3.6,2.3c-0.3,0.7-0.1,0.6,0.1,0.1l0,0C501.6,547.9,501.4,548.6,499.1,549.6L499.1,549.6z M577.4,549.6
						c-6.3,2.8-15.5,2.6-22.3,3c-5.5,0.3-11.7,0.3-15.5-4.5c-1.6-1.9-1.6-3.5-0.8-4.8c6.5-1.5,12.6-3.8,19.6-3.4
						c1.6,0.1,3.4,0.3,4.9,0.5c1.2,0.1,5.5,0.8,2.4,0.4c2,0.3,4,0.7,6,1.1c1.1,0.3,2.2,0.6,3.2,0.9c0,0,2.2,0.8,2,0.7
						c1.2,0.6,2.4,1.4,3.5,2.2c-0.3,0.7-0.1,0.6,0.1,0.1l0,0c-0.5,2.1-0.8,2.8-3,3.9L577.4,549.6z M655.7,549.6
						c-6.3,2.8-15.5,2.6-22.3,3c-5.5,0.3-11.7,0.3-15.5-4.5c-1.6-1.9-1.6-3.5-0.8-4.8c6.5-1.5,12.6-3.8,19.6-3.4
						c1.6,0.1,3.4,0.3,4.9,0.5c1.2,0.1,5.5,0.8,2.4,0.4c2,0.3,4,0.7,6,1.1c1.1,0.3,2.2,0.6,3.2,0.9c0,0,2.2,0.8,2,0.7
						c1.2,0.6,2.4,1.4,3.5,2.2c-0.3,0.7-0.1,0.6,0.1,0.1l0,0c-0.6,2.1-0.8,2.8-3,3.9L655.7,549.6z M737,545.7L737,545.7
						c-0.6,2.1-0.8,2.8-3.1,3.8c-6.3,2.8-15.5,2.6-22.3,3c-5.5,0.3-11.7,0.3-15.5-4.5c-1.6-1.9-1.6-3.5-0.8-4.8
						c6.5-1.5,12.6-3.8,19.6-3.4c1.6,0.1,3.4,0.3,4.9,0.5c1.2,0.1,5.5,0.8,2.4,0.4c2,0.3,4,0.7,6,1.1c1.1,0.3,2.2,0.6,3.2,0.9
						c0,0,2.2,0.8,2,0.7c1.2,0.6,2.4,1.4,3.5,2.2C736.5,546.3,736.7,546.2,737,545.7L737,545.7z"/>
					<path class="st1" d="M428.6,520.3c10.5,1.7,22,0.3,32.4-1.7c9.4-1.8,17.5-7,21.1-16.1c0.1-0.3,0.3-0.7,0.4-1
						c4,9.4,14.6,17.2,24.5,18.8c10.5,1.7,22,0.3,32.4-1.7c9.4-1.8,17.5-7,21.1-16.1c0.1-0.3,0.3-0.7,0.4-1
						c4,9.4,14.6,17.2,24.5,18.8c10.5,1.7,22,0.3,32.4-1.7c9.4-1.8,17.5-7,21.1-16.1c0.1-0.3,0.3-0.7,0.4-1
						c4,9.4,14.6,17.2,24.5,18.8c10.5,1.7,22,0.3,32.4-1.7c9.4-1.8,17.5-7,21.1-16.1c6.3-15.8-5.2-27.8-19.6-32.2
						c-12.1-3.7-29.4-4-41.6,2.6c-5.1,1.5-9.7,4.3-13.4,8.2c-1.4,1.5-2.5,3.2-3.4,5.1c-3.2-7.7-10.9-13.3-19.9-16
						c-12.1-3.7-29.4-4-41.6,2.6c-5.1,1.5-9.7,4.3-13.4,8.2c-1.4,1.6-2.5,3.3-3.4,5.2c-3.2-7.7-10.9-13.3-19.9-16
						c-12.1-3.7-29.4-4-41.6,2.6c-5.1,1.5-9.7,4.3-13.4,8.2c-1.4,1.6-2.5,3.3-3.4,5.2c-3.2-7.7-10.9-13.3-19.9-16
						c-12.1-3.7-29.4-4-41.6,2.6c-5.1,1.5-9.7,4.3-13.4,8.2C393.3,497.3,411.9,517.7,428.6,520.3z M656.2,491.2
						c6.5-1.5,12.6-3.8,19.6-3.4c1.6,0.1,3.4,0.3,4.9,0.5c1.2,0.1,5.5,0.8,2.4,0.4c2,0.3,4,0.7,6,1.1c1.1,0.3,2.2,0.6,3.2,0.9
						c0,0,2.2,0.8,2,0.7c1.2,0.6,2.4,1.4,3.5,2.2c-0.3,0.7-0.1,0.6,0.1,0.1l0,0c-0.6,2.1-0.8,2.8-3.1,3.8c-6.3,2.8-15.5,2.6-22.3,3
						c-5.5,0.3-11.7,0.3-15.5-4.5C655.5,493.9,655.4,492.4,656.2,491.2L656.2,491.2z M577.9,491.2c6.5-1.5,12.6-3.8,19.6-3.4
						c1.6,0.1,3.4,0.3,4.9,0.5c1.2,0.1,5.5,0.8,2.4,0.4c2,0.3,4,0.7,6,1.1c1.1,0.3,2.2,0.6,3.2,0.9c0,0,2.2,0.8,2,0.7
						c1.2,0.6,2.4,1.4,3.5,2.2c-0.3,0.7-0.1,0.6,0.1,0.1l0,0c-0.6,2.1-0.8,2.8-3.1,3.8c-6.3,2.8-15.5,2.6-22.3,3
						c-5.5,0.3-11.7,0.3-15.5-4.5C577.2,493.9,577.2,492.4,577.9,491.2L577.9,491.2z M499.7,491.2c6.5-1.5,12.6-3.8,19.6-3.4
						c1.6,0.1,3.4,0.3,4.9,0.5c1.2,0.1,5.5,0.8,2.4,0.4c2,0.3,4,0.7,6,1.1c1.1,0.3,2.2,0.6,3.2,0.9c0,0,2.2,0.8,2,0.7
						c1.2,0.6,2.4,1.4,3.5,2.2c-0.3,0.7-0.1,0.6,0.1,0.1l0,0c-0.6,2.1-0.8,2.8-3.1,3.8c-6.3,2.8-15.5,2.6-22.3,3
						c-5.5,0.3-11.7,0.3-15.5-4.5C498.9,493.9,498.9,492.4,499.7,491.2L499.7,491.2z M421.4,491.2c6.5-1.5,12.6-3.8,19.6-3.4
						c1.6,0.1,3.4,0.3,4.9,0.5c1.2,0.1,5.5,0.8,2.4,0.4c2,0.3,4,0.7,6,1.1c1.1,0.3,2.2,0.6,3.2,0.9c0,0,2.2,0.8,2,0.7
						c1.2,0.6,2.4,1.4,3.5,2.2c-0.3,0.7-0.1,0.6,0.1,0.1l0,0c-0.6,2.1-0.8,2.8-3.1,3.8c-6.3,2.8-15.5,2.6-22.3,3
						c-5.5,0.3-11.7,0.3-15.5-4.5C420.7,493.9,420.6,492.4,421.4,491.2L421.4,491.2z"/>
					<path class="st2" d="M880.5,381.6c-4.3-8.1-14.7-13.1-24.1-12.2c-0.5-8.1-1.5-16.1-2.9-24.1v-3c0.1-17.7-3.9-42.4-22.7-49.8
						c-18.4-7.2-31.7,9-37.8,24.6c-14,0-28.1-0.3-42.1-0.5l-6.9-0.1l0.1-0.8c-1.3,0.1-2.6,0.2-3.9,0.2c-0.9,0-1.8,0-2.6-0.1
						c-1.7,0.3-3.4,0.4-5.1,0.4c-2.1,0-4.2-0.2-6.2-0.5c-1.3,0.1-2.6,0.2-3.9,0.2h-0.4v0.3l-75.1-0.9l-129-1.6
						c-39.8-0.5-79.6-1.2-119.3-1.3l-18.2-0.1l0.1-0.5c-1.8,0.3-3.7,0.4-5.6,0.4c-1.6,0-3.2-0.1-4.8-0.3v0.3h-32.7
						c-2.3,0-4.6-0.1-6.8,0l-1.2,0.2c0.9-0.1,0.2,0-0.1,0l-0.7,0.1l-0.5,0.1l0.5-0.1l-0.8,0.1l-2.6,0.3l-1.5,0.2
						c-4.4-10.1-11.1-18.7-22.1-21.6c-25.6-6.9-35.6,24.8-36.9,44c-0.2,3.2-0.3,6.4-0.4,9.7c-0.7,3.6-1.2,7.3-1.7,11.1
						c-1.9-0.5-3.9-0.7-5.9-0.7c-8.2,0.3-16.1,5.1-19,12.9c-6.8,17.8,6.4,35,23.9,37.3c0.6,15.5,2.1,31.4,5.7,46.4
						c3.5,14.4,12.1,31,29.3,30.3c12.9-0.5,20.8-10.3,25.2-21.3c1.9,0.6,3.9,1,6,1.3c3.4,0.4,6.9,0.8,10.3,1.1
						c-2.5,7.6-4.9,15.2-7.5,22.7c-4.8,13.9-9.6,27.8-13.2,42.1c-2.9,11.3-6.5,22.4-9.5,33.7c-1.7,5.9-3,11.9-4,17.9
						c-0.5,3.7-0.4,7.5-0.8,11.3l-5.7,0.8l-0.5,0.1l0.3-0.1l-0.3,0.1c-1.3,0.2-0.7,0.1,0,0c-1,0.2-1.9,0.4-2.9,0.7
						c1.2-0.4,0.5-1.4-1.6,0.5c0.4-0.2,0.9-0.3,1.3-0.4l0.3-0.1c-1,0.3-2,0.9-2.7,1.7l0,0c0.4-0.4,0.8-0.8,1.2-1.2l-1.1,0.4l-1,0.3
						c-3.6,1.1-5.7,4.8-4.9,8.4c-2.7,14.3-8.6,34.4,7.7,41.7c8.4,3.7,18.4,2.1,27.3,2.6c9.6,0.5,19.1,0.8,28.7,1
						c36.4,0.8,72.8,1.6,109.2,1.9c46.9,0.5,93.8,0.9,140.8,1.3l129.7,1l75.6,0.6h3.6c7.2,0,11.5-5.7,12.3-12.3c0-0.5,0.1-1,0.2-1.6
						c0.1-0.8,0.8-4.6,0.2-2c0.4-1.9,0.9-3.9,1.3-5.8c5.5-9.1,2.1-21.8,1.9-31.7c-0.1-6.4-5.5-12.5-12.2-12.2
						c-2.8,0.1-5.5,0.2-8.3,0.3c0-1.6-0.1-3.2-0.3-4.8c-0.8-5.4-1.9-10.7-3.3-16c-2.6-10.9-6.1-21.6-9.1-32.5
						c-5.9-21.6-13.1-42.5-20.3-63.6c3.9,1,7.8,1.7,11.7,2.2c4.9,0.5,9.7,0.7,14.6,1.4c3,0.5,6,1.2,9.1,1.6c1.4,1.3,3,2.5,4.7,3.5
						c15.8,9,31-2.2,37.1-16.9c6-14.6,7-31,8.2-46.6c0-0.6,0.1-1.1,0.1-1.6c0.4,0,0.8-0.1,1.2-0.2c8.2-1.7,14.8-4.3,20-11.2
						C881.4,396.7,884.3,388.8,880.5,381.6z M260.9,384.8c-1.7-0.4-3.2-1.4-4.3-2.8c-1.6-2.1-3.4-6.8-1.8-9.2
						c1.4-2.1,3.8-2.4,6.5-2.4C261,375.2,260.9,380,260.9,384.8L260.9,384.8z M311.1,393c-0.9,9.9-2.1,19.8-3.2,29.6
						c-0.2,2.3-0.6,4.6-0.9,6.8c-0.3,2.2-0.5,4.3-0.7,5.2c-0.7,5.4-1.8,10.7-3.4,15.9c-1.2,4-2.8,8.1-5.3,10.1
						c-0.3,0.2-0.7,0.5-1,0.6c-0.5,0.2-1.1,0.3-1.6,0.4c0.6,0-1.1-0.4-1.4-0.7c-1.3-1.2-2.4-2.7-3.2-4.3c-1.1-2.2-2-4.4-2.6-6.8
						c-3.6-12.5-4.5-25.7-5.5-38.6c-1.3-15.9-2.4-32.1-2.2-48.2c0.6-3.8,1.1-7.5,1.5-11.3c1.3-11.8,0.7-29,10.2-37.8
						s15.7,19.5,16.7,24.4C312.5,356.6,312.7,374.6,311.1,393L311.1,393z M799.9,611.8c0,0.4,0.1,0.8,0.1,1.2
						c0.2,2.4,0.4,4.8,0.7,7.2c0.1,0.6,0.1,1.3,0.2,1.9c0,0.6-0.2,1.2-0.4,1.8c-0.3,1.4-0.7,2.8-1,4.2c-18.4-0.2-36.8-0.3-55.2-0.4
						l-121.2-1c-46.5-0.4-93-0.8-139.4-1.1c-38.7-0.3-77.4-0.4-116.1-0.1c-12.3,0.1-24.7,0.1-37,0.4c-3.7,0.1-7.4,0.2-11,0.3
						c-3.2,0.1-6.3,0.4-9.4,0.7c-2.9,0.4-5.8,0.6-8.7,0.6c-0.7,0-1.4-0.1-2.1-0.2l0,0c-1.6-2.6-0.4-8.1-0.3-11.1
						c0.1-2.1,0.1-4.1,0-6.1l3.7,0.5c12.4,1.8,25.3,1.4,37.8,1.6c39.2,0.7,78.3,0.8,117.5,0.8c48.3,0,96.6-0.1,144.8-0.2
						c43.5-0.1,87-0.2,130.5-0.4C755.6,612.2,777.8,612.2,799.9,611.8z M772.6,538.4c3.6,10.6,7.2,21.3,11.5,31.6
						c2.2,5.2,4.2,10.4,6.8,15.3c0.4,0.8,0.9,1.6,1.3,2.3c-15.3,0.2-30.7,0.1-46,0.2c-42,0.2-83.9,0.4-125.9,0.5
						c-48.4,0.1-96.9,0.2-145.3,0.3c-41.1,0-82.1,0.1-123.2,0.8c-13.4,0.2-26.7,0.4-40.1,0.9c0.7-1,1.4-2,2-3.1
						c2.4-4.3,4.4-8.8,6.2-13.5c4-9.5,7.4-19.1,10.8-28.8c8.4-23.6,16-47.3,24.5-70.8c7.6-21.1,13.9-43.8,33.5-57.1
						c10.4-7.1,22-9.3,34.1-11.8c14-2.9,28.8-5.6,43.2-3.4c9.8,1.5,16.8,7.2,21.5,15.8c5.6,10.1,5,20.7,7.4,31.6
						c1.1,5,5.6,7.6,10.2,7.7c6.2,2.5,13.5,2.4,20,2.4c8.6,0,17.2,0,25.8-0.1c16.4-0.3,32.7-1.2,49.1-1.1c8.4,0,12.1-7.2,11.2-13.6
						c1.2-8,1.5-15.8,4.9-23.5c3.3-7.5,8.7-14.3,16.5-17.5c11.7-4.6,26.8-2.4,38.8-0.4c12.5,2.2,26.6,3.9,38,9.8
						c20.4,10.5,29.4,29.8,36.7,50.5C755.2,488.2,763.9,513.3,772.6,538.4L772.6,538.4z M781.8,452.9c-6.1-0.1-12.1-1.2-18-0.8
						l-0.6-1.9c-7.8-23.8-22.3-46.3-45.7-57.3c-13.7-6.5-29.5-9.2-44.5-11.5c-14.9-2.3-32-4.1-46.6,1.2
						c-12.4,4.6-22.6,13.8-28.4,25.7c-4.3,8.2-7.1,17.1-8.4,26.3c-12.8,0.3-25.6,0.8-38.4,1.7c-8.2,0.6-16.5,1.3-24.7,1.8
						c-3.2,0.2-6.6,0.3-9.9,0.6c-0.4-9.1-3.4-18.3-6.9-26.3c-4.6-10.7-12.1-20.3-22.3-26.2c-12.7-7.3-28.6-7.6-42.8-6.3
						c-15.3,1.5-32,4.1-46.6,9.1c-24.9,8.5-42.3,28.3-52.1,52.2c-0.3,0.8-0.7,1.7-1,2.5c-5.9-0.3-12.6-0.8-18.7-0.2
						c0.6-3.5,1-7,1.5-10.5c0.2-1.2,0.3-2.4,0.5-3.6l0.1-0.6l0.1-0.5c0.9-6.3,1.4-12.6,2.2-18.9c1.4-12.1,2.7-24.3,3-36.6
						c0.3-11.3-1.3-22.9-3.2-34.1c-0.3-1.6-0.6-3.4-0.9-5.1c0.4,0,0.8,0.1,1.2,0.1c4.8,0.3,9.6,0.2,14.3,0.4
						c13.7,0.3,27.3,0.6,41,0.8c38.3,0.7,76.6,1.1,115,1.5l129.8,1.5l109.7,1.3c15.4,0.2,31,0.9,46.5,0.8
						c-2.8,16.6-3.4,33.6-1.8,50.4c1.1,12.4,2.4,25,4,37.3c0.1,0.5,0.1,0.8,0.1,0.8v0.1c0.2,1.3,0.3,2.7,0.5,4
						c0.5,3.6,1,7.3,1.6,10.9c0.5,2.8,1.1,5.8,1.8,8.7C789.5,452.6,785.7,453,781.8,452.9L781.8,452.9z M836.3,396.7
						c-1,14.9-1.8,29.9-4.6,44.6c-1,5-2.1,10.4-4.3,14.8c-1.2,2.5-1.9,3.6-3.6,5.1c0.1-0.1-1.3,0.4-1.5,0.4
						c-0.8-0.1-1.6-0.4-2.3-0.9c-0.4-0.5-0.8-0.9-1.2-1.3c-0.6-0.9-1.2-1.9-1.8-2.9c-1.7-3.2-3.2-8.7-4.2-13.2
						c-2.4-11.2-3.2-22.2-4.6-34.9c-2.2-19.2-3.8-38.1-1.4-57.4c1-8.6,2.8-17,5.3-25.2c1.2-4,4.5-13.2,9.6-13.7
						c4.6-0.6,8.4,7.9,9.6,11.4c2.5,7.4,3.2,15.2,4,22.9c0.6,5.5,1.4,11,2.2,16.5C837.6,374.2,837.1,385.6,836.3,396.7L836.3,396.7z
						 M859.5,391.5c-0.8,0.6-1.7,1.1-2.7,1.3c0-2.1,0.1-4.1,0.1-6.2c1.5,1,3.2,2,4.2,2.7C860.7,390.2,860.2,390.9,859.5,391.5
						L859.5,391.5z"/>
					<path class="st1" d="M424,545.7L424,545.7c0.1-0.1,0.1-0.2,0.1-0.3L424,545.7z"/>
					<path class="st1" d="M502.2,545.7L502.2,545.7c0.1-0.1,0.1-0.2,0.1-0.3L502.2,545.7z"/>
					<path class="st1" d="M580.5,545.7L580.5,545.7c0.1-0.1,0.1-0.2,0.1-0.3L580.5,545.7z"/>
					<path class="st1" d="M658.8,545.7L658.8,545.7c0.1-0.1,0.1-0.2,0.1-0.3L658.8,545.7z"/>
					<path class="st1" d="M737.2,545.3l-0.1,0.4l0,0C737.1,545.5,737.2,545.4,737.2,545.3z"/>
					<path class="st1" d="M698.1,493.1l-0.1,0.4l0,0C698,493.4,698,493.3,698.1,493.1z"/>
					<path class="st1" d="M619.8,493.1l-0.1,0.4l0,0C619.7,493.4,619.8,493.3,619.8,493.1z"/>
					<path class="st1" d="M541.5,493.1l-0.1,0.4l0,0C541.5,493.4,541.5,493.3,541.5,493.1z"/>
					<path class="st1" d="M463.3,493.1l-0.1,0.4l0,0C463.2,493.4,463.2,493.3,463.3,493.1z"/>
					<polygon class="st1" points="329.2,312.5 328.5,312.6 328.4,312.6 328.4,312.6 					"/>
					<g id="Layer_2-2-2">
						<g id="Layer_1-2-2">
							<path class="st2" d="M714.2,188.3c35.4,0,64-28.7,64-64s-28.7-64-64-64s-64,28.7-64,64l0,0
								C650.2,159.6,678.9,188.3,714.2,188.3z M714.2,83.1c22.7,0,41.2,18.4,41.2,41.2s-18.4,41.2-41.2,41.2
								c-22.7,0-41.2-18.4-41.2-41.1C673.1,101.5,691.5,83.1,714.2,83.1C714.2,83.1,714.2,83.1,714.2,83.1z"/>
							<path class="st2" d="M666.7,211.4c5.2,5.2,10,10.8,14.3,16.7c40.8-18.4,88.8-0.2,107.2,40.6c6.7,14.9,8.8,31.5,5.9,47.6h21.6
								c7.9-56-31.1-107.8-87.2-115.7C707.3,197.6,685.7,201.4,666.7,211.4L666.7,211.4z"/>
							<path class="st2" d="M667.3,316.4h21.3c0-70.7-57.3-128.1-128.1-128.1c-70.7,0-128.1,57.3-128.1,128.1h21.3
								c-0.6-58.9,46.7-107.2,105.6-107.9s107.2,46.7,107.9,105.6C667.3,314.9,667.3,315.6,667.3,316.4z"/>
							<path class="st2" d="M560.6,167c41.3,0,74.7-33.4,74.7-74.7s-33.4-74.7-74.7-74.7c-41.3,0-74.7,33.4-74.7,74.7l0,0
								C485.9,133.6,519.3,167,560.6,167z M560.6,37.6c30.2,0,54.7,24.5,54.7,54.7S590.8,147,560.6,147c-30.2,0-54.7-24.5-54.7-54.7
								l0,0C505.9,62.1,530.4,37.6,560.6,37.6C560.6,37.6,560.6,37.6,560.6,37.6z"/>
							<path class="st2" d="M327.1,316.4c-7.9-44.1,21.5-86.2,65.5-94c16-2.9,32.6-0.8,47.4,5.8c4.4-5.9,9.2-11.5,14.3-16.7
								c-50.1-26.3-111.9-7-138.2,43c-10,19-13.7,40.7-10.7,61.9H327.1z"/>
							<path class="st2" d="M406.9,188.3c35.4,0,64-28.7,64-64s-28.7-64-64-64s-64,28.7-64,64l0,0
								C342.8,159.6,371.5,188.3,406.9,188.3z M406.9,83.1c22.7,0,41.2,18.3,41.3,41.1c0,22.7-18.3,41.2-41.1,41.3
								c-22.7,0-41.2-18.3-41.3-41.1c0,0,0,0,0,0v-0.1C365.8,101.6,384.2,83.2,406.9,83.1L406.9,83.1z"/>
						</g>
					</g>
				</g>
			</g>
			<g id="Layer_2-3">
				<g id="Icon-2">
					<path class="st3" d="M716.5,523.1c-5.2,1.5-9.9,4.3-13.6,8.3c-1.4,1.6-2.5,3.3-3.4,5.3c-3.2-7.8-11.1-13.4-20.1-16.2
						c-12.3-3.7-29.8-4-42.1,2.7c-5.2,1.5-9.9,4.3-13.6,8.3c-1.4,1.6-2.5,3.3-3.4,5.3c-3.2-7.8-11.1-13.4-20.1-16.2
						c-12.3-3.7-29.8-4-42.1,2.7c-5.2,1.5-9.9,4.3-13.6,8.3c-1.4,1.6-2.5,3.3-3.4,5.3c-3.2-7.8-11.1-13.4-20.1-16.2
						c-12.3-3.7-29.8-4-42.1,2.7c-5.2,1.5-9.9,4.3-13.6,8.3c-1.4,1.6-2.5,3.3-3.4,5.3c-3.2-7.8-11.1-13.4-20.1-16.2
						c-12.3-3.7-29.8-4-42.1,2.7c-5.2,1.5-9.9,4.3-13.6,8.3c-14.3,16.3,4.5,37,21.4,39.7c10.7,1.7,22.2,0.3,32.8-1.7
						c9.5-1.8,17.7-7.1,21.3-16.3c0.1-0.3,0.3-0.7,0.4-1c4.1,9.5,14.8,17.5,24.8,19c10.7,1.7,22.2,0.3,32.8-1.7
						c9.5-1.8,17.7-7.1,21.3-16.3c0.1-0.3,0.3-0.7,0.4-1c4.1,9.5,14.8,17.5,24.8,19c10.7,1.7,22.2,0.3,32.8-1.7
						c9.5-1.8,17.7-7.1,21.3-16.3c0.1-0.3,0.3-0.7,0.4-1c4.1,9.5,14.8,17.5,24.8,19c10.7,1.7,22.2,0.3,32.8-1.7
						c9.5-1.8,17.7-7.1,21.3-16.3c0.1-0.3,0.3-0.7,0.4-1c4.1,9.5,14.8,17.5,24.8,19c10.7,1.7,22.2,0.3,32.8-1.7
						c9.5-1.8,17.7-7.1,21.3-16.3c6.3-15.9-5.2-28-19.9-32.5C746.3,516.7,728.8,516.4,716.5,523.1z M439.3,547.9
						c-6.3,2.9-15.7,2.6-22.5,3c-5.6,0.3-11.9,0.3-15.7-4.5c-1.6-2-1.6-3.5-0.8-4.9c6.6-1.5,12.7-3.8,19.8-3.5
						c1.6,0.1,3.4,0.3,4.9,0.5c1.2,0.1,5.6,0.9,2.4,0.4c2,0.3,4,0.7,6,1.1c1.1,0.3,2.2,0.6,3.3,0.9c0,0,2.2,0.8,2,0.7
						c1.2,0.6,2.4,1.4,3.5,2.2c-0.3,0.7-0.1,0.6,0.1,0.1l0,0C441.8,546.1,441.6,546.8,439.3,547.9z M518.5,547.9
						c-6.3,2.9-15.7,2.6-22.5,3c-5.6,0.3-11.9,0.3-15.7-4.5c-1.6-2-1.6-3.5-0.8-4.9c6.6-1.5,12.7-3.8,19.8-3.5
						c1.6,0.1,3.4,0.3,4.9,0.5c1.2,0.1,5.6,0.9,2.4,0.4c2,0.3,4,0.7,6,1.1c1.1,0.3,2.2,0.6,3.3,0.9c0,0,2.2,0.8,2,0.7
						c1.2,0.6,2.4,1.4,3.5,2.2c-0.3,0.7-0.1,0.6,0.1,0.1l0,0C521,546.1,520.8,546.8,518.5,547.9L518.5,547.9z M597.7,547.9
						c-6.3,2.9-15.7,2.6-22.5,3c-5.6,0.3-11.9,0.3-15.7-4.5c-1.6-2-1.6-3.5-0.8-4.9c6.6-1.5,12.7-3.8,19.8-3.5
						c1.6,0.1,3.4,0.3,4.9,0.5c1.2,0.1,5.6,0.9,2.4,0.4c2,0.3,4,0.7,6,1.1c1.1,0.3,2.2,0.6,3.3,0.9c0,0,2.2,0.8,2,0.7
						c1.2,0.6,2.4,1.4,3.5,2.2c-0.3,0.7-0.1,0.6,0.1,0.1l0,0C600.3,546.1,600,546.8,597.7,547.9L597.7,547.9z M676.9,547.9
						c-6.3,2.9-15.7,2.6-22.5,3c-5.6,0.3-11.9,0.3-15.7-4.5c-1.6-2-1.6-3.5-0.8-4.9c6.6-1.5,12.7-3.8,19.8-3.5
						c1.6,0.1,3.4,0.3,4.9,0.5c1.2,0.1,5.6,0.9,2.4,0.4c2,0.3,4,0.7,6,1.1c1.1,0.3,2.2,0.6,3.3,0.9c0,0,2.2,0.8,2,0.7
						c1.2,0.6,2.4,1.4,3.5,2.2c-0.3,0.7-0.1,0.6,0.1,0.1l0,0C679.4,546.1,679.2,546.8,676.9,547.9L676.9,547.9z M759.2,544
						L759.2,544c-0.6,2.1-0.8,2.8-3.1,3.9c-6.3,2.9-15.7,2.6-22.5,3c-5.6,0.3-11.9,0.3-15.7-4.5c-1.6-2-1.6-3.5-0.8-4.9
						c6.6-1.5,12.7-3.8,19.8-3.5c1.6,0.1,3.4,0.3,4.9,0.5c1.2,0.1,5.6,0.9,2.4,0.4c2,0.3,4,0.7,6,1.1c1.1,0.3,2.2,0.6,3.3,0.9
						c0,0,2.2,0.8,2,0.7c1.2,0.6,2.4,1.4,3.5,2.2C758.7,544.6,758.9,544.4,759.2,544L759.2,544z"/>
					<path class="st3" d="M447.2,518.2c10.7,1.7,22.2,0.3,32.8-1.7c9.5-1.8,17.7-7.1,21.3-16.3c0.1-0.3,0.3-0.7,0.4-1
						c4.1,9.5,14.8,17.5,24.8,19c10.7,1.7,22.2,0.3,32.8-1.7c9.5-1.8,17.7-7.1,21.3-16.3c0.1-0.3,0.3-0.7,0.4-1
						c4.1,9.5,14.8,17.5,24.8,19c10.7,1.7,22.2,0.3,32.8-1.7c9.5-1.8,17.7-7.1,21.3-16.3c0.1-0.3,0.3-0.7,0.4-1
						c4.1,9.5,14.8,17.5,24.8,19c10.7,1.7,22.2,0.3,32.8-1.7c9.5-1.8,17.7-7.1,21.3-16.3c6.3-16-5.2-28.1-19.9-32.6
						c-12.3-3.7-29.8-4-42.1,2.7c-5.2,1.5-9.9,4.3-13.6,8.3c-1.4,1.6-2.5,3.3-3.4,5.3c-3.2-7.8-11.1-13.4-20.1-16.2
						c-12.3-3.7-29.8-4-42.1,2.7c-5.2,1.5-9.9,4.3-13.6,8.3c-1.4,1.6-2.5,3.3-3.4,5.3c-3.2-7.8-11.1-13.4-20.1-16.2
						c-12.3-3.7-29.8-4-42.1,2.7c-5.2,1.5-9.9,4.3-13.6,8.3c-1.4,1.6-2.5,3.3-3.4,5.3c-3.2-7.8-11.1-13.4-20.1-16.2
						c-12.3-3.7-29.8-4-42.1,2.7c-5.2,1.5-9.9,4.3-13.6,8.3C411.5,494.9,430.3,515.6,447.2,518.2z M677.4,488.8
						c6.6-1.5,12.7-3.8,19.8-3.5c1.6,0.1,3.4,0.3,4.9,0.5c1.2,0.1,5.6,0.9,2.4,0.4c2,0.3,4,0.7,6,1.1c1.1,0.3,2.2,0.6,3.3,0.9
						c0,0,2.2,0.8,2,0.7c1.2,0.6,2.4,1.4,3.5,2.2c-0.3,0.7-0.1,0.6,0.1,0.1l0,0c-0.6,2.1-0.8,2.8-3.1,3.9c-6.3,2.9-15.7,2.6-22.5,3
						c-5.6,0.3-11.9,0.3-15.7-4.5C676.7,491.5,676.6,490,677.4,488.8L677.4,488.8z M598.2,488.8c6.6-1.5,12.7-3.8,19.8-3.5
						c1.6,0.1,3.4,0.3,4.9,0.5c1.2,0.1,5.6,0.9,2.4,0.4c2,0.3,4,0.7,6,1.1c1.1,0.3,2.2,0.6,3.3,0.9c0,0,2.2,0.8,2,0.7
						c1.2,0.6,2.4,1.4,3.5,2.2c-0.3,0.7-0.1,0.6,0.1,0.1l0,0c-0.6,2.1-0.8,2.8-3.1,3.9c-6.3,2.9-15.7,2.6-22.5,3
						c-5.6,0.3-11.9,0.3-15.7-4.5C597.5,491.5,597.5,490,598.2,488.8z M519.1,488.8c6.6-1.5,12.7-3.8,19.8-3.5
						c1.6,0.1,3.4,0.3,4.9,0.5c1.2,0.1,5.6,0.9,2.4,0.4c2,0.3,4,0.7,6,1.1c1.1,0.3,2.2,0.6,3.3,0.9c0,0,2.2,0.8,2,0.7
						c1.2,0.6,2.4,1.4,3.5,2.2c-0.3,0.7-0.1,0.6,0.1,0.1l0,0c-0.6,2.1-0.8,2.8-3.1,3.9c-6.3,2.9-15.7,2.6-22.5,3
						c-5.6,0.3-11.9,0.3-15.7-4.5C518.3,491.5,518.3,490,519.1,488.8L519.1,488.8z M439.9,488.8c6.6-1.5,12.7-3.8,19.8-3.5
						c1.6,0.1,3.4,0.3,4.9,0.5c1.2,0.1,5.6,0.9,2.4,0.4c2,0.3,4,0.7,6,1.1c1.1,0.3,2.2,0.6,3.3,0.9c0,0,2.2,0.8,2,0.7
						c1.2,0.6,2.4,1.4,3.5,2.2c-0.3,0.7-0.1,0.6,0.1,0.1l0,0c-0.6,2.1-0.8,2.8-3.1,3.9c-6.3,2.9-15.7,2.6-22.5,3
						c-5.6,0.3-11.9,0.3-15.7-4.5C439.1,491.5,439.1,490,439.9,488.8z"/>
					<path class="st3" d="M904.3,377.9c-4.4-8.2-14.9-13.2-24.4-12.4c-0.5-8.2-1.5-16.3-2.9-24.4v-3.1c0.1-17.9-3.9-42.9-23-50.4
						c-18.7-7.3-32,9.1-38.3,24.9c-14.2,0-28.4-0.3-42.6-0.5l-7-0.1l0.1-0.8c-1.3,0.1-2.6,0.2-3.9,0.2c-0.9,0-1.8,0-2.7-0.1
						c-1.7,0.3-3.5,0.4-5.2,0.4c-2.1,0-4.2-0.2-6.3-0.5c-1.3,0.1-2.6,0.2-4,0.2h-0.4v0.4l-76-1l-130.6-1.6
						c-40.3-0.5-80.5-1.2-120.8-1.4l-18.4-0.1l0.1-0.5c-1.9,0.3-3.7,0.4-5.6,0.4c-1.6,0-3.2-0.1-4.9-0.3v0.3h-33
						c-2.3,0-4.6-0.1-6.9,0l-1.2,0.2c0.9-0.1,0.2,0-0.1,0l-0.7,0.1l-0.5,0.1l0.5-0.1l-0.8,0.1l-2.7,0.3l-1.6,0.2
						c-4.4-10.2-11.3-18.9-22.3-21.9c-25.9-6.9-36,25.1-37.3,44.5c-0.2,3.2-0.3,6.5-0.4,9.8c-0.7,3.7-1.2,7.4-1.7,11.2
						c-2-0.5-4-0.7-6-0.7c-8.3,0.3-16.3,5.2-19.3,13.1c-6.9,18,6.5,35.4,24.2,37.7c0.6,15.7,2.1,31.7,5.8,46.9
						c3.5,14.6,12.3,31.3,29.7,30.6c13.1-0.5,21-10.4,25.5-21.6c2,0.6,4,1.1,6,1.3c3.5,0.4,7,0.8,10.5,1.1c-2.5,7.7-5,15.4-7.6,23
						c-4.9,14.1-9.7,28.1-13.4,42.6c-2.9,11.4-6.5,22.7-9.6,34.1c-1.7,6-3,12-4,18.1c-0.5,3.8-0.4,7.6-0.8,11.4l-5.8,0.9l-0.5,0.1
						l0.3-0.1l-0.3,0.1c-1.3,0.2-0.7,0.1,0,0c-1,0.2-2,0.4-2.9,0.7c1.2-0.4,0.5-1.5-1.7,0.5c0.4-0.2,0.9-0.3,1.3-0.4l0.3-0.1
						c-1.1,0.3-2,0.9-2.8,1.7l0,0c0.4-0.4,0.8-0.8,1.2-1.2l-1.1,0.4l-1,0.3c-3.6,1.1-5.8,4.8-5,8.5c-2.7,14.4-8.7,34.8,7.8,42.1
						c8.5,3.8,18.6,2.1,27.7,2.6c9.7,0.5,19.4,0.8,29,1.1c36.9,0.8,73.6,1.6,110.4,1.9c47.5,0.5,94.9,0.9,142.4,1.4l131.2,1.1
						l76.5,0.6h3.6c7.3,0,11.6-5.7,12.4-12.4c0-0.5,0.1-1.1,0.2-1.6c0.1-0.8,0.8-4.6,0.2-2c0.4-1.9,0.9-3.9,1.3-5.9
						c5.6-9.2,2.1-22,1.9-32c-0.1-6.5-5.5-12.6-12.3-12.3c-2.8,0.1-5.6,0.2-8.4,0.3c0-1.6-0.1-3.2-0.3-4.9c-0.8-5.5-2-10.8-3.3-16.2
						c-2.7-11-6.2-21.9-9.2-32.9c-6-21.8-13.2-43-20.5-64.3c3.9,1,7.9,1.7,11.9,2.3c4.9,0.5,9.8,0.7,14.7,1.4
						c3.1,0.5,6.1,1.2,9.2,1.6c1.5,1.3,3.1,2.5,4.8,3.5c16,9.1,31.5-2.2,37.5-17.1c6-14.7,7-31.5,8.3-47.2c0-0.6,0.1-1.1,0.1-1.7
						c0.4,0,0.8-0.1,1.2-0.2c8.2-1.7,15-4.3,20.2-11.3C905.3,393.2,908.2,385.2,904.3,377.9z M277.4,381.1c-1.7-0.4-3.3-1.4-4.3-2.8
						c-1.6-2.1-3.5-6.9-1.9-9.3c1.4-2.1,3.9-2.4,6.5-2.4C277.5,371.4,277.4,376.3,277.4,381.1L277.4,381.1z M328.2,389.4
						c-1,10-2.1,20-3.2,30c-0.2,2.3-0.6,4.6-0.9,6.9c-0.3,2.3-0.5,4.3-0.7,5.3c-0.7,5.4-1.9,10.8-3.4,16.1c-1.2,4-2.8,8.2-5.3,10.2
						c-0.3,0.2-0.7,0.5-1,0.6c-0.5,0.2-1.1,0.3-1.7,0.4c0.6,0-1.1-0.4-1.4-0.7c-1.3-1.2-2.4-2.7-3.2-4.4c-1.1-2.2-2-4.5-2.6-6.8
						c-3.7-12.6-4.6-26-5.6-39c-1.3-16.1-2.4-32.5-2.2-48.8c0.6-3.8,1.1-7.6,1.6-11.5c1.3-12,0.7-29.4,10.3-38.3
						s15.9,19.7,16.9,24.7C329.7,352.5,330,370.8,328.2,389.4L328.2,389.4z M822.8,610.8c0,0.4,0.1,0.8,0.1,1.2
						c0.2,2.4,0.4,4.9,0.7,7.3c0.1,0.6,0.1,1.3,0.2,1.9c0,0.6-0.2,1.2-0.4,1.8c-0.3,1.4-0.7,2.8-1,4.2c-18.6-0.2-37.2-0.3-55.9-0.4
						l-122.6-1.1c-47-0.4-94-0.8-141.1-1.1c-39.2-0.3-78.3-0.4-117.5-0.1c-12.5,0.1-24.9,0.1-37.4,0.4c-3.7,0.1-7.4,0.2-11.2,0.3
						c-3.2,0.1-6.4,0.4-9.5,0.7c-2.9,0.4-5.9,0.6-8.8,0.6c-0.7,0-1.4,0-2.1-0.2l0,0c-1.6-2.6-0.4-8.2-0.3-11.2
						c0.1-2.1,0.1-4.1,0-6.2l3.7,0.5c12.6,1.9,25.6,1.4,38.3,1.6c39.7,0.7,79.3,0.9,118.9,0.8c48.8,0,97.7-0.1,146.5-0.2
						c44-0.1,88-0.2,132-0.4C778,611.2,800.4,611.2,822.8,610.8z M795.2,536.5c3.6,10.7,7.3,21.6,11.6,32c2.2,5.2,4.3,10.5,6.9,15.5
						c0.4,0.8,0.9,1.6,1.4,2.3c-15.5,0.2-31,0.1-46.5,0.2c-42.5,0.2-84.9,0.4-127.4,0.5c-49,0.1-98,0.2-147,0.3
						c-41.5,0-83,0.1-124.6,0.8c-13.5,0.2-27.1,0.4-40.6,0.9c0.7-1,1.4-2.1,2.1-3.2c2.4-4.4,4.5-8.9,6.3-13.6
						c4-9.6,7.5-19.4,10.9-29.1c8.5-23.8,16.1-47.9,24.7-71.6c7.7-21.3,14.1-44.3,33.9-57.8c10.5-7.2,22.2-9.4,34.5-12
						c14.2-3,29.1-5.7,43.7-3.5c9.9,1.5,17,7.3,21.8,15.9c5.7,10.2,5.1,20.9,7.5,31.9c1.1,5,5.7,7.7,10.3,7.8
						c6.3,2.5,13.6,2.4,20.3,2.4c8.7,0,17.4,0,26.1-0.1c16.6-0.3,33.1-1.2,49.7-1.1c8.5,0,12.2-7.3,11.4-13.8
						c1.2-8.1,1.5-16,4.9-23.8c3.4-7.6,8.8-14.6,16.7-17.6c11.8-4.6,27.2-2.4,39.3-0.4c12.6,2.2,26.9,3.9,38.5,9.9
						c20.6,10.6,29.8,30.2,37.1,51C777.7,485.8,786.4,511.1,795.2,536.5L795.2,536.5z M804.5,450c-6.2-0.1-12.3-1.2-18.2-0.8
						l-0.6-1.9c-7.9-24.1-22.6-46.8-46.2-58c-13.9-6.6-29.9-9.3-45-11.6c-15.1-2.3-32.4-4.1-47.2,1.2c-12.6,4.7-22.8,14-28.7,26.1
						c-4.3,8.3-7.2,17.3-8.5,26.6c-13,0.3-25.9,0.8-38.8,1.8c-8.3,0.6-16.7,1.3-25,1.8c-3.2,0.2-6.7,0.3-10,0.6
						c-0.4-9.2-3.4-18.5-6.9-26.6c-4.7-10.8-12.3-20.6-22.6-26.5c-12.8-7.4-28.9-7.8-43.3-6.4c-15.5,1.5-32.4,4.1-47.2,9.2
						c-25.2,8.6-42.8,28.6-52.7,52.8c-0.3,0.8-0.7,1.7-1,2.5c-5.9-0.3-12.7-0.8-19-0.2c0.6-3.5,1.1-7.1,1.5-10.7
						c0.2-1.2,0.3-2.4,0.5-3.6l0.1-0.6l0.1-0.5c0.9-6.4,1.5-12.7,2.2-19.1c1.4-12.3,2.7-24.6,3-37c0.3-11.5-1.3-23.2-3.2-34.5
						c-0.3-1.7-0.6-3.4-1-5.2c0.4,0,0.8,0.1,1.2,0.1c4.9,0.3,9.7,0.2,14.6,0.4c13.8,0.3,27.6,0.6,41.4,0.9
						c38.8,0.7,77.6,1.1,116.4,1.6l131.3,1.5l111,1.3c15.6,0.2,31.5,1,47.1,0.8c-2.8,16.8-3.4,34-1.9,51c1.1,12.6,2.4,25.3,4.1,37.8
						c0.1,0.5,0.1,0.8,0.1,0.8v0.1c0.2,1.4,0.3,2.7,0.5,4.1c0.5,3.6,1,7.4,1.6,11c0.5,2.9,1.1,5.8,1.9,8.8
						C812.4,449.7,808.5,450,804.5,450L804.5,450z M859.6,393.1c-1.1,15-1.8,30.2-4.7,45.1c-1,5.1-2.1,10.5-4.4,15
						c-1.2,2.5-1.9,3.6-3.6,5.1c0.1-0.1-1.3,0.4-1.6,0.4c-0.8-0.1-1.6-0.4-2.3-0.9c-0.4-0.5-0.8-0.9-1.2-1.4c-0.7-0.9-1.3-1.9-1.8-3
						c-1.8-3.2-3.2-8.7-4.2-13.4c-2.4-11.4-3.2-22.5-4.6-35.3c-2.2-19.5-3.8-38.5-1.4-58.1c1-8.6,2.8-17.2,5.4-25.5
						c1.2-4,4.6-13.3,9.7-13.9c4.7-0.6,8.5,8,9.7,11.6c2.5,7.5,3.2,15.4,4,23.2c0.6,5.6,1.4,11.1,2.2,16.7
						C861,370.4,860.5,382,859.6,393.1L859.6,393.1z M883.1,387.9c-0.8,0.6-1.8,1.1-2.7,1.4c0-2.1,0.1-4.2,0.1-6.3
						c1.5,1,3.2,2,4.3,2.7C884.3,386.5,883.8,387.3,883.1,387.9L883.1,387.9z"/>
					<path class="st3" d="M442.5,543.8L442.5,543.8c0.1-0.1,0.1-0.2,0.1-0.3L442.5,543.8z"/>
					<path class="st3" d="M521.6,543.8L521.6,543.8c0.1-0.1,0.1-0.2,0.1-0.3L521.6,543.8z"/>
					<path class="st3" d="M600.9,543.8L600.9,543.8c0.1-0.1,0.1-0.2,0.1-0.3L600.9,543.8z"/>
					<path class="st3" d="M680.1,543.8L680.1,543.8c0.1-0.1,0.1-0.2,0.1-0.3L680.1,543.8z"/>
					<path class="st3" d="M759.4,543.5l-0.1,0.4l0,0C759.3,543.7,759.3,543.6,759.4,543.5z"/>
					<path class="st3" d="M719.8,490.7l-0.1,0.4l0,0C719.7,491,719.8,490.8,719.8,490.7z"/>
					<path class="st3" d="M640.6,490.7l-0.1,0.4l0,0C640.5,491,640.6,490.8,640.6,490.7z"/>
					<path class="st3" d="M561.4,490.7l-0.1,0.4l0,0C561.3,491,561.4,490.8,561.4,490.7z"/>
					<path class="st3" d="M482.2,490.7l-0.1,0.4l0,0C482.1,491,482.2,490.8,482.2,490.7z"/>
					<path class="st3" d="M346.6,308l-0.7,0.1h-0.1L346.6,308z"/>
					<g id="Layer_2-2-3">
						<g id="Layer_1-2-3">
							<path class="st3" d="M736.1,182.3c35.8,0,64.8-29,64.8-64.8s-29-64.8-64.8-64.8c-35.8,0-64.8,29-64.8,64.8l0,0
								C671.4,153.3,700.4,182.3,736.1,182.3L736.1,182.3z M736.1,75.9c23,0,41.7,18.6,41.7,41.7c0,23-18.6,41.7-41.7,41.7
								c-23,0-41.6-18.6-41.7-41.6C694.5,94.6,713.1,75.9,736.1,75.9C736.1,75.9,736.1,75.9,736.1,75.9z"/>
							<path class="st3" d="M688.1,205.7c5.3,5.3,10.1,10.9,14.6,16.9c41.3-18.6,89.8-0.2,108.4,41.1c6.8,15.1,8.9,31.9,5.9,48.2
								h21.8c8-56.7-31.5-109.1-88.2-117C729.1,191.8,707.3,195.6,688.1,205.7L688.1,205.7z"/>
							<path class="st3" d="M688.6,311.8h21.6c-0.6-71.6-59.1-129.1-130.7-128.4c-70.7,0.6-127.8,57.8-128.4,128.4h21.6
								c-0.1-59.6,48.1-108.1,107.7-108.2c58.9-0.1,107.1,47,108.2,105.9C688.6,310.3,688.6,311.1,688.6,311.8z"/>
							<path class="st3" d="M580.7,160.8c41.7,0,75.6-33.8,75.6-75.6S622.4,9.6,580.7,9.6s-75.6,33.8-75.6,75.6v0l0,0
								C505.1,126.9,538.9,160.8,580.7,160.8z M580.7,29.9c30.5,0,55.3,24.8,55.3,55.3s-24.8,55.3-55.3,55.3
								c-30.5,0-55.3-24.8-55.3-55.3S550.1,29.9,580.7,29.9L580.7,29.9z"/>
							<path class="st3" d="M344.4,311.8c-8-44.6,21.7-87.2,66.3-95.2c16.2-2.9,33-0.8,48,5.9c4.4-6,9.3-11.7,14.6-16.9
								c-50.6-26.6-113.2-7.1-139.9,43.5c-10.1,19.2-13.9,41.2-10.9,62.7H344.4z"/>
							<path class="st3" d="M425.2,182.3c35.8,0,64.8-29,64.8-64.8s-29-64.8-64.8-64.8c-35.8,0-64.8,29-64.8,64.8l0,0
								C360.4,153.3,389.4,182.3,425.2,182.3C425.2,182.3,425.2,182.3,425.2,182.3z M425.2,75.9c23,0,41.7,18.6,41.7,41.6
								s-18.6,41.7-41.6,41.7c-23,0-41.7-18.6-41.7-41.6c0,0,0,0,0,0v-0.1C383.7,94.6,402.2,76,425.2,75.9L425.2,75.9z"/>
						</g>
					</g>
				</g>
			</g>
			<g id="Layer_2-4">
				<g id="Layer_1-2-4">
					<g>
						<text transform="matrix(1 0 0 1 569.6597 860.5889)" class="st1 st4 st5 st6">scri</text>
						<text transform="matrix(1 0 0 1 569.6597 860.5889)" class="st0 st4 st5 st6">scri</text>
						<text transform="matrix(1 0 0 1 891.5273 860.5889)" class="st1 st4 st5 st7">p</text>
						<text transform="matrix(1 0 0 1 891.5273 860.5889)" class="st0 st4 st5 st7">p</text>
						<text transform="matrix(1 0 0 1 986.7188 860.5889)" class="st1 st4 st5 st8">t</text>
						<text transform="matrix(1 0 0 1 986.7188 860.5889)" class="st0 st4 st5 st8">t</text>
						<text transform="matrix(1 0 0 1 1050.6094 860.5889)" class="st9 st4 st5 st6">s</text>
						<text transform="matrix(1 0 0 1 1050.6094 860.5889)" class="st0 st4 st5 st6">s</text>
					</g>
				</g>
			</g>
			<g id="Layer_2-5">
				<g id="Layer_1-2-5">
					<g>
						<text transform="matrix(1 0 0 1 588.7344 860.5889)" class="st10 st4 st5 st6">scri</text>
						<text transform="matrix(1 0 0 1 588.7344 860.5889)" class="st11 st4 st5 st6">scri</text>
						<text transform="matrix(1 0 0 1 910.6025 860.5889)" class="st10 st4 st5 st7">p</text>
						<text transform="matrix(1 0 0 1 910.6025 860.5889)" class="st11 st4 st5 st7">p</text>
						<text transform="matrix(1 0 0 1 1005.7832 860.5889)" class="st10 st4 st5 st8">t</text>
						<text transform="matrix(1 0 0 1 1005.7832 860.5889)" class="st11 st4 st5 st8">t</text>
						<text transform="matrix(1 0 0 1 1069.6934 860.5889)" class="st10 st4 st5 st6">s</text>
						<text transform="matrix(1 0 0 1 1069.6934 860.5889)" class="st11 st4 st5 st6">s</text>
					</g>
				</g>
			</g>
			<g id="Layer_2-6">
				<g id="Layer_1-2-6">
					<g>
						<text transform="matrix(1 3.490658e-04 -3.490658e-04 1 17.6694 859.6874)" class="st1 st4 st12 st6">f</text>
						<text transform="matrix(1 3.490658e-04 -3.490658e-04 1 17.6694 859.6874)" class="st0 st4 st12 st6">f</text>
						<text transform="matrix(1 3.490658e-04 -3.490658e-04 1 124.0859 859.7265)" class="st1 st4 st12">r</text>
						<text transform="matrix(1 3.490658e-04 -3.490658e-04 1 124.0859 859.7265)" class="st0 st4 st12">r</text>
						<text transform="matrix(1 3.490658e-04 -3.490658e-04 1 196.9897 859.7451)" class="st0 st4 st12 st6">i</text>
						<text transform="matrix(1 3.490658e-04 -3.490658e-04 1 196.9897 859.7451)" class="st13 st4 st12 st6">i</text>
						<text transform="matrix(1 3.490658e-04 -3.490658e-04 1 230.4921 859.7548)" class="st0 st4 st12">end</text>
						<text transform="matrix(1 3.490658e-04 -3.490658e-04 1 230.4921 859.7548)" class="st13 st4 st12">end</text>
					</g>
				</g>
			</g>
			<g id="Layer_2-7">
				<g id="Layer_1-2-7">
					<g>
						<text transform="matrix(1 0 0 1 41.4399 859.8223)" class="st10 st4 st12 st6">f</text>
						<text transform="matrix(1 0 0 1 41.4399 859.8223)" class="st11 st4 st12 st6">f</text>
						<text transform="matrix(1 0 0 1 147.856 859.8223)" class="st10 st4 st12">r</text>
						<text transform="matrix(1 0 0 1 147.856 859.8223)" class="st14 st4 st12">r</text>
						<text transform="matrix(1 0 0 1 220.7505 859.8223)" class="st10 st4 st12 st6">i</text>
						<text transform="matrix(1 0 0 1 220.7505 859.8223)" class="st11 st4 st12 st6">i</text>
						<text transform="matrix(1 0 0 1 254.2529 859.8223)" class="st10 st4 st12">end</text>
						<text transform="matrix(1 0 0 1 254.2529 859.8223)" class="st11 st4 st12">end</text>
					</g>
				</g>
			</g>
		</g>
	</g>
</g>
<g id="Layer_3">
</g>
</svg>
