<svg xmlns="http://www.w3.org/2000/svg" viewBox="0 0 1190.67 976.26"><defs><style>.cls-1,.cls-10,.cls-11,.cls-12,.cls-4{fill:#729f98;}.cls-13,.cls-14,.cls-15,.cls-2,.cls-7{fill:#fff;stroke:#3c7079;}.cls-10,.cls-11,.cls-12,.cls-13,.cls-14,.cls-15,.cls-2,.cls-4,.cls-7{stroke-miterlimit:10;}.cls-2{stroke-width:3px;}.cls-10,.cls-11,.cls-12,.cls-13,.cls-14,.cls-15,.cls-3,.cls-4,.cls-7{isolation:isolate;}.cls-4,.cls-7{font-size:218.62px;letter-spacing:-0.02em;}.cls-10,.cls-11,.cls-12,.cls-4{stroke:#729f98;}.cls-4{stroke-width:2.48px;}.cls-10,.cls-11,.cls-12,.cls-13,.cls-14,.cls-15,.cls-4,.cls-7{font-family:Noteworthy-Bold, Noteworthy;font-weight:700;}.cls-5{letter-spacing:-0.06em;}.cls-6{letter-spacing:-0.07em;}.cls-7{stroke-width:4.67px;}.cls-8{letter-spacing:-0.06em;}.cls-9{letter-spacing:-0.07em;}.cls-10,.cls-11,.cls-12{font-size:221px;stroke-width:1.44px;}.cls-10{letter-spacing:-0.02em;}.cls-12{letter-spacing:-0.02em;}.cls-13,.cls-14,.cls-15{font-size:221px;stroke-width:4.67px;}.cls-13{letter-spacing:-0.02em;}.cls-15{letter-spacing:-0.02em;}</style></defs><title>header_6</title><g id="Layer_2" data-name="Layer 2"><g id="Layer_1-2" data-name="Layer 1"><g id="Layer_2-2" data-name="Layer 2"><g id="Icon"><path class="cls-1" d="M698.66,532.81a30.6,30.6,0,0,0-13.8,8.42,21.79,21.79,0,0,0-3.49,5.36c-3.25-7.89-11.28-13.69-20.51-16.5-12.5-3.8-30.35-4.09-42.87,2.71a30.6,30.6,0,0,0-13.8,8.42,21.8,21.8,0,0,0-3.49,5.36c-3.25-7.89-11.28-13.69-20.51-16.5-12.5-3.8-30.35-4.09-42.87,2.71a30.6,30.6,0,0,0-13.8,8.42,21.79,21.79,0,0,0-3.49,5.36c-3.25-7.89-11.28-13.69-20.51-16.5-12.5-3.8-30.35-4.09-42.87,2.71a30.6,30.6,0,0,0-13.8,8.42,21.79,21.79,0,0,0-3.49,5.36c-3.25-7.89-11.28-13.69-20.51-16.5-12.5-3.8-30.35-4.09-42.87,2.71a30.6,30.6,0,0,0-13.8,8.42c-14.55,16.62,4.62,37.66,21.84,40.41,10.83,1.74,22.64.27,33.37-1.74,9.66-1.81,18-7.26,21.7-16.61.14-.35.26-.69.38-1,4.17,9.72,15,17.76,25.21,19.38,10.83,1.74,22.64.27,33.37-1.74,9.66-1.81,18-7.26,21.7-16.61.14-.35.26-.69.38-1,4.17,9.72,15,17.76,25.21,19.38,10.83,1.74,22.64.27,33.37-1.74,9.66-1.81,18-7.26,21.7-16.61.14-.35.26-.69.38-1,4.17,9.72,15,17.76,25.21,19.38,10.83,1.74,22.64.27,33.37-1.74,9.66-1.81,18-7.26,21.7-16.61.14-.35.26-.69.38-1,4.17,9.72,15,17.76,25.21,19.38,10.83,1.74,22.64.27,33.37-1.74,9.66-1.81,18-7.26,21.7-16.61,6.46-16.2-5.29-28.53-20.22-33.09C729,526.3,711.18,526,698.66,532.81ZM416.3,558.07c-6.46,2.93-16,2.69-23,3.07-5.67.31-12.1.3-16-4.61-1.6-2-1.66-3.6-.86-4.93,6.75-1.5,13-3.88,20.17-3.55,1.68.07,3.5.27,5,.47,1.23.15,5.69.87,2.46.37,2.07.32,4.12.67,6.16,1.16,1.12.27,2.22.59,3.31.92,0,0,2.22.83,2.07.71a22.45,22.45,0,0,1,3.57,2.28c-.31.74-.1.57.14.09h0C418.82,556.24,418.65,557,416.3,558.07Zm80.68,0c-6.46,2.93-16,2.69-23,3.07-5.67.31-12.1.3-16-4.61-1.6-2-1.66-3.6-.86-4.93,6.75-1.5,13-3.88,20.17-3.55,1.68.07,3.5.27,5,.47,1.23.15,5.69.87,2.46.37,2.07.32,4.12.67,6.16,1.16,1.12.27,2.22.59,3.31.92,0,0,2.22.83,2.07.71A22.45,22.45,0,0,1,500,554c-.31.74-.1.57.14.09h0c-.57,2.19-.78,2.91-3.13,4Zm80.68,0c-6.46,2.93-16,2.69-23,3.07-5.67.31-12.1.3-16-4.61-1.6-2-1.66-3.6-.86-4.93,6.75-1.5,13-3.88,20.17-3.55,1.68.07,3.5.27,5,.47,1.23.15,5.69.87,2.46.37,2.07.32,4.12.67,6.16,1.16,1.12.27,2.22.59,3.31.92,0,0,2.22.83,2.07.71a22.45,22.45,0,0,1,3.57,2.28c-.31.74-.1.57.14.09h0c-.52,2.19-.78,2.91-3.13,4Zm80.68,0c-6.46,2.93-16,2.69-23,3.07-5.67.31-12.1.3-16-4.61-1.6-2-1.66-3.6-.86-4.93,6.75-1.5,13-3.88,20.17-3.55,1.68.07,3.5.27,5,.47,1.23.15,5.69.87,2.46.37,2.07.32,4.12.67,6.16,1.16,1.12.27,2.22.59,3.31.92,0,0,2.22.83,2.07.71a22.45,22.45,0,0,1,3.57,2.28c-.31.74-.1.57.14.09h0c-.58,2.19-.79,2.91-3.14,4Zm83.8-4h0c-.65,2.16-.85,2.87-3.2,3.94-6.46,2.93-16,2.69-23,3.07-5.67.31-12.1.3-16-4.61-1.6-2-1.66-3.6-.86-4.93,6.75-1.5,13-3.88,20.17-3.55,1.68.07,3.5.27,5,.47,1.23.15,5.69.87,2.46.37,2.07.32,4.12.67,6.16,1.16,1.12.27,2.22.59,3.31.92,0,0,2.22.83,2.07.71a22.46,22.46,0,0,1,3.57,2.28c-.22.78,0,.6.25.12Z"/><path class="cls-1" d="M424.33,527.9c10.83,1.74,22.64.27,33.37-1.74,9.66-1.81,18-7.26,21.7-16.61.14-.35.26-.69.38-1,4.17,9.72,15,17.76,25.21,19.38,10.83,1.74,22.64.27,33.37-1.74,9.66-1.81,18-7.26,21.7-16.61.14-.35.26-.69.38-1,4.17,9.72,15,17.76,25.21,19.38,10.83,1.74,22.64.27,33.37-1.74,9.66-1.81,18-7.26,21.7-16.61.14-.35.26-.69.38-1,4.17,9.72,15,17.76,25.21,19.38,10.83,1.74,22.64.27,33.37-1.74,9.66-1.81,18-7.26,21.7-16.61,6.46-16.33-5.34-28.68-20.23-33.2-12.5-3.8-30.35-4.09-42.87,2.71a30.6,30.6,0,0,0-13.8,8.42A21.8,21.8,0,0,0,641,492.8c-3.25-7.89-11.28-13.69-20.51-16.5-12.5-3.8-30.35-4.09-42.87,2.71a30.6,30.6,0,0,0-13.8,8.42,21.8,21.8,0,0,0-3.49,5.36c-3.25-7.89-11.28-13.69-20.51-16.5-12.5-3.8-30.35-4.09-42.87,2.71a30.6,30.6,0,0,0-13.8,8.42,21.8,21.8,0,0,0-3.49,5.36c-3.25-7.89-11.28-13.69-20.51-16.5-12.5-3.8-30.35-4.09-42.87,2.71a30.6,30.6,0,0,0-13.8,8.42C387.94,504.12,407.12,525.15,424.33,527.9Zm234.55-30c6.75-1.5,13-3.88,20.17-3.55,1.68.07,3.5.27,5,.47,1.23.15,5.69.87,2.46.37,2.07.32,4.12.67,6.16,1.16,1.12.27,2.22.59,3.31.92,0,0,2.22.83,2.07.71a22.44,22.44,0,0,1,3.57,2.28c-.31.74-.1.57.14.09h0c-.65,2.16-.85,2.87-3.2,3.94-6.46,2.93-16,2.69-23,3.07-5.67.31-12.1.31-16-4.61C658.13,500.69,658.07,499.14,658.88,497.88Zm-80.68,0c6.75-1.5,13-3.88,20.17-3.55,1.68.07,3.5.27,5,.47,1.23.15,5.69.87,2.46.37,2.07.32,4.12.67,6.16,1.16,1.12.27,2.22.59,3.31.92,0,0,2.22.83,2.07.71a22.44,22.44,0,0,1,3.57,2.28c-.31.74-.1.57.14.09h0c-.65,2.16-.85,2.87-3.2,3.94-6.46,2.93-16,2.69-23,3.07-5.67.31-12.1.31-16-4.61C577.46,500.69,577.4,499.14,578.2,497.88Zm-80.67,0c6.75-1.5,13-3.88,20.17-3.55,1.68.07,3.5.27,5,.47,1.23.15,5.69.87,2.46.37,2.07.32,4.12.67,6.16,1.16,1.12.27,2.22.59,3.31.92,0,0,2.22.83,2.07.71a22.44,22.44,0,0,1,3.57,2.28c-.31.74-.1.57.14.09h0c-.65,2.16-.85,2.87-3.2,3.94-6.46,2.93-16,2.69-23,3.07-5.67.31-12.1.31-16-4.61C496.78,500.69,496.72,499.14,497.53,497.88Zm-80.68,0c6.75-1.5,13-3.88,20.17-3.55,1.68.07,3.5.27,5,.47,1.23.15,5.69.87,2.46.37,2.07.32,4.12.67,6.16,1.16,1.12.27,2.22.59,3.31.92,0,0,2.22.83,2.07.71a22.44,22.44,0,0,1,3.57,2.28c-.31.74-.1.57.14.09h0c-.65,2.16-.85,2.87-3.2,3.94-6.46,2.93-16,2.69-23,3.07-5.67.31-12.1.31-16-4.61C416.11,500.69,416.05,499.14,416.85,497.88Z"/><path class="cls-1" d="M890,384.92c-4.45-8.34-15.16-13.47-24.81-12.58a210,210,0,0,0-3-24.81V344.4c.06-18.26-4-43.71-23.41-51.3-19-7.39-32.63,9.29-39,25.36-14.47,0-28.93-.35-43.39-.52l-7.16-.09.07-.84a37,37,0,0,1-4,.21,24.92,24.92,0,0,1-2.72-.1,36.9,36.9,0,0,1-5.29.41,40,40,0,0,1-6.42-.53,37,37,0,0,1-4.05.22h-.41v.36L649,316.64,516,315c-41-.49-82-1.23-123-1.38l-18.72-.1.12-.55a37.28,37.28,0,0,1-5.73.46,40.67,40.67,0,0,1-4.93-.3v.36H330c-2.33,0-4.71-.14-7,0l-1.23.17c.9-.12.22,0-.15,0l-.69.09-.55.09.53-.07-.78.1-2.72.33-1.59.22c-4.5-10.39-11.47-19.27-22.74-22.28-26.4-7.07-36.72,25.61-38,45.32-.22,3.3-.32,6.63-.38,10-.71,3.76-1.23,7.57-1.73,11.39a25.74,25.74,0,0,0-6.08-.71c-8.49.32-16.57,5.25-19.62,13.33-7,18.39,6.62,36.11,24.65,38.42.65,16,2.13,32.34,5.88,47.78,3.6,14.85,12.5,31.92,30.2,31.21,13.31-.52,21.41-10.63,26-22a33.05,33.05,0,0,0,6.16,1.32c3.52.41,7.09.8,10.66,1.12-2.58,7.81-5.05,15.68-7.71,23.41-4.93,14.33-9.86,28.69-13.64,43.38-3,11.66-6.67,23.12-9.77,34.75a160.73,160.73,0,0,0-4.12,18.48c-.55,3.86-.46,7.76-.85,11.61l-5.87.87-.49.07.36-.07-.36.07c-1.32.2-.73.15,0,0-1,.23-2,.39-3,.69,1.23-.42.52-1.49-1.7.48a8.69,8.69,0,0,1,1.34-.38l.26-.06a6.25,6.25,0,0,0-2.82,1.71h0a14.11,14.11,0,0,1,1.23-1.23l-1.16.42-1,.33a7.39,7.39,0,0,0-5.05,8.7c-2.74,14.69-8.85,35.47,7.92,42.93,8.63,3.86,18.94,2.18,28.17,2.69,9.86.53,19.72.86,29.58,1.08,37.51.84,75,1.63,112.51,2q72.53.75,145.07,1.38l133.66,1.08,77.92.59h3.7c7.39,0,11.87-5.83,12.64-12.64a14.44,14.44,0,0,1,.17-1.6c.09-.85.78-4.73.18-2.07.44-2,.9-4,1.33-6,5.68-9.38,2.16-22.45,2-32.63-.12-6.58-5.66-12.84-12.56-12.56q-4.28.17-8.56.3a43.85,43.85,0,0,0-.36-4.93c-.81-5.58-2-11-3.35-16.48-2.71-11.25-6.3-22.3-9.33-33.47-6.09-22.22-13.48-43.85-20.88-65.53A109.38,109.38,0,0,0,788.34,479c5,.55,10,.68,15,1.44,3.14.48,6.22,1.23,9.38,1.64a27.19,27.19,0,0,0,4.86,3.56c16.28,9.25,32-2.24,38.2-17.42,6.16-15,7.17-32,8.48-48.06,0-.57.09-1.13.14-1.7a11.63,11.63,0,0,0,1.23-.18c8.4-1.75,15.26-4.41,20.59-11.56C891,400.5,893.95,392.32,890,384.92Zm-638.6,3.24A7.71,7.71,0,0,1,247,385.3c-1.64-2.13-3.52-7-1.89-9.45,1.43-2.14,3.94-2.46,6.65-2.46C251.5,378.31,251.39,383.25,251.39,388.16Zm51.76,8.47c-.95,10.19-2.17,20.36-3.25,30.54-.25,2.34-.6,4.7-.9,7s-.55,4.4-.7,5.41A112.14,112.14,0,0,1,294.84,456c-1.23,4.1-2.86,8.33-5.45,10.4-.27.18-.68.47-1,.65a17,17,0,0,1-1.69.41c.63,0-1.12-.44-1.42-.67a13.65,13.65,0,0,1-3.25-4.45,35.15,35.15,0,0,1-2.64-7c-3.76-12.88-4.65-26.46-5.71-39.75-1.31-16.43-2.46-33.11-2.22-49.69.58-3.89,1.13-7.78,1.58-11.68,1.37-12.2.73-29.93,10.52-39s16.19,20.09,17.25,25.18c3.78,18.69,4.05,37.33,2.29,56.28ZM807,622.15c0,.42.07.84.1,1.23.16,2.46.44,4.93.67,7.39.06.65.11,1.32.16,2a6,6,0,0,1-.38,1.82c-.33,1.44-.7,2.88-1.07,4.33-19-.18-37.94-.3-56.91-.46l-124.88-1.08q-71.86-.63-143.71-1.12c-39.89-.26-79.77-.38-119.66-.14-12.71.09-25.41.11-38.12.46-3.8.1-7.58.2-11.37.36-3.25.14-6.48.38-9.71.69a60.39,60.39,0,0,1-9,.57A10.05,10.05,0,0,1,291,638h0c-1.66-2.66-.42-8.39-.31-11.42.07-2.12.07-4.21,0-6.31l3.77.55c12.83,1.89,26.08,1.4,39,1.63,40.4.69,80.75.87,121.15.84q74.64-.06,149.28-.2,67.25-.12,134.5-.39C761.29,622.58,784.17,622.62,807,622.15Zm-28.18-75.66c3.7,10.92,7.39,22,11.89,32.61,2.23,5.34,4.35,10.7,7,15.82.43.81.9,1.6,1.39,2.37-15.79.23-31.6.11-47.37.21q-64.87.36-129.74.47-74.89.18-149.78.27c-42.31,0-84.6.06-126.93.83-13.78.25-27.57.37-41.34.9.71-1,1.44-2.11,2.09-3.23a117.29,117.29,0,0,0,6.42-13.88c4.08-9.75,7.6-19.72,11.09-29.66,8.63-24.28,16.45-48.76,25.2-73,7.83-21.7,14.32-45.15,34.5-58.87,10.73-7.28,22.63-9.56,35.13-12.18,14.46-3,29.7-5.77,44.49-3.55,10.11,1.52,17.34,7.39,22.18,16.24,5.77,10.44,5.18,21.29,7.65,32.53,1.13,5.14,5.8,7.81,10.52,7.92,6.4,2.56,13.89,2.46,20.64,2.46q13.31.06,26.63-.12c16.88-.26,33.74-1.23,50.64-1.15,8.63,0,12.47-7.39,11.58-14,1.23-8.21,1.5-16.32,5-24.23,3.44-7.73,9-14.79,17-18,12.05-4.73,27.64-2.46,40-.38,12.88,2.23,27.44,4,39.2,10.06,21,10.81,30.33,30.73,37.83,52,9.22,25.89,18.09,51.71,27,77.56Zm9.54-88.12c-6.28-.09-12.48-1.23-18.56-.79l-.64-1.91c-8.08-24.55-23-47.69-47.07-59.08-14.16-6.7-30.44-9.49-45.83-11.85s-33-4.2-48.06,1.23a53.59,53.59,0,0,0-29.29,26.52,83.9,83.9,0,0,0-8.63,27.11c-13.21.28-26.43.85-39.58,1.8-8.49.62-17,1.31-25.47,1.86-3.3.21-6.78.32-10.22.65-.46-9.34-3.48-18.84-7.07-27.11-4.77-11-12.5-20.95-23-27-13.07-7.49-29.44-7.86-44.07-6.47-15.8,1.5-33,4.19-48.06,9.34-25.66,8.76-43.62,29.12-53.66,53.79-.35.85-.67,1.71-1,2.56-6.05-.28-12.94-.83-19.31-.18.6-3.6,1.08-7.22,1.57-10.83q.25-1.84.47-3.7l.07-.64.06-.47c.89-6.47,1.49-13,2.22-19.46,1.4-12.52,2.8-25.08,3.09-37.68.27-11.68-1.36-23.62-3.27-35.13-.28-1.7-.59-3.48-.95-5.27.39,0,.8.1,1.23.12,4.93.35,9.86.25,14.79.38,14.07.36,28.15.6,42.22.87,39.52.75,79,1.12,118.56,1.59l133.79,1.57,113.11,1.32c15.92.18,32,.95,47.95.78a204.43,204.43,0,0,0-1.9,51.92C793,407,794.31,419.94,796,432.7c.07.55.11.79.12.86v.12q.26,2.08.53,4.17c.49,3.7,1,7.5,1.64,11.23.51,2.91,1.11,6,1.89,9-3.94,0-7.86.36-11.83.3Zm56.13-57.92c-1.08,15.33-1.82,30.81-4.76,46-1,5.15-2.18,10.72-4.44,15.26-1.23,2.54-1.91,3.7-3.7,5.21.11-.09-1.33.43-1.58.43a4.28,4.28,0,0,1-2.32-.91,11.65,11.65,0,0,0-1.23-1.39,28.7,28.7,0,0,1-1.82-3c-1.8-3.3-3.29-8.93-4.29-13.64-2.46-11.57-3.27-22.91-4.72-36-2.22-19.83-3.88-39.25-1.43-59.15a148.29,148.29,0,0,1,5.51-26c1.23-4.08,4.65-13.56,9.86-14.15,4.74-.59,8.63,8.17,9.86,11.79,2.59,7.63,3.28,15.68,4.09,23.64.59,5.69,1.42,11.35,2.24,17,.09,11.74-.46,23.51-1.27,34.95Zm23.89-5.32a8.85,8.85,0,0,1-2.79,1.38c0-2.13.09-4.26.09-6.41,1.52,1,3.25,2.08,4.35,2.75a7.17,7.17,0,0,1-1.64,2.33Z"/><path class="cls-1" d="M419.54,554h0a3.48,3.48,0,0,0,.14-.36Z"/><path class="cls-1" d="M500.16,554h0a3.5,3.5,0,0,0,.14-.36Z"/><path class="cls-1" d="M580.89,554h0a3.47,3.47,0,0,0,.14-.36Z"/><path class="cls-1" d="M661.59,554h0a3.47,3.47,0,0,0,.14-.36Z"/><path class="cls-1" d="M742.36,553.58l-.12.39h0A3.47,3.47,0,0,0,742.36,553.58Z"/><path class="cls-1" d="M702,499.85l-.12.39h0A3.47,3.47,0,0,0,702,499.85Z"/><path class="cls-1" d="M621.34,499.85l-.12.39h0A3.52,3.52,0,0,0,621.34,499.85Z"/><path class="cls-1" d="M540.68,499.85l-.12.39h0A3.54,3.54,0,0,0,540.68,499.85Z"/><path class="cls-1" d="M460,499.85l-.12.39h0A3.47,3.47,0,0,0,460,499.85Z"/><polygon class="cls-1" points="321.82 313.66 321.09 313.77 320.97 313.77 320.97 313.77 321.82 313.66"/><g id="Layer_2-2-2" data-name="Layer 2-2"><g id="Layer_1-2-2" data-name="Layer 1-2"><path class="cls-1" d="M718.68,185.67a66,66,0,1,0-66-66h0A66,66,0,0,0,718.68,185.67Zm0-108.44a42.43,42.43,0,1,1-42.43,42.45,42.43,42.43,0,0,1,42.43-42.45Z"/><path class="cls-1" d="M669.71,209.46a155.27,155.27,0,0,1,14.79,17.25A83.51,83.51,0,0,1,801,317.62h22.27A105.57,105.57,0,0,0,669.72,209.41Z"/><path class="cls-1" d="M670.29,317.67h22a132,132,0,0,0-264,0h22a110,110,0,0,1,220-2.33Q670.3,316.5,670.29,317.67Z"/><path class="cls-1" d="M560.29,163.73a77,77,0,1,0-77-77h0A77,77,0,0,0,560.29,163.73Zm0-133.36a56.37,56.37,0,1,1-56.37,56.37,56.37,56.37,0,0,1,56.37-56.37h0Z"/><path class="cls-1" d="M319.64,317.67a83.54,83.54,0,0,1,116.44-90.91,155.27,155.27,0,0,1,14.79-17.25A105.5,105.5,0,0,0,297.36,317.67Z"/><path class="cls-1" d="M401.9,185.67a66,66,0,1,0-66-66h0A66,66,0,0,0,401.9,185.67Zm0-108.44a42.43,42.43,0,1,1-42.34,42.51v-.09a42.49,42.49,0,0,1,42.34-42.4Z"/></g></g></g></g><g id="Layer_2-3" data-name="Layer 2"><g id="Icon-2" data-name="Icon"><path class="cls-2" d="M721,530.7a31,31,0,0,0-14,8.52,22,22,0,0,0-3.53,5.42c-3.29-8-11.41-13.85-20.75-16.69-12.64-3.84-30.71-4.14-43.37,2.74a31,31,0,0,0-14,8.52,22.06,22.06,0,0,0-3.53,5.42c-3.29-8-11.41-13.85-20.75-16.69-12.64-3.84-30.71-4.14-43.37,2.74a31,31,0,0,0-14,8.52,22,22,0,0,0-3.53,5.42c-3.29-8-11.41-13.85-20.75-16.69-12.64-3.84-30.71-4.14-43.37,2.74a31,31,0,0,0-14,8.52,22,22,0,0,0-3.53,5.42c-3.29-8-11.41-13.85-20.75-16.69-12.64-3.84-30.71-4.14-43.37,2.74a31,31,0,0,0-14,8.52c-14.72,16.82,4.68,38.1,22.09,40.88,11,1.76,22.9.27,33.76-1.76,9.77-1.83,18.22-7.34,22-16.81.14-.35.26-.7.39-1.06,4.21,9.84,15.21,18,25.51,19.61,11,1.76,22.9.27,33.76-1.76,9.77-1.83,18.22-7.34,22-16.81.14-.35.26-.7.39-1.06,4.21,9.84,15.21,18,25.51,19.61,11,1.76,22.9.27,33.76-1.76,9.77-1.83,18.22-7.34,22-16.81.14-.35.26-.7.39-1.06,4.21,9.84,15.21,18,25.51,19.61,11,1.76,22.9.27,33.76-1.76,9.77-1.83,18.22-7.34,22-16.81.14-.35.26-.7.39-1.06,4.21,9.84,15.21,18,25.51,19.61,11,1.76,22.9.27,33.76-1.76,9.77-1.83,18.22-7.34,22-16.81,6.53-16.39-5.35-28.86-20.46-33.48C751.73,524.12,733.66,523.84,721,530.7ZM435.33,556.26c-6.53,3-16.21,2.72-23.23,3.1-5.74.31-12.24.3-16.15-4.66-1.62-2.07-1.68-3.64-.87-5,6.83-1.52,13.14-3.93,20.41-3.59,1.7.07,3.54.27,5.06.47,1.25.15,5.76.89,2.49.37,2.09.32,4.16.67,6.23,1.17,1.13.27,2.24.6,3.35.94,0,0,2.24.84,2.09.72a22.71,22.71,0,0,1,3.62,2.31c-.31.75-.1.57.14.09h0C437.88,554.41,437.71,555.14,435.33,556.26Zm81.63,0c-6.53,3-16.21,2.72-23.23,3.1-5.74.31-12.24.3-16.15-4.66-1.62-2.07-1.68-3.64-.87-5,6.83-1.52,13.14-3.93,20.41-3.59,1.7.07,3.54.27,5.06.47,1.25.15,5.76.89,2.49.37,2.09.32,4.16.67,6.23,1.17,1.13.27,2.24.6,3.35.94,0,0,2.24.84,2.09.72a22.71,22.71,0,0,1,3.62,2.31c-.31.75-.1.57.14.09h0c-.57,2.22-.79,2.94-3.17,4.06Zm81.63,0c-6.53,3-16.21,2.72-23.23,3.1-5.74.31-12.24.3-16.15-4.66-1.62-2.07-1.68-3.64-.87-5,6.83-1.52,13.14-3.93,20.41-3.59,1.7.07,3.54.27,5.06.47,1.25.15,5.76.89,2.49.37,2.09.32,4.16.67,6.23,1.17,1.13.27,2.24.6,3.35.94,0,0,2.24.84,2.09.72a22.71,22.71,0,0,1,3.62,2.31c-.31.75-.1.57.14.09h0c-.52,2.22-.79,2.94-3.17,4.06Zm81.63,0c-6.53,3-16.21,2.72-23.23,3.1-5.74.31-12.24.3-16.15-4.66-1.62-2.07-1.68-3.64-.87-5,6.83-1.52,13.14-3.93,20.41-3.59,1.7.07,3.54.27,5.06.47,1.25.15,5.76.89,2.49.37,2.09.32,4.16.67,6.23,1.17,1.13.27,2.24.6,3.35.94,0,0,2.24.84,2.09.72a22.71,22.71,0,0,1,3.62,2.31c-.31.75-.1.57.14.09h0c-.59,2.22-.8,2.94-3.18,4.06Zm84.78-4h0c-.66,2.18-.86,2.9-3.24,4-6.53,3-16.21,2.72-23.23,3.1-5.74.31-12.24.3-16.15-4.66-1.62-2.07-1.68-3.64-.87-5,6.83-1.52,13.14-3.93,20.41-3.59,1.7.07,3.54.27,5.06.47,1.25.15,5.76.89,2.49.37,2.09.32,4.16.67,6.23,1.17,1.13.27,2.24.6,3.35.94,0,0,2.24.84,2.09.72a22.73,22.73,0,0,1,3.62,2.31c-.22.79,0,.61.25.12Z"/><path class="cls-2" d="M443.46,525.74c11,1.76,22.9.27,33.76-1.76,9.77-1.83,18.22-7.34,22-16.81.14-.35.26-.7.39-1.06,4.21,9.84,15.21,18,25.51,19.61,11,1.76,22.9.27,33.76-1.76,9.77-1.83,18.22-7.34,22-16.81.14-.35.26-.7.39-1.06,4.21,9.84,15.21,18,25.51,19.61,11,1.76,22.9.27,33.76-1.76,9.77-1.83,18.22-7.34,22-16.81.14-.35.26-.7.39-1.06,4.21,9.84,15.21,18,25.51,19.61,11,1.76,22.9.27,33.76-1.76,9.77-1.83,18.22-7.34,22-16.81,6.53-16.52-5.4-29-20.47-33.59-12.64-3.84-30.71-4.14-43.37,2.74a31,31,0,0,0-14,8.52,22.06,22.06,0,0,0-3.53,5.42c-3.29-8-11.41-13.85-20.75-16.69-12.64-3.84-30.71-4.14-43.37,2.74a31,31,0,0,0-14,8.52,22.06,22.06,0,0,0-3.53,5.42c-3.29-8-11.41-13.85-20.75-16.69-12.64-3.84-30.71-4.14-43.37,2.74a31,31,0,0,0-14,8.52,22.06,22.06,0,0,0-3.53,5.42c-3.29-8-11.41-13.85-20.75-16.69-12.64-3.84-30.71-4.14-43.37,2.74a31,31,0,0,0-14,8.52C406.64,501.67,426,523,443.46,525.74Zm237.3-30.37c6.83-1.52,13.14-3.93,20.41-3.59,1.7.07,3.54.27,5.06.47,1.25.15,5.76.89,2.49.37,2.09.32,4.16.67,6.23,1.17,1.13.27,2.24.6,3.35.94,0,0,2.24.84,2.09.72a22.7,22.7,0,0,1,3.62,2.31c-.31.75-.1.57.14.09h0c-.66,2.18-.86,2.9-3.24,4-6.53,3-16.21,2.72-23.23,3.1-5.74.31-12.24.31-16.15-4.66C680,498.21,679.93,496.64,680.75,495.37Zm-81.63,0c6.83-1.52,13.14-3.93,20.41-3.59,1.7.07,3.54.27,5.06.47,1.25.15,5.76.89,2.49.37,2.09.32,4.16.67,6.23,1.17,1.13.27,2.24.6,3.35.94,0,0,2.24.84,2.09.72a22.7,22.7,0,0,1,3.62,2.31c-.31.75-.1.57.14.09h0c-.66,2.18-.86,2.9-3.24,4-6.53,3-16.21,2.72-23.23,3.1-5.74.31-12.24.31-16.15-4.66C598.38,498.21,598.32,496.64,599.13,495.37Zm-81.61,0c6.83-1.52,13.14-3.93,20.41-3.59,1.7.07,3.54.27,5.06.47,1.25.15,5.76.89,2.49.37,2.09.32,4.16.67,6.23,1.17,1.13.27,2.24.6,3.35.94,0,0,2.24.84,2.09.72a22.7,22.7,0,0,1,3.62,2.31c-.31.75-.1.57.14.09h0c-.66,2.18-.86,2.9-3.24,4-6.53,3-16.21,2.72-23.23,3.1-5.74.31-12.24.31-16.15-4.66C516.75,498.21,516.69,496.64,517.51,495.37Zm-81.63,0c6.83-1.52,13.14-3.93,20.41-3.59,1.7.07,3.54.27,5.06.47,1.25.15,5.76.89,2.49.37,2.09.32,4.16.67,6.23,1.17,1.13.27,2.24.6,3.35.94,0,0,2.24.84,2.09.72a22.7,22.7,0,0,1,3.62,2.31c-.31.75-.1.57.14.09h0c-.66,2.18-.86,2.9-3.24,4-6.53,3-16.21,2.72-23.23,3.1-5.74.31-12.24.31-16.15-4.66C435.14,498.21,435.08,496.64,435.89,495.37Z"/><path class="cls-2" d="M914.57,381.08c-4.5-8.44-15.34-13.63-25.1-12.73a212.42,212.42,0,0,0-3-25.1v-3.17c.06-18.48-4.05-44.22-23.69-51.9-19.23-7.48-33,9.4-39.46,25.66-14.64,0-29.27-.35-43.9-.52l-7.24-.09.07-.85a37.4,37.4,0,0,1-4,.21,25.21,25.21,0,0,1-2.76-.1,37.33,37.33,0,0,1-5.35.41,40.5,40.5,0,0,1-6.5-.54,37.4,37.4,0,0,1-4.1.22h-.41V313L670.8,312l-134.65-1.63c-41.49-.5-83-1.25-124.48-1.4l-18.94-.1.12-.56a37.72,37.72,0,0,1-5.8.46,41.15,41.15,0,0,1-5-.3v.36H348c-2.36,0-4.76-.14-7.12,0l-1.25.17c.91-.12.22,0-.15,0l-.7.09-.56.09.54-.07-.79.1-2.76.34-1.61.22c-4.55-10.51-11.61-19.5-23-22.54-26.71-7.16-37.15,25.91-38.48,45.86-.22,3.34-.32,6.71-.39,10.07-.72,3.8-1.25,7.66-1.75,11.52a26,26,0,0,0-6.15-.72c-8.59.32-16.77,5.31-19.85,13.49-7.12,18.6,6.7,36.53,24.94,38.87.66,16.21,2.16,32.71,5.95,48.34,3.64,15,12.64,32.29,30.56,31.58,13.46-.52,21.66-10.76,26.31-22.23a33.44,33.44,0,0,0,6.23,1.33c3.57.41,7.17.81,10.78,1.13-2.61,7.9-5.11,15.86-7.8,23.69-5,14.5-10,29-13.8,43.89-3,11.79-6.74,23.39-9.89,35.16a162.61,162.61,0,0,0-4.16,18.7c-.56,3.9-.46,7.85-.86,11.74l-5.93.89-.5.07.36-.07-.36.07c-1.33.2-.74.15,0,0-1,.24-2.06.4-3,.7,1.25-.42.52-1.51-1.72.49a8.79,8.79,0,0,1,1.36-.39l.26-.06a6.32,6.32,0,0,0-2.86,1.73h0a14.28,14.28,0,0,1,1.25-1.25l-1.17.42-1,.34a7.48,7.48,0,0,0-5.11,8.8c-2.77,14.86-9,35.88,8,43.44,8.73,3.9,19.16,2.21,28.5,2.72,10,.54,19.95.87,29.92,1.1,38,.85,75.88,1.65,113.83,2q73.38.76,146.77,1.4l135.22,1.1,78.83.6h3.74c7.48,0,12-5.9,12.79-12.79a14.61,14.61,0,0,1,.17-1.62c.09-.86.79-4.79.19-2.09.45-2,.91-4,1.35-6.06,5.75-9.49,2.18-22.72,2-33-.12-6.66-5.72-13-12.7-12.7q-4.33.17-8.66.3a44.36,44.36,0,0,0-.36-5c-.82-5.65-2.06-11.12-3.39-16.67-2.74-11.38-6.37-22.57-9.44-33.86-6.16-22.48-13.64-44.36-21.12-66.3a110.66,110.66,0,0,0,12.28,2.32c5.06.56,10.14.69,15.17,1.46,3.18.49,6.3,1.25,9.49,1.66a27.5,27.5,0,0,0,4.91,3.6c16.47,9.36,32.42-2.27,38.65-17.63,6.23-15.14,7.26-32.42,8.58-48.62,0-.57.09-1.15.14-1.72a11.77,11.77,0,0,0,1.25-.19c8.5-1.77,15.43-4.46,20.83-11.69C915.59,396.85,918.57,388.57,914.57,381.08Zm-646.08,3.28a7.8,7.8,0,0,1-4.46-2.89c-1.66-2.16-3.57-7.08-1.91-9.56,1.45-2.17,4-2.49,6.73-2.49C268.6,374.39,268.49,379.39,268.49,384.35Zm52.36,8.57c-1,10.31-2.19,20.6-3.29,30.89-.25,2.37-.61,4.75-.91,7.13s-.56,4.45-.71,5.47A113.46,113.46,0,0,1,312.45,453c-1.25,4.15-2.89,8.43-5.51,10.52-.27.19-.69.47-1,.66a17.15,17.15,0,0,1-1.71.41c.64,0-1.13-.45-1.43-.67a13.81,13.81,0,0,1-3.29-4.5,35.56,35.56,0,0,1-2.67-7.06c-3.8-13-4.7-26.77-5.77-40.22-1.32-16.62-2.49-33.5-2.24-50.27.59-3.94,1.15-7.87,1.6-11.82,1.38-12.34.74-30.28,10.65-39.5s16.38,20.32,17.45,25.47c3.83,18.91,4.1,37.76,2.32,56.94ZM830.61,621.09c0,.42.07.85.1,1.25.16,2.49.45,5,.67,7.48.06.66.11,1.33.16,2a6.09,6.09,0,0,1-.39,1.85c-.34,1.46-.71,2.92-1.08,4.38-19.19-.19-38.39-.3-57.58-.46l-126.35-1.1q-72.7-.64-145.4-1.13c-40.36-.26-80.7-.39-121.06-.14-12.85.09-25.71.11-38.56.46-3.84.1-7.67.2-11.51.36-3.29.14-6.56.39-9.82.7a61.09,61.09,0,0,1-9.09.57,10.17,10.17,0,0,1-2.17-.17h0c-1.68-2.69-.42-8.49-.31-11.56.07-2.14.07-4.26,0-6.38l3.82.56c13,1.91,26.38,1.42,39.47,1.65,40.87.7,81.7.89,122.57.85q75.52-.06,151-.2,68-.12,136.07-.4C784.36,621.53,807.51,621.56,830.61,621.09ZM802.1,544.54c3.74,11,7.48,22.22,12,33,2.26,5.4,4.4,10.82,7.12,16,.44.82.91,1.62,1.41,2.39-16,.24-32,.11-47.93.21q-65.63.36-131.26.47-75.77.19-151.53.27c-42.8,0-85.59.06-128.42.84-13.94.25-27.89.37-41.83.91.72-1.06,1.46-2.13,2.12-3.27a118.67,118.67,0,0,0,6.5-14c4.13-9.86,7.69-19.95,11.22-30,8.73-24.56,16.64-49.33,25.5-73.83,7.92-22,14.49-45.68,34.91-59.56,10.86-7.37,22.89-9.67,35.55-12.32,14.62-3.07,30-5.83,45-3.59,10.22,1.53,17.54,7.48,22.44,16.43,5.83,10.56,5.24,21.54,7.74,32.91,1.15,5.2,5.87,7.9,10.65,8,6.47,2.59,14.05,2.49,20.88,2.49q13.47.06,26.94-.12c17.08-.26,34.14-1.25,51.23-1.16,8.73,0,12.62-7.48,11.72-14.21,1.25-8.3,1.52-16.51,5.07-24.51,3.48-7.82,9.09-15,17.24-18.18,12.19-4.79,28-2.49,40.48-.39,13,2.26,27.77,4.06,39.66,10.17,21.28,10.93,30.68,31.09,38.28,52.61,9.33,26.19,18.3,52.31,27.29,78.47Zm9.65-89.16c-6.36-.09-12.63-1.25-18.78-.8l-.65-1.93c-8.18-24.84-23.29-48.25-47.63-59.77-14.33-6.78-30.79-9.6-46.37-12s-33.43-4.25-48.62,1.25A54.22,54.22,0,0,0,620.07,409a84.88,84.88,0,0,0-8.73,27.43c-13.37.29-26.74.86-40,1.82-8.59.62-17.18,1.32-25.77,1.88-3.34.21-6.86.32-10.34.66-.46-9.45-3.52-19.06-7.16-27.43-4.82-11.12-12.64-21.19-23.29-27.34-13.23-7.58-29.79-8-44.58-6.55-16,1.52-33.4,4.24-48.62,9.45-26,8.86-44.14,29.46-54.28,54.42-.35.86-.67,1.73-1,2.59-6.12-.29-13.09-.84-19.54-.19.61-3.64,1.1-7.31,1.58-11q.25-1.86.47-3.74l.07-.65.06-.47c.9-6.55,1.51-13.13,2.24-19.69,1.42-12.67,2.83-25.37,3.13-38.13.27-11.82-1.37-23.9-3.3-35.55-.29-1.72-.6-3.52-1-5.34.4,0,.81.1,1.25.12,5,.35,10,.25,15,.39,14.24.36,28.48.61,42.71.89,40,.76,80,1.13,120,1.61l135.36,1.58,114.44,1.33c16.11.19,32.42,1,48.51.79a206.82,206.82,0,0,0-1.92,52.53c1.13,13,2.49,26.07,4.23,39,.07.56.11.8.12.87v.12q.26,2.11.54,4.21c.5,3.74,1,7.59,1.66,11.36.51,2.94,1.12,6,1.91,9.11-4,0-8,.36-12,.3Zm56.79-58.6c-1.1,15.51-1.85,31.17-4.81,46.52-1,5.21-2.21,10.85-4.49,15.43-1.25,2.57-1.93,3.74-3.74,5.27.11-.09-1.35.44-1.6.44a4.33,4.33,0,0,1-2.34-.92,11.78,11.78,0,0,0-1.25-1.41,29,29,0,0,1-1.85-3.05c-1.82-3.34-3.33-9-4.34-13.8-2.49-11.71-3.3-23.18-4.78-36.38-2.24-20.06-3.93-39.71-1.45-59.84a150,150,0,0,1,5.57-26.29c1.25-4.13,4.7-13.71,10-14.31,4.8-.6,8.73,8.27,10,11.93,2.62,7.72,3.32,15.86,4.14,23.91.6,5.76,1.43,11.48,2.27,17.21.09,11.88-.46,23.79-1.28,35.36Zm24.17-5.39a9,9,0,0,1-2.82,1.4c0-2.16.09-4.31.09-6.48,1.53,1,3.29,2.11,4.4,2.78a7.26,7.26,0,0,1-1.66,2.36Z"/><path class="cls-2" d="M438.61,552.12h0a3.52,3.52,0,0,0,.14-.36Z"/><path class="cls-2" d="M520.17,552.12h0a3.54,3.54,0,0,0,.14-.36Z"/><path class="cls-2" d="M601.84,552.12h0a3.51,3.51,0,0,0,.14-.36Z"/><path class="cls-2" d="M683.49,552.12h0a3.51,3.51,0,0,0,.14-.36Z"/><path class="cls-2" d="M765.21,551.72l-.12.4h0A3.52,3.52,0,0,0,765.21,551.72Z"/><path class="cls-2" d="M724.4,497.36l-.12.4h0A3.52,3.52,0,0,0,724.4,497.36Z"/><path class="cls-2" d="M642.78,497.36l-.12.4h0A3.56,3.56,0,0,0,642.78,497.36Z"/><path class="cls-2" d="M561.16,497.36l-.12.4h0A3.58,3.58,0,0,0,561.16,497.36Z"/><path class="cls-2" d="M479.54,497.36l-.12.4h0A3.52,3.52,0,0,0,479.54,497.36Z"/><path class="cls-2" d="M339.74,309l-.74.11h-.12Z"/><g id="Layer_2-2-3" data-name="Layer 2-2"><g id="Layer_1-2-3" data-name="Layer 1-2"><path class="cls-2" d="M741.26,179.5a66.76,66.76,0,1,0-66.76-66.76h0A66.76,66.76,0,0,0,741.26,179.5Zm0-109.71a42.93,42.93,0,1,1-42.93,43,42.93,42.93,0,0,1,42.93-43Z"/><path class="cls-2" d="M691.71,203.56a157.09,157.09,0,0,1,15,17.45,84.49,84.49,0,0,1,117.84,92H847A106.81,106.81,0,0,0,691.72,203.51Z"/><path class="cls-2" d="M692.3,313h22.25a133.54,133.54,0,0,0-267.07,0h22.25a111.29,111.29,0,0,1,222.56-2.36Q692.31,311.86,692.3,313Z"/><path class="cls-2" d="M581,157.29a77.9,77.9,0,1,0-77.9-77.9h0A77.9,77.9,0,0,0,581,157.29Zm0-134.92a57,57,0,1,1-57,57,57,57,0,0,1,57-57h0Z"/><path class="cls-2" d="M337.53,313a84.52,84.52,0,0,1,117.81-92,157.09,157.09,0,0,1,15-17.45A106.74,106.74,0,0,0,315,313Z"/><path class="cls-2" d="M420.77,179.5A66.76,66.76,0,1,0,354,112.74h0A66.76,66.76,0,0,0,420.77,179.5Zm0-109.71a42.93,42.93,0,1,1-42.84,43v-.09a43,43,0,0,1,42.84-42.9Z"/></g></g></g></g><g id="Layer_2-4" data-name="Layer 2"><g id="Layer_1-2-4" data-name="Layer 1-2"><g class="cls-3"><text class="cls-4" transform="translate(569.67 878.58)">scri<tspan class="cls-5" x="331.74" y="0">p</tspan><tspan class="cls-6" x="429.85" y="0">t</tspan><tspan x="495.7" y="0">s</tspan></text><text class="cls-3"></text><text class="cls-3"></text><text class="cls-3"></text></g></g></g><g id="Layer_2-5" data-name="Layer 2"><g id="Layer_1-2-5" data-name="Layer 1-2"><g class="cls-3"><text class="cls-7" transform="translate(589.33 878.58)">scri<tspan class="cls-8" x="331.74" y="0">p</tspan><tspan class="cls-9" x="429.84" y="0">t</tspan><tspan x="495.71" y="0">s</tspan></text><text class="cls-3"></text><text class="cls-3"></text><text class="cls-3"></text></g></g></g><g id="Layer_2-6" data-name="Layer 2"><g id="Layer_1-2-6" data-name="Layer 1-2"><g class="cls-3"><text class="cls-10" transform="translate(0.75 877.65) rotate(0.02)">f</text><text class="cls-11" transform="translate(110.43 877.69) rotate(0.02)">r</text><text class="cls-12" transform="translate(185.57 877.71) rotate(0.02)">i</text><text class="cls-11" transform="translate(220.1 877.72) rotate(0.02)">end</text></g></g></g><g id="Layer_2-7" data-name="Layer 2"><g id="Layer_1-2-7" data-name="Layer 1-2"><g class="cls-3"><text class="cls-13" transform="translate(25.25 877.79)">f</text><text class="cls-14" transform="translate(134.93 877.79)">r</text><text class="cls-15" transform="translate(210.06 877.79)">i</text><text class="cls-14" transform="translate(244.59 877.79)">end</text></g></g></g></g></g></svg>