<?xml version="1.0" encoding="utf-8"?>
<!-- Generator: Adobe Illustrator 20.1.0, SVG Export Plug-In . SVG Version: 6.00 Build 0)  -->
<svg version="1.1" id="Layer_1" xmlns="http://www.w3.org/2000/svg" xmlns:xlink="http://www.w3.org/1999/xlink" x="0px" y="0px"
	 viewBox="0 0 68 82.8" style="enable-background:new 0 0 68 82.8;" xml:space="preserve">
<style type="text/css">
	.st0{fill:#005077;}
</style>
<title>icon_new</title>
<g id="Layer_2">
	<g id="Page_1">
		<g id="Layer_1-2">
			<path class="st0" d="M43.3,37.2C60.5,43.7,66.5,56.7,68,69.8l-14.6-5.3l-6.5,1.9l-8-0.6c-2.8-0.2-1.5,0.1-1.8-2.1
				c-0.5-2.9-3.2-4.8-6.1-4.2c-1.4,0.2-2.6,1-3.3,2.1c-0.8-0.5-1.5-1-2-1.3c-1.2-0.8-2.4-1.7-3.7-2.5c-2.5-1.6-5.5-2.3-8.5-1.8
				c-5.3,0.9-9.7,5.2-12.9,9.4c2.3-11.5,8.8-22.3,23.9-28.1c1.4,1.7,3.2,3.1,5.3,3.9c2.7,0.8,5.6,0.8,8.3,0
				C40.1,40.3,41.9,38.9,43.3,37.2L43.3,37.2z M42.6,33.6c1.7-2.4,3.1-4.9,4.1-7.7c0.5-0.1,1-0.4,1.2-0.9c0.5-2.2,0.8-4.5,0.9-6.8
				c0-0.3-0.7-1-1-1C47.9,8.1,46.1,0,33.9,0S20,8.1,20.1,17.2c-0.3,0-1,0.7-1,1c0.1,2.3,0.4,4.6,0.9,6.8c0.2,0.5,0.6,0.8,1.2,0.9
				c1,2.7,2.4,5.3,4.1,7.7c1.7,2.4,3.4,4.1,5.5,4.9c2.1,0.5,4.2,0.5,6.3,0C39.1,37.7,40.8,36,42.6,33.6L42.6,33.6z M53.3,67.4
				L68,72.8v1H56.2c-0.3-1.3-1.6-2.2-2.9-1.9c-1.3,0.3-2.2,1.6-1.9,2.9s1.6,2.2,2.9,1.9c1-0.2,1.7-1,1.9-1.9H68v1l-14.7,5.4
				l-5.8-1.6V69.1L53.3,67.4L53.3,67.4z M0.6,70.6C1,69.7,1.5,68.8,2.1,68c4.3-6,10.9-12.5,18.3-7.9c2.2,1.4,6.2,4.5,8.1,5
				c0.4,0.1,0.8,0.2,1.1,0.2c-0.1-0.3-0.2-0.6-0.2-0.8c0-1.3,1-2.4,2.3-2.4c1.3,0,2.4,1,2.4,2.3c0,1.3-1,2.4-2.3,2.4c0,0,0,0,0,0
				c-0.3,0-0.6-0.1-0.9-0.2c-0.3,0.2-0.6,0.3-1,0.4c-0.7,0.1-1.4,0-2-0.2c-2.4-0.9-4.8-2-7-3.3c-5.1-2.7-8.4-0.9-11.3,2.3
				c-0.4,0.5-0.5,1,0.5,0.9c0.2,0,0.5-0.1,0.8-0.2c2.2-0.4,4.4-0.6,6.7-0.6c1.8,0,3.6,0.1,5.3,0.4v16.2c-1.8,0.3-3.6,0.4-5.3,0.4
				c-7.9,0-14.6-2.5-16.8-6C-0.3,74.9-0.4,72.6,0.6,70.6L0.6,70.6z M45.8,69.1l-21.1-1.5v13.6l21.1-1.6
				C45.8,79.6,45.8,69.1,45.8,69.1z"/>
		</g>
	</g>
</g>
</svg>
