<?xml version="1.0" encoding="utf-8"?>
<!-- Generator: Adobe Illustrator 20.1.0, SVG Export Plug-In . SVG Version: 6.00 Build 0)  -->
<svg version="1.1" id="Layer_1" xmlns="http://www.w3.org/2000/svg" xmlns:xlink="http://www.w3.org/1999/xlink" x="0px" y="0px"
	 viewBox="0 0 67.4 59.4" style="enable-background:new 0 0 67.4 59.4;" xml:space="preserve">
<style type="text/css">
	.st0{fill:#005077;}
</style>
<title>icon_read</title>
<g id="Layer_2">
	<g id="Page_1">
		<g id="Layer_1-2">
			<path class="st0" d="M19.5,50.7c-2.8,0-5.1-2.3-5.1-5.1v-2.9h7.2v-2.8H5.1c-2.8,0-5.1-2.3-5.1-5.1V5.1C0,2,2.5,0,5.5,0h42
				c3,0,5.5,2,5.5,5.1v29.6c0,2.8-2.3,5.1-5.1,5.1v2.8c4.4,0,7.9-3.6,7.9-7.9V10.9H62c3,0,5.5,2,5.5,5.1v29.6c0,2.8-2.3,5.1-5.1,5.1
				h-7.2v8.7c-3.7-1.9-6.4-4.6-7.3-8.7L19.5,50.7z M32.5,43.8c3.3-1.7,5.7-4,6.4-7.7h9c0.8,0,1.4-0.6,1.4-1.4V5.1
				c0-1-0.8-1.4-1.8-1.4h-42c-1,0-1.8,0.4-1.8,1.4v29.6c0,0.8,0.6,1.4,1.4,1.4h27.4V43.8z M10,10h33v3.3H10V10z M10,16.1h33v3.3H10
				V16.1L10,16.1z M10,22.2h15.9v3.3H10V22.2L10,22.2z"/>
		</g>
	</g>
</g>
</svg>
