<?xml version="1.0" encoding="utf-8"?>
<!-- Generator: Adobe Illustrator 20.1.0, SVG Export Plug-In . SVG Version: 6.00 Build 0)  -->
<svg version="1.1" id="Layer_1" xmlns="http://www.w3.org/2000/svg" xmlns:xlink="http://www.w3.org/1999/xlink" x="0px" y="0px"
	 viewBox="0 0 92 68.6" style="enable-background:new 0 0 92 68.6;" xml:space="preserve">
<style type="text/css">
	.st0{fill:#3C7079;}
	.st1{fill:#005077;}
</style>
<title>icon_join</title>
<g id="Layer_2">
	<g id="Page_1">
		<g id="Layer_1-2">
			<path class="st0" d="M73,30.4C85.4,35,90.4,44,92,53.5c-8.4,2.5-17,3.7-25.8,3.7c-2.7-9.1-8.9-16.9-17.2-21.5
				c2.8-2.3,5.9-4.1,9.3-5.4c1.1,1.4,2.5,2.4,4.1,3.1c2.1,0.6,4.4,0.6,6.5,0C70.5,32.8,71.9,31.7,73,30.4z M72.4,27.5
				c1-1.3,1.8-2.7,2.4-4.2c1.3-3.4,1.8-7,1.6-10.6C76.2,6.4,74.3,1.2,65.6,1.2S55.1,6.4,54.9,12.7c-0.1,3.5,0.4,7.1,1.5,10.4
				c0.7,1.6,1.5,3,2.5,4.4c1,1.7,2.5,3,4.3,3.8c1.6,0.4,3.3,0.4,4.9,0C69.9,30.5,71.4,29.2,72.4,27.5L72.4,27.5z M41.3,35.7
				C56.4,41.4,62.6,52.5,64.5,64c-10.5,3.1-21.3,4.6-32.2,4.6C21.3,68.6,10.5,67.1,0,64c1.9-11.5,8.1-22.6,23.2-28.3
				c1.3,1.7,3.1,3,5,3.8c2.6,0.8,5.3,0.8,7.9,0C38.2,38.7,39.9,37.4,41.3,35.7L41.3,35.7z M40.6,32.2c4-5.5,5.1-11.3,4.9-18.1
				C45.2,6.4,42.9,0,32.2,0S19.3,6.4,19,14.1c-0.4,6.7,1,12.7,4.9,18.2c1.7,2.3,3.3,4,5.3,4.7c2,0.5,4,0.5,6,0
				C37.2,36.2,38.8,34.5,40.6,32.2L40.6,32.2z"/>
		</g>
	</g>
</g>
<g id="Layer_2_1_">
	<g id="Page_1_1_">
		<g id="Layer_1-2_1_">
			<path class="st1" d="M74.1,30.4C86.5,35,91.5,44,93.1,53.5c-8.4,2.5-17,3.7-25.8,3.7c-2.7-9.1-8.9-16.9-17.2-21.5
				c2.8-2.3,5.9-4.1,9.3-5.4c1.1,1.4,2.5,2.4,4.1,3.1c2.1,0.6,4.4,0.6,6.5,0C71.6,32.8,73,31.7,74.1,30.4z M73.5,27.5
				c1-1.3,1.8-2.7,2.4-4.2c1.3-3.4,1.8-7,1.6-10.6C77.3,6.4,75.4,1.2,66.7,1.2S56.2,6.4,55.9,12.7c-0.1,3.5,0.4,7.1,1.5,10.4
				c0.7,1.6,1.5,3,2.5,4.4c1,1.7,2.5,3,4.3,3.8c1.6,0.4,3.3,0.4,4.9,0C71,30.5,72.5,29.2,73.5,27.5L73.5,27.5z M42.3,35.7
				C57.5,41.4,63.6,52.5,65.6,64c-10.5,3.1-21.3,4.6-32.2,4.6c-10.9,0-21.8-1.5-32.3-4.6C3,52.5,9.1,41.4,24.3,35.7
				c1.3,1.7,3.1,3,5,3.8c2.6,0.8,5.3,0.8,7.9,0C39.3,38.7,41,37.4,42.3,35.7L42.3,35.7z M41.6,32.2c4-5.6,5.1-11.3,4.9-18.2
				C46.3,6.4,44,0,33.3,0s-13,6.4-13.3,14.1c-0.4,6.7,1,12.7,4.9,18.2c1.7,2.3,3.3,4,5.3,4.7c2,0.5,4,0.5,6,0
				C38.3,36.2,39.9,34.5,41.6,32.2L41.6,32.2z"/>
		</g>
	</g>
</g>
</svg>
