<svg xmlns="http://www.w3.org/2000/svg" viewBox="0 0 540.84 531.2"><defs><style>.cls-1{fill:#231f20;}</style></defs><title>FreindScripts Icon</title><g id="Layer_2" data-name="Layer 2"><g id="Icon"><path class="cls-1" d="M384.08,424.5a24.83,24.83,0,0,0-11.2,6.83,17.68,17.68,0,0,0-2.83,4.35c-2.64-6.4-9.15-11.11-16.64-13.39-10.14-3.08-24.63-3.32-34.79,2.2a24.83,24.83,0,0,0-11.2,6.83,17.69,17.69,0,0,0-2.83,4.35c-2.64-6.4-9.15-11.11-16.64-13.39-10.14-3.08-24.63-3.32-34.79,2.2a24.83,24.83,0,0,0-11.2,6.83,17.68,17.68,0,0,0-2.83,4.35c-2.64-6.4-9.15-11.11-16.64-13.39-10.14-3.08-24.63-3.32-34.79,2.2a24.83,24.83,0,0,0-11.2,6.83,17.68,17.68,0,0,0-2.83,4.35c-2.64-6.4-9.15-11.11-16.64-13.39-10.14-3.08-24.63-3.32-34.79,2.2a24.83,24.83,0,0,0-11.2,6.83c-11.81,13.49,3.75,30.56,17.72,32.79,8.79,1.41,18.37.22,27.08-1.41,7.84-1.47,14.61-5.89,17.61-13.48.11-.28.21-.56.31-.85,3.38,7.89,12.2,14.41,20.46,15.73,8.79,1.41,18.37.22,27.08-1.41,7.84-1.47,14.61-5.89,17.61-13.48.11-.28.21-.56.31-.85,3.38,7.89,12.2,14.41,20.46,15.73,8.79,1.41,18.37.22,27.08-1.41,7.84-1.47,14.61-5.89,17.61-13.48.11-.28.21-.56.31-.85,3.38,7.89,12.2,14.41,20.46,15.73,8.79,1.41,18.37.22,27.08-1.41,7.84-1.47,14.61-5.89,17.61-13.48.11-.28.21-.56.31-.85,3.38,7.89,12.2,14.41,20.46,15.73,8.79,1.41,18.37.22,27.08-1.41,7.84-1.47,14.61-5.89,17.61-13.48C440.53,436,431,426,418.88,422.3,408.73,419.22,394.24,419,384.08,424.5ZM154.95,445c-5.24,2.38-13,2.18-18.63,2.49-4.6.25-9.82.24-12.95-3.74-1.3-1.66-1.35-2.92-.7-4,5.48-1.22,10.54-3.15,16.37-2.88,1.36.06,2.84.22,4.06.38,1,.12,4.62.71,2,.3,1.68.26,3.34.54,5,.94.91.22,1.8.48,2.69.75,0,0,1.8.67,1.68.58a18.22,18.22,0,0,1,2.9,1.85c-.25.6-.08.46.11.07l0,0C157,443.52,156.86,444.1,154.95,445Zm65.47,0c-5.24,2.38-13,2.18-18.63,2.49-4.6.25-9.82.24-12.95-3.74-1.3-1.66-1.35-2.92-.7-4,5.48-1.22,10.54-3.15,16.37-2.88,1.36.06,2.84.22,4.06.38,1,.12,4.62.71,2,.3,1.68.26,3.34.54,5,.94.91.22,1.8.48,2.69.75,0,0,1.8.67,1.68.58a18.22,18.22,0,0,1,2.9,1.85c-.25.6-.08.46.11.07l0,0C222.49,443.52,222.32,444.1,220.41,445Zm65.47,0c-5.24,2.38-13,2.18-18.63,2.49-4.6.25-9.82.24-12.95-3.74-1.3-1.66-1.35-2.92-.7-4,5.48-1.22,10.54-3.15,16.37-2.88,1.36.06,2.84.22,4.06.38,1,.12,4.62.71,2,.3,1.68.26,3.34.54,5,.94.91.22,1.8.48,2.69.75,0,0,1.8.67,1.68.58a18.22,18.22,0,0,1,2.9,1.85c-.25.6-.08.46.11.07l0,0C288,443.52,287.79,444.1,285.88,445Zm65.47,0c-5.24,2.38-13,2.18-18.63,2.49-4.6.25-9.82.24-12.95-3.74-1.3-1.66-1.35-2.92-.7-4,5.48-1.22,10.54-3.15,16.37-2.88,1.36.06,2.84.22,4.06.38,1,.12,4.62.71,2,.3,1.68.26,3.34.54,5,.94.91.22,1.8.48,2.69.75,0,0,1.8.67,1.68.58a18.22,18.22,0,0,1,2.9,1.85c-.25.6-.08.46.11.07l0,0C353.42,443.52,353.25,444.1,351.34,445Zm68-3.22,0,0c-.53,1.75-.69,2.33-2.6,3.2-5.24,2.38-13,2.18-18.63,2.49-4.6.25-9.82.24-12.95-3.74-1.3-1.66-1.35-2.92-.7-4,5.48-1.22,10.54-3.15,16.37-2.88,1.36.06,2.84.22,4.06.38,1,.12,4.62.71,2,.3,1.68.26,3.34.54,5,.94.91.22,1.8.48,2.69.75,0,0,1.8.67,1.68.58a18.23,18.23,0,0,1,2.9,1.85C419,442.28,419.19,442.14,419.38,441.75Z"/><path class="cls-1" d="M161.47,420.52c8.79,1.41,18.37.22,27.08-1.41,7.84-1.47,14.61-5.89,17.61-13.48.11-.28.21-.56.31-.85,3.38,7.89,12.2,14.41,20.46,15.73,8.79,1.41,18.37.22,27.08-1.41,7.84-1.47,14.61-5.89,17.61-13.48.11-.28.21-.56.31-.85,3.38,7.89,12.2,14.41,20.46,15.73,8.79,1.41,18.37.22,27.08-1.41,7.84-1.47,14.61-5.89,17.61-13.48.11-.28.21-.56.31-.85,3.38,7.89,12.2,14.41,20.46,15.73,8.79,1.41,18.37.22,27.08-1.41,7.84-1.47,14.61-5.89,17.61-13.48,5.24-13.25-4.33-23.27-16.42-26.94-10.14-3.08-24.63-3.32-34.79,2.2a24.83,24.83,0,0,0-11.2,6.83,17.69,17.69,0,0,0-2.83,4.35c-2.64-6.4-9.15-11.11-16.64-13.39-10.14-3.08-24.63-3.32-34.79,2.2a24.83,24.83,0,0,0-11.2,6.83,17.69,17.69,0,0,0-2.83,4.35c-2.64-6.4-9.15-11.11-16.64-13.39-10.14-3.08-24.63-3.32-34.79,2.2a24.83,24.83,0,0,0-11.2,6.83,17.69,17.69,0,0,0-2.83,4.35c-2.64-6.4-9.15-11.11-16.64-13.39-10.14-3.08-24.63-3.32-34.79,2.2a24.83,24.83,0,0,0-11.2,6.83C131.94,401.22,147.5,418.29,161.47,420.52ZM351.8,396.16c5.48-1.22,10.54-3.15,16.37-2.88,1.36.06,2.84.22,4.06.38,1,.12,4.62.71,2,.3,1.68.26,3.34.54,5,.94.91.22,1.8.48,2.69.75,0,0,1.8.67,1.68.58a18.21,18.21,0,0,1,2.9,1.85c-.25.6-.08.46.11.07l0,0c-.53,1.75-.69,2.33-2.6,3.2-5.24,2.38-13,2.18-18.63,2.49-4.6.25-9.82.25-12.95-3.74C351.19,398.44,351.14,397.18,351.8,396.16Zm-65.47,0c5.48-1.22,10.54-3.15,16.37-2.88,1.36.06,2.84.22,4.06.38,1,.12,4.62.71,2,.3,1.68.26,3.34.54,5,.94.91.22,1.8.48,2.69.75,0,0,1.8.67,1.68.58a18.21,18.21,0,0,1,2.9,1.85c-.25.6-.08.46.11.07l0,0c-.53,1.75-.69,2.33-2.6,3.2-5.24,2.38-13,2.18-18.63,2.49-4.6.25-9.82.25-12.95-3.74C285.73,398.44,285.68,397.18,286.33,396.16Zm-65.46,0c5.48-1.22,10.54-3.15,16.37-2.88,1.36.06,2.84.22,4.06.38,1,.12,4.62.71,2,.3,1.68.26,3.34.54,5,.94.91.22,1.8.48,2.69.75,0,0,1.8.67,1.68.58a18.21,18.21,0,0,1,2.9,1.85c-.25.6-.08.46.11.07l0,0c-.53,1.75-.69,2.33-2.6,3.2-5.24,2.38-13,2.18-18.63,2.49-4.6.25-9.82.25-12.95-3.74C220.26,398.44,220.21,397.18,220.87,396.16Zm-65.47,0c5.48-1.22,10.54-3.15,16.37-2.88,1.36.06,2.84.22,4.06.38,1,.12,4.62.71,2,.3,1.68.26,3.34.54,5,.94.91.22,1.8.48,2.69.75,0,0,1.8.67,1.68.58a18.21,18.21,0,0,1,2.9,1.85c-.25.6-.08.46.11.07l0,0c-.53,1.75-.69,2.33-2.6,3.2-5.24,2.38-13,2.18-18.63,2.49-4.6.25-9.82.25-12.95-3.74C154.8,398.44,154.75,397.18,155.4,396.16Z"/><path class="cls-1" d="M539.34,304.49c-3.61-6.77-12.3-10.93-20.13-10.21a170.38,170.38,0,0,0-2.42-20.13c0-.85,0-1.7,0-2.54.05-14.82-3.25-35.47-19-41.63-15.42-6-26.48,7.54-31.65,20.58-11.74,0-23.48-.28-35.21-.42l-5.81-.07.06-.68a30,30,0,0,1-3.21.17c-.75,0-1.48,0-2.21-.08a29.94,29.94,0,0,1-4.29.33,32.48,32.48,0,0,1-5.21-.43,30,30,0,0,1-3.29.18h-.33c0,.1,0,.19,0,.29l-62.82-.76-108-1.31c-33.28-.4-66.56-1-99.84-1.12l-15.19-.08.1-.45a30.25,30.25,0,0,1-4.65.37,33,33,0,0,1-4-.24c0,.1,0,.2,0,.29-4.51,0-9,0-13.54,0l-13.76,0c-1.89,0-3.82-.11-5.71,0l-1,.14c.73-.1.18,0-.12,0l-.56.07-.45.07.43-.06-.63.08-2.21.27-1.29.18c-3.65-8.43-9.31-15.64-18.45-18.08C33.53,223.48,25.15,250,24.09,266c-.18,2.68-.26,5.38-.31,8.08-.58,3.05-1,6.14-1.4,9.24a20.89,20.89,0,0,0-4.93-.58C10.56,283,4,287,1.53,293.56c-5.71,14.92,5.37,29.3,20,31.18.53,13,1.73,26.24,4.77,38.77,2.92,12.05,10.14,25.9,24.51,25.33,10.8-.42,17.37-8.63,21.1-17.83a26.82,26.82,0,0,0,5,1.07c2.86.33,5.75.65,8.65.91-2.09,6.34-4.1,12.72-6.26,19-4,11.63-8,23.28-11.07,35.2-2.42,9.46-5.41,18.76-7.93,28.2a130.43,130.43,0,0,0-3.34,15c-.45,3.13-.37,6.3-.69,9.42l-4.76.71-.4.06.29-.06-.29.06c-1.07.16-.59.12,0,0-.82.19-1.65.32-2.43.56,1-.34.42-1.21-1.38.39a7.05,7.05,0,0,1,1.09-.31l.21-.05a5.07,5.07,0,0,0-2.29,1.39h0a11.45,11.45,0,0,1,1-1l-.94.34-.83.27a6,6,0,0,0-4.1,7.06c-2.22,11.92-7.18,28.78,6.43,34.84,7,3.13,15.37,1.77,22.86,2.18,8,.43,16,.7,24,.88,30.44.68,60.86,1.32,91.3,1.63q58.86.61,117.72,1.12l108.46.88q31.61.25,63.23.48l3,0c6,0,9.63-4.73,10.26-10.26,0-.43.09-.86.14-1.3.07-.69.63-3.84.15-1.68.36-1.62.73-3.24,1.08-4.86,4.61-7.61,1.75-18.22,1.59-26.48-.1-5.34-4.59-10.42-10.19-10.19q-3.47.14-6.95.24a35.58,35.58,0,0,0-.29-4c-.66-4.53-1.65-8.92-2.72-13.37-2.2-9.13-5.11-18.1-7.57-27.16C459,414.15,453,396.6,447,379a88.76,88.76,0,0,0,9.85,1.86c4.06.45,8.13.55,12.17,1.17,2.55.39,5.05,1,7.61,1.33a22.06,22.06,0,0,0,3.94,2.89c13.21,7.51,26-1.82,31-14.14,5-12.14,5.82-26,6.88-39,0-.46.07-.92.11-1.38a9.44,9.44,0,0,0,1-.15c6.82-1.42,12.38-3.58,16.71-9.38C540.16,317.14,542.55,310.5,539.34,304.49ZM21.13,307.12a6.26,6.26,0,0,1-3.58-2.32c-1.33-1.73-2.86-5.68-1.53-7.67,1.16-1.74,3.2-2,5.4-2C21.22,299.13,21.13,303.14,21.13,307.12Zm42,6.87c-.77,8.27-1.76,16.52-2.64,24.78-.2,1.9-.49,3.81-.73,5.72s-.45,3.57-.57,4.39a91,91,0,0,1-2.8,13.27c-1,3.33-2.32,6.76-4.42,8.44-.22.15-.55.38-.81.53a13.75,13.75,0,0,1-1.37.33c.51,0-.91-.36-1.15-.54A11.08,11.08,0,0,1,46,367.3a28.52,28.52,0,0,1-2.14-5.66c-3.05-10.45-3.77-21.47-4.63-32.26-1.06-13.33-2-26.87-1.8-40.32.47-3.16.92-6.31,1.28-9.48,1.11-9.9.59-24.29,8.54-31.68s13.14,16.3,14,20.43C64.32,283.5,64.54,298.62,63.11,314ZM472,497c0,.34.06.68.08,1,.13,2,.36,4,.54,6,.05.53.09,1.07.13,1.6s-.2,1-.31,1.48c-.27,1.17-.57,2.34-.87,3.51-15.39-.15-30.79-.24-46.18-.37l-101.34-.88q-58.31-.51-116.62-.91c-32.37-.21-64.73-.31-97.1-.11-10.31.07-20.62.09-30.93.37-3.08.08-6.15.16-9.23.29-2.64.11-5.26.31-7.88.56A49,49,0,0,1,55,510a8.16,8.16,0,0,1-1.74-.14h0c-1.35-2.16-.34-6.81-.25-9.27.06-1.72.06-3.42,0-5.12l3.06.45c10.41,1.53,21.16,1.14,31.66,1.32,32.78.56,65.53.71,98.31.68q60.57-.05,121.14-.16,54.57-.1,109.14-.32C434.9,497.35,453.47,497.38,472,497Zm-22.87-61.4c3,8.86,6,17.82,9.65,26.46,1.81,4.33,3.53,8.68,5.71,12.84.35.66.73,1.3,1.13,1.92-12.81.19-25.64.09-38.44.17q-52.64.29-105.28.38-60.77.15-121.54.22c-34.33,0-68.65.05-103,.67-11.18.2-22.37.3-33.55.73.58-.85,1.17-1.71,1.7-2.62a95.18,95.18,0,0,0,5.21-11.26c3.31-7.91,6.17-16,9-24.07,7-19.7,13.35-39.57,20.45-59.22,6.35-17.61,11.62-36.64,28-47.77,8.71-5.91,18.36-7.76,28.51-9.88,11.73-2.46,24.1-4.68,36.1-2.88,8.2,1.23,14.07,6,18,13.18,4.68,8.47,4.2,17.28,6.21,26.4.92,4.17,4.71,6.34,8.54,6.43,5.19,2.08,11.27,2,16.75,2q10.8.05,21.61-.1c13.7-.21,27.38-1,41.09-.93,7,0,10.12-6,9.4-11.4,1-6.66,1.22-13.24,4.07-19.66,2.79-6.27,7.29-12,13.83-14.58,9.78-3.84,22.43-2,32.47-.31,10.45,1.81,22.27,3.26,31.81,8.16,17.07,8.77,24.61,24.94,30.7,42.2C434.74,393.69,441.94,414.64,449.15,435.62Zm7.74-71.51c-5.1-.07-10.13-1-15.06-.64l-.52-1.55c-6.56-19.92-18.68-38.7-38.2-47.94-11.49-5.44-24.7-7.7-37.19-9.62s-26.81-3.41-39,1a43.49,43.49,0,0,0-23.77,21.52,68.08,68.08,0,0,0-7,22c-10.72.23-21.45.69-32.12,1.46-6.89.5-13.78,1.06-20.67,1.51-2.68.17-5.5.26-8.29.53-.37-7.58-2.82-15.29-5.74-22-3.87-8.92-10.14-17-18.68-21.93-10.61-6.08-23.89-6.38-35.76-5.25-12.82,1.22-26.79,3.4-39,7.58-20.82,7.11-35.4,23.63-43.54,43.65-.28.69-.54,1.39-.81,2.08-4.91-.23-10.5-.67-15.67-.15.49-2.92.88-5.86,1.27-8.79q.2-1.49.38-3l.06-.52.05-.38c.72-5.25,1.21-10.53,1.8-15.79,1.14-10.16,2.27-20.35,2.51-30.58.22-9.48-1.1-19.17-2.65-28.51-.23-1.38-.48-2.82-.77-4.28.32,0,.65.08,1,.1,4,.28,8,.2,12,.31,11.42.29,22.84.49,34.26.71,32.07.61,64.14.91,96.21,1.29l108.57,1.27,91.79,1.07c12.92.15,26,.77,38.91.63A165.89,165.89,0,0,0,459.7,312c.91,10.42,2,20.91,3.39,31.27.06.45.09.64.1.7v.1q.21,1.69.43,3.38c.4,3,.8,6.09,1.33,9.11.41,2.36.9,4.83,1.53,7.31C463.28,363.86,460.1,364.16,456.88,364.11Zm45.55-47c-.88,12.44-1.48,25-3.86,37.31-.81,4.18-1.77,8.7-3.6,12.38-1,2.06-1.55,3-3,4.23.09-.07-1.08.35-1.28.35a3.47,3.47,0,0,1-1.88-.74,9.45,9.45,0,0,0-1-1.13,23.29,23.29,0,0,1-1.48-2.45c-1.46-2.68-2.67-7.25-3.48-11.07-2-9.39-2.65-18.59-3.83-29.18-1.8-16.09-3.15-31.85-1.16-48a120.33,120.33,0,0,1,4.47-21.09c1-3.31,3.77-11,8-11.48,3.85-.48,7,6.63,8,9.57,2.1,6.19,2.66,12.72,3.32,19.18.48,4.62,1.15,9.21,1.82,13.8C503.53,298.3,503.09,307.85,502.43,317.13Zm19.39-4.32a7.18,7.18,0,0,1-2.26,1.12c0-1.73.07-3.46.07-5.2,1.23.79,2.64,1.69,3.53,2.23A5.82,5.82,0,0,1,521.82,312.81Z"/><path class="cls-1" d="M157.58,441.68v0a2.82,2.82,0,0,0,.11-.29Z"/><path class="cls-1" d="M223,441.68v0a2.84,2.84,0,0,0,.11-.29Z"/><path class="cls-1" d="M288.51,441.68v0a2.82,2.82,0,0,0,.11-.29Z"/><path class="cls-1" d="M354,441.68v0a2.82,2.82,0,0,0,.11-.29Z"/><path class="cls-1" d="M419.54,441.36l-.1.32v0A2.82,2.82,0,0,0,419.54,441.36Z"/><path class="cls-1" d="M386.81,397.76l-.1.32v0A2.82,2.82,0,0,0,386.81,397.76Z"/><path class="cls-1" d="M321.34,397.76l-.1.32v0A2.85,2.85,0,0,0,321.34,397.76Z"/><path class="cls-1" d="M255.88,397.76l-.1.32v0A2.87,2.87,0,0,0,255.88,397.76Z"/><path class="cls-1" d="M190.41,397.76l-.1.32v0A2.82,2.82,0,0,0,190.41,397.76Z"/><path class="cls-1" d="M78.28,246.67l-.59.09-.1,0h0Z"/><g id="Layer_2-2" data-name="Layer 2"><g id="Layer_1-2" data-name="Layer 1-2"><path class="cls-1" d="M400.33,142.81a53.55,53.55,0,1,0-53.55-53.55A53.55,53.55,0,0,0,400.33,142.81Zm0-88A34.43,34.43,0,1,1,365.9,89.26,34.43,34.43,0,0,1,400.33,54.83Z"/><path class="cls-1" d="M360.59,162.11a126,126,0,0,1,12,14,67.77,67.77,0,0,1,94.52,73.77h18.07a85.67,85.67,0,0,0-124.58-87.81Z"/><path class="cls-1" d="M361.06,249.92h17.85a107.11,107.11,0,0,0-214.21,0h17.85a89.26,89.26,0,1,1,178.51,0Z"/><path class="cls-1" d="M271.8,125a62.48,62.48,0,1,0-62.48-62.48A62.48,62.48,0,0,0,271.8,125Zm0-108.22a45.74,45.74,0,1,1-45.74,45.74A45.74,45.74,0,0,1,271.8,16.74Z"/><path class="cls-1" d="M76.51,249.92A67.79,67.79,0,0,1,171,176.15a126,126,0,0,1,12-14A85.61,85.61,0,0,0,58.43,249.92Z"/><path class="cls-1" d="M143.27,142.81A53.55,53.55,0,1,0,89.72,89.26,53.55,53.55,0,0,0,143.27,142.81Zm0-88a34.43,34.43,0,1,1-34.36,34.5v-.07A34.48,34.48,0,0,1,143.27,54.83Z"/></g></g></g></g></svg>